<?xml version="1.0" encoding="UTF-8"?>
<svg version="1.1" xmlns="http://www.w3.org/2000/svg" width="1349" height="681">
<path d="M0 0 C445.17 0 890.34 0 1349 0 C1349 224.73 1349 449.46 1349 681 C903.83 681 458.66 681 0 681 C0 456.27 0 231.54 0 0 Z " fill="#F8F9FA" transform="translate(0,0)"/>
<path d="M0 0 C445.17 0 890.34 0 1349 0 C1349 40.26 1349 80.52 1349 122 C903.83 122 458.66 122 0 122 C0 81.74 0 41.48 0 0 Z " fill="#FEFEFE" transform="translate(0,0)"/>
<path d="M0 0 C1.2262261 0.00358611 1.2262261 0.00358611 2.47722445 0.00724467 C3.3422459 0.00584236 4.20726734 0.00444004 5.09850156 0.00299523 C8.04097688 -0.00052625 10.98340109 0.00317315 13.92587576 0.0067527 C16.04829128 0.00571101 18.17070662 0.00423085 20.29312156 0.00234833 C26.18143676 -0.00157923 32.06973576 0.00080164 37.95805072 0.00412628 C44.34283296 0.00664599 50.72761256 0.00340987 57.11239443 0.00088295 C68.32105517 -0.00274256 79.529711 -0.00264433 90.73837195 -0.00006989 C102.77085625 0.00267698 114.80333774 0.00326524 126.83582221 0.00119278 C127.59451682 0.0010636 128.35321144 0.00093443 129.1348968 0.00080134 C132.22470904 0.0002681 135.31452127 -0.0002806 138.4043335 -0.00084893 C167.21505788 -0.00614457 196.02578038 -0.0064942 224.83650504 -0.00370148 C225.69105453 -0.00361869 226.54560403 -0.00353589 227.42604896 -0.00345059 C228.70990879 -0.00332619 228.70990879 -0.00332619 230.01970519 -0.00319928 C256.0624595 -0.00067925 282.10521303 -0.00002324 308.14796744 -0.00122193 C309.88978717 -0.00129941 311.63160689 -0.00137656 313.37342662 -0.0014534 C320.37252652 -0.00176385 327.37162641 -0.00208251 334.37072631 -0.00241316 C353.93787654 -0.00333031 373.50502678 -0.00390081 393.07217703 -0.0041993 C393.96332664 -0.00421295 394.85447625 -0.00422659 395.77263039 -0.00424065 C424.18185643 -0.00465012 452.59108219 -0.00352206 481.00030814 -0.00134972 C481.92216056 -0.00127947 482.84401299 -0.00120922 483.79380034 -0.00113684 C498.76546072 0.0000082 513.7371211 0.00122762 528.70878148 0.00245333 C588.09350967 0.00730992 647.4782356 0.00708451 706.86296378 0.00222274 C721.82694795 0.00100162 736.79093212 -0.0002094 751.75491629 -0.00134972 C753.1368702 -0.00145539 753.1368702 -0.00145539 754.54674236 -0.0015632 C782.92551074 -0.00371837 811.30427894 -0.00463385 839.6830474 -0.0041993 C841.01879861 -0.00417892 841.01879861 -0.00417892 842.38153469 -0.00415813 C861.92669906 -0.0038457 881.47186341 -0.00321214 901.01702776 -0.0022888 C908.00998839 -0.00195963 915.00294903 -0.00164656 921.99590967 -0.00133809 C923.735684 -0.0012607 925.47545833 -0.00118197 927.21523266 -0.00110189 C953.25321392 0.00009325 979.29119431 -0.00092774 1005.32917546 -0.00345059 C1006.18372496 -0.00353338 1007.03827446 -0.00361618 1007.91871939 -0.00370148 C1009.19819415 -0.00382551 1009.19819415 -0.00382551 1010.50351688 -0.00395203 C1039.22862689 -0.006706 1067.95373463 -0.00570433 1096.67884431 -0.00042074 C1099.75903028 0.00013165 1102.83921625 0.00066835 1105.91940222 0.00119278 C1106.67536684 0.00132298 1107.43133146 0.00145319 1108.2102041 0.00158734 C1120.21392694 0.00356508 1132.21764698 0.00218083 1144.22136957 -0.00057623 C1156.00479021 -0.00321187 1167.78820513 -0.00222569 1179.57162528 0.00243786 C1185.88328907 0.00483343 1192.19494213 0.00559555 1198.50660561 0.00203187 C1204.23484453 -0.00116966 1209.96306308 0.00013175 1215.69130048 0.00521253 C1217.7637793 0.00622971 1219.83625976 0.00552778 1221.9087373 0.0030066 C1224.698517 -0.00014953 1227.48822381 0.00272207 1230.27799998 0.00724467 C1231.09548405 0.00485393 1231.91296812 0.00246319 1232.75522443 0 C1238.26345652 0.01843815 1238.26345652 0.01843815 1239.37761221 1.13259384 C1239.4755961 2.66112874 1239.50393052 4.19418348 1239.50459586 5.72585556 C1239.50882559 7.21505508 1239.50882559 7.21505508 1239.51314078 8.73433944 C1239.51111655 9.83256027 1239.50909232 10.93078109 1239.50700675 12.06228134 C1239.50875907 13.2117424 1239.51051138 14.36120346 1239.5123168 15.54549667 C1239.51673812 19.36621083 1239.51379634 23.18687916 1239.51042471 27.00759384 C1239.51109767 29.64935825 1239.51206763 32.2911226 1239.51332388 34.93288681 C1239.51514542 40.47797655 1239.51273969 46.02305299 1239.50798331 51.56814071 C1239.50254071 57.98754128 1239.50430338 64.40691009 1239.50980971 70.82630989 C1239.51488647 76.99060366 1239.51435933 83.15488331 1239.51142798 89.31917831 C1239.51075843 91.94755563 1239.5115881 94.57593376 1239.51390753 97.20431015 C1239.51643241 100.87053107 1239.51259578 104.53669005 1239.50700675 108.20290634 C1239.51004309 109.85023757 1239.51004309 109.85023757 1239.51314078 111.53084823 C1239.51032095 112.52364791 1239.50750113 113.5164476 1239.50459586 114.53933212 C1239.50421883 115.40728408 1239.50384181 116.27523605 1239.50345336 117.16948959 C1239.37761221 119.13259384 1239.37761221 119.13259384 1238.37761221 120.13259384 C1235.66943181 120.23236878 1232.98670848 120.26586465 1230.27799998 120.257943 C1229.41297853 120.25934532 1228.54795709 120.26074764 1227.65672287 120.26219245 C1224.71424755 120.26571393 1221.77182334 120.26201452 1218.82934866 120.25843498 C1216.70693315 120.25947666 1214.58451781 120.26095682 1212.46210287 120.26283934 C1206.57378767 120.2667669 1200.68548867 120.26438603 1194.7971737 120.26106139 C1188.41239147 120.25854168 1182.02761186 120.26177781 1175.64283 120.26430472 C1164.43416926 120.26793023 1153.22551343 120.26783201 1142.01685248 120.26525756 C1129.98436818 120.26251069 1117.95188669 120.26192243 1105.91940222 120.2639949 C1104.7813603 120.26418866 1104.7813603 120.26418866 1103.62032763 120.26438633 C1100.53051539 120.26491957 1097.44070316 120.26546828 1094.35089093 120.26603661 C1065.54016655 120.27133224 1036.72944405 120.27168187 1007.91871939 120.26888916 C1007.0641699 120.26880636 1006.2096204 120.26872356 1005.32917546 120.26863826 C1004.47326891 120.26855533 1003.61736236 120.2684724 1002.73551924 120.26838696 C976.69276493 120.26586693 950.6500114 120.26521092 924.60725699 120.2664096 C922.86543726 120.26648708 921.12361754 120.26656424 919.38179781 120.26664107 C912.38269791 120.26695152 905.38359802 120.26727019 898.38449812 120.26760084 C878.81734789 120.26851799 859.25019765 120.26908848 839.6830474 120.26938697 C838.79189779 120.26940062 837.90074818 120.26941427 836.98259404 120.26942832 C808.573368 120.26983779 780.16414224 120.26870973 751.75491629 120.26653739 C750.83306387 120.26646715 749.91121144 120.2663969 748.96142409 120.26632452 C733.98976371 120.26517948 719.01810333 120.26396006 704.04644295 120.26273435 C644.66171476 120.25787776 585.27698883 120.25810317 525.89226065 120.26296493 C510.92827648 120.26418605 495.96429231 120.26539708 481.00030814 120.26653739 C480.07900553 120.26660784 479.15770293 120.26667829 478.20848207 120.26675087 C449.82971369 120.26890604 421.45094549 120.26982153 393.07217703 120.26938697 C391.73642582 120.2693666 391.73642582 120.2693666 390.37368974 120.26934581 C370.82852537 120.26903337 351.28336102 120.26839982 331.73819667 120.26747647 C324.74523603 120.26714731 317.7522754 120.26683423 310.75931476 120.26652576 C309.01954043 120.26644837 307.2797661 120.26636964 305.53999177 120.26628956 C279.50201051 120.26509442 253.46403012 120.26611542 227.42604896 120.26863826 C226.14422472 120.26876245 226.14422472 120.26876245 224.83650504 120.26888916 C223.55703028 120.26901318 223.55703028 120.26901318 222.25170755 120.26913971 C193.52659754 120.27189367 164.8014898 120.270892 136.07638012 120.26560841 C132.99619415 120.26505602 129.91600818 120.26451932 126.83582221 120.2639949 C126.07985759 120.26386469 125.32389297 120.26373449 124.54502033 120.26360033 C112.54129749 120.2616226 100.53757745 120.26300685 88.53385486 120.2657639 C76.75043421 120.26839955 64.9670193 120.26741336 53.18359915 120.26274982 C46.87193536 120.26035425 40.5602823 120.25959213 34.24861882 120.2631558 C28.5203799 120.26635734 22.79216135 120.26505592 17.06392395 120.25997514 C14.99144513 120.25895796 12.91896467 120.25965989 10.84648713 120.26218108 C8.05670743 120.26533721 5.26700062 120.26246561 2.47722445 120.257943 C1.25099835 120.26152911 1.25099835 120.26152911 0 120.26518767 C-5.50823209 120.24674953 -5.50823209 120.24674953 -6.62238779 119.13259384 C-6.72037167 117.60405894 -6.74870609 116.07100419 -6.74937143 114.53933212 C-6.75219125 113.54653244 -6.75501108 112.55373275 -6.75791635 111.53084823 C-6.75589212 110.43262741 -6.75386789 109.33440658 -6.75178232 108.20290634 C-6.75353464 107.05344528 -6.75528696 105.90398422 -6.75709238 104.71969101 C-6.76151369 100.89897684 -6.75857191 97.07830852 -6.75520029 93.25759384 C-6.75587324 90.61582942 -6.7568432 87.97406507 -6.75809946 85.33230087 C-6.75992099 79.78721113 -6.75751526 74.24213469 -6.75275888 68.69704696 C-6.74731629 62.2776464 -6.74907895 55.85827758 -6.75458528 49.43887779 C-6.75966204 43.27458401 -6.7591349 37.11030436 -6.75620355 30.94600936 C-6.755534 28.31763204 -6.75636367 25.68925391 -6.7586831 23.06087753 C-6.76120798 19.3946566 -6.75737135 15.72849762 -6.75178232 12.06228134 C-6.75380655 10.96406051 -6.75583078 9.86583969 -6.75791635 8.73433944 C-6.75509653 7.74153976 -6.7522767 6.74874008 -6.74937143 5.72585556 C-6.7489944 4.85790359 -6.74861738 3.98995163 -6.74822893 3.09569809 C-6.48005446 -1.08778622 -3.49986288 0.01171537 0 0 Z " fill="#F8F9FA" transform="translate(59.622387785464525,223.867406162899)"/>
<path d="M0 0 C411.18 0 822.36 0 1246 0 C1246 23.76 1246 47.52 1246 72 C834.82 72 423.64 72 0 72 C0 48.24 0 24.48 0 0 Z " fill="#FEFEFE" transform="translate(53,344)"/>
<path d="M0 0 C411.18 0 822.36 0 1246 0 C1246 164 1246 164 1243 170 C1239.18884114 172.54077257 1236.13629468 172.27791862 1231.72071373 172.25299966 C1230.86057731 172.25605276 1230.00044089 172.25910585 1229.11423973 172.26225147 C1226.20042158 172.2701129 1223.28680725 172.26359486 1220.37298775 172.25726891 C1218.266505 172.25995941 1216.16002321 172.26352558 1214.05354327 172.26789337 C1208.21875146 172.2774074 1202.3840216 172.27433273 1196.54922662 172.26933783 C1190.21893906 172.26608698 1183.88866519 172.2743405 1177.55838192 172.28115618 C1166.4483889 172.29149181 1155.33841375 172.29436316 1144.22841644 172.29224396 C1132.30319369 172.28999788 1120.37798344 172.29205335 1108.4527626 172.29938889 C1107.70051193 172.29984819 1106.94826126 172.3003075 1106.17321512 172.30078072 C1103.10958435 172.30266392 1100.0459536 172.30457529 1096.98232288 172.3065231 C1064.9933725 172.32683153 1033.00442911 172.33293579 1001.01547302 172.33410732 C997.57030734 172.33423681 994.12514167 172.33437269 990.67997599 172.33451414 C989.82509284 172.33454815 988.97020968 172.33458216 988.08942098 172.3346172 C969.16074169 172.33543347 950.23206374 172.33981124 931.30338516 172.34482583 C923.51372996 172.34688249 915.72407473 172.34886252 907.93441951 172.35085833 C906.64345727 172.3511901 906.64345727 172.3511901 905.32641498 172.35152857 C855.99487836 172.36418007 806.66334261 172.37242644 757.33180428 172.37151146 C755.48490991 172.3714799 753.63801555 172.37144843 751.79112118 172.37141704 C743.45218823 172.37127027 735.11325527 172.37109393 726.77432231 172.37090927 C723.0556328 172.37082703 719.33694328 172.37074673 715.61825377 172.37066665 C713.75698087 172.37062586 711.89570797 172.37058382 710.03443507 172.37054053 C651.16764046 172.36917977 592.3008699 172.38381785 533.43408203 172.41162109 C518.60141571 172.41862283 503.76874936 172.42556162 488.93608284 172.43214989 C488.02284143 172.43255564 487.10960001 172.43296138 486.16868462 172.43337943 C458.03353754 172.4458043 429.89839243 172.45333956 401.76324272 172.45586586 C400.43875308 172.45598571 400.43875308 172.45598571 399.08750608 172.45610799 C379.70612079 172.45781433 360.32473563 172.458337 340.94335028 172.45776723 C334.00878762 172.45757426 327.07422495 172.45747017 320.13966227 172.45740977 C318.41444361 172.45739395 316.68922495 172.45737354 314.96400629 172.45734853 C287.44516957 172.45699551 259.92635341 172.46840684 232.40752259 172.48565616 C204.69986082 172.50293559 176.99222755 172.50735613 149.28456266 172.49413352 C145.45972166 172.4923088 141.63488062 172.49062227 137.81003952 172.48901749 C137.06023348 172.48869731 136.31042745 172.48837714 135.53790002 172.48804726 C123.64322643 172.48333274 111.74860197 172.49207597 99.85393762 172.50635986 C88.17088284 172.52011011 76.48791628 172.51935323 64.80486136 172.50397559 C58.54972303 172.49615606 52.29476 172.4948217 46.03963353 172.51089029 C40.35797487 172.52535883 34.67663885 172.52168172 28.99499499 172.50304256 C26.94390632 172.49957749 24.89279294 172.50292891 22.84172934 172.51364497 C20.0707488 172.52716164 17.30091919 172.51630906 14.52998459 172.49909532 C13.32905496 172.51379418 13.32905496 172.51379418 12.10386412 172.52878998 C8.35694253 172.47991856 6.21485808 172.13787038 3.02937596 170.09380654 C-36.43707254 129.37433928 0 56.70692701 0 0 Z M24 24 C24 64.92 24 105.84 24 148 C419.34 148 814.68 148 1222 148 C1222 107.08 1222 66.16 1222 24 C826.66 24 431.32 24 24 24 Z " fill="#FEFEFE" transform="translate(53,417)"/>
<path d="M0 0 C445.17 0 890.34 0 1349 0 C1349 11.22 1349 22.44 1349 34 C903.83 34 458.66 34 0 34 C0 22.78 0 11.56 0 0 Z " fill="#F1F1F1" transform="translate(0,647)"/>
<path d="M0 0 C1.13597185 -0.00779995 2.2719437 -0.01559991 3.44233894 -0.02363622 C7.25729717 -0.04361531 11.07126444 -0.02776719 14.88623047 -0.01205444 C17.61775782 -0.01607682 20.3492428 -0.02754825 23.08074951 -0.03860474 C29.73471275 -0.06084549 36.3883941 -0.05603238 43.04236841 -0.04154153 C48.44983898 -0.03025252 53.85723051 -0.02871691 59.26470947 -0.03416061 C60.03413883 -0.03492678 60.80356819 -0.03569294 61.5963136 -0.03648233 C63.15936329 -0.03808094 64.72241297 -0.03970201 66.28546262 -0.04134528 C80.94443401 -0.05560523 95.60324911 -0.03920626 110.26219487 -0.01234345 C122.84202981 0.0099956 135.42163407 0.00611553 148.00146484 -0.01693726 C162.60773709 -0.04369098 177.21387231 -0.05423191 191.82016563 -0.03887594 C193.37748589 -0.03728318 194.93480617 -0.03571133 196.49212646 -0.03416061 C197.25837062 -0.03338924 198.02461478 -0.03261786 198.81407845 -0.03182311 C204.21546155 -0.02750481 209.61675779 -0.03479542 215.01812744 -0.04655838 C221.60008875 -0.06057722 228.1817519 -0.05679673 234.76367903 -0.03015466 C238.12250803 -0.01700731 241.48042775 -0.01456613 244.83931732 -0.02840042 C248.47899024 -0.04201172 252.11725348 -0.02499056 255.75683594 0 C257.35239917 -0.01673041 257.35239917 -0.01673041 258.980196 -0.03379881 C263.74866248 0.02995347 266.10987051 0.06835637 270.03308105 2.96048927 C272.44457249 6.45544048 272.52389056 8.71954291 272.54248047 12.94741821 C272.5472641 13.63875854 272.55204773 14.33009888 272.55697632 15.04238892 C272.56036533 16.49805997 272.55123247 17.95380817 272.53027344 19.40933228 C272.50348343 21.62949318 272.53004444 23.84460082 272.56201172 26.06460571 C272.55870743 27.48388763 272.55230078 28.90316642 272.54248047 30.32241821 C272.53684082 31.6050354 272.53120117 32.88765259 272.52539062 34.20913696 C271.67302135 38.7225127 270.57854394 39.90723997 266.87841797 42.63491821 C263.17527283 43.38058341 259.5237619 43.30933485 255.75683594 43.26983643 C254.62086409 43.27763638 253.48489223 43.28543633 252.31449699 43.29347265 C248.49953877 43.31345174 244.6855715 43.29760361 240.87060547 43.28189087 C238.13907812 43.28591324 235.40759314 43.29738468 232.67608643 43.30844116 C226.02212319 43.33068192 219.36844184 43.3258688 212.71446753 43.31137796 C207.30699696 43.30008894 201.89960543 43.29855333 196.49212646 43.30399704 C195.7226971 43.3047632 194.95326774 43.30552937 194.16052234 43.30631875 C192.59747264 43.30791737 191.03442297 43.30953843 189.47137332 43.31118171 C174.81240192 43.32544165 160.15358683 43.30904269 145.49464107 43.28217988 C132.91480613 43.25984083 120.33520187 43.26372089 107.75537109 43.28677368 C93.14909885 43.31352741 78.54296362 43.32406834 63.9366703 43.30871236 C62.37935005 43.30711961 60.82202977 43.30554775 59.26470947 43.30399704 C58.11534324 43.30283997 58.11534324 43.30283997 56.94275749 43.30165953 C51.54137439 43.29734123 46.14007815 43.30463185 40.7387085 43.31639481 C34.15674718 43.33041365 27.57508403 43.32663315 20.99315691 43.29999109 C17.63432791 43.28684373 14.27640819 43.28440255 10.91751862 43.29823685 C7.27784569 43.31184815 3.63958246 43.29482699 0 43.26983643 C-1.06370882 43.28099003 -2.12741764 43.29214364 -3.22336006 43.30363524 C-7.99182654 43.23988296 -10.35303457 43.20148006 -14.27624512 40.30934715 C-16.68773655 36.81439594 -16.76705463 34.55029352 -16.78564453 30.32241821 C-16.79042816 29.63107788 -16.79521179 28.93973755 -16.80014038 28.22744751 C-16.80352939 26.77177645 -16.79439653 25.31602826 -16.7734375 23.86050415 C-16.74664749 21.64034325 -16.7732085 19.4252356 -16.80517578 17.20523071 C-16.80187149 15.78594879 -16.79546484 14.36667 -16.78564453 12.94741821 C-16.78000488 11.66480103 -16.77436523 10.38218384 -16.76855469 9.06069946 C-14.99415759 -0.33490059 -7.94947265 -0.08335487 0 0 Z " fill="#F3F5F6" transform="translate(396.12158203125,276.3650817871094)"/>
<path d="M0 0 C1.1318883 -0.00779995 2.2637766 -0.01559991 3.42996454 -0.02363622 C7.23110444 -0.04361488 11.03124973 -0.02776737 14.83239746 -0.01205444 C17.5540728 -0.01607684 20.27570561 -0.02754829 22.99736023 -0.03860474 C29.62726033 -0.06084526 36.25687751 -0.05603248 42.88678873 -0.04154153 C48.27471323 -0.03025243 53.6625584 -0.02871695 59.05049133 -0.03416061 C59.81714533 -0.03492678 60.58379933 -0.03569294 61.37368527 -0.03648233 C62.93109797 -0.03808094 64.48851064 -0.03970201 66.04592329 -0.04134528 C80.65195979 -0.05560516 95.25783941 -0.03920637 109.86385018 -0.01234345 C122.39820362 0.00999559 134.93232554 0.00611553 147.4666748 -0.01693726 C162.02020947 -0.0436911 176.57360663 -0.05423184 191.12716246 -0.03887594 C192.67886573 -0.03728318 194.23056902 -0.03571133 195.78227234 -0.03416061 C196.54575238 -0.03338924 197.30923243 -0.03261786 198.09584823 -0.03182311 C203.47769479 -0.02750484 208.85945417 -0.03479534 214.24128723 -0.04655838 C220.79946037 -0.06057736 227.35733427 -0.05679645 233.9154731 -0.03015466 C237.26215153 -0.01700748 240.60791739 -0.0145659 243.9546566 -0.02840042 C247.58119412 -0.04201205 251.20631693 -0.0249902 254.83276367 0 C255.89258154 -0.01115361 256.95239942 -0.02230722 258.04433298 -0.03379881 C262.80442532 0.03006963 265.15288636 0.07165697 269.06867218 2.96048927 C271.48322108 6.45537789 271.56184753 8.71797349 271.58044434 12.94741821 C271.58522797 13.63875854 271.5900116 14.33009888 271.59494019 15.04238892 C271.59832919 16.49805997 271.58919634 17.95380817 271.5682373 19.40933228 C271.5414473 21.62949318 271.5680083 23.84460082 271.59997559 26.06460571 C271.5966713 27.48388763 271.59026465 28.90316642 271.58044434 30.32241821 C271.57480469 31.6050354 271.56916504 32.88765259 271.56335449 34.20913696 C270.71124006 38.72116326 269.61409313 39.90696823 265.91638184 42.63491821 C262.22579692 43.3801964 258.58728672 43.30934933 254.83276367 43.26983643 C253.70087537 43.27763638 252.56898707 43.28543633 251.40279913 43.29347265 C247.60165923 43.3134513 243.80151394 43.2976038 240.00036621 43.28189087 C237.27869087 43.28591327 234.55705807 43.29738471 231.83540344 43.30844116 C225.20550334 43.33068169 218.57588616 43.32586891 211.94597495 43.31137796 C206.55805045 43.30008885 201.17020527 43.29855337 195.78227234 43.30399704 C194.63229134 43.30514629 194.63229134 43.30514629 193.4590784 43.30631875 C191.9016657 43.30791737 190.34425303 43.30953844 188.78684038 43.31118171 C174.18080389 43.32544159 159.57492426 43.3090428 144.9689135 43.28217988 C132.43456005 43.25984084 119.90043813 43.2637209 107.36608887 43.28677368 C92.8125542 43.31352753 78.25915704 43.32406827 63.70560122 43.30871236 C62.15389794 43.30711961 60.60219465 43.30554775 59.05049133 43.30399704 C58.28701129 43.30322566 57.52353124 43.30245428 56.73691544 43.30165953 C51.35506888 43.29734127 45.9733095 43.30463177 40.59147644 43.31639481 C34.0333033 43.33041378 27.4754294 43.32663287 20.91729057 43.29999109 C17.57061214 43.28684391 14.22484628 43.28440232 10.87810707 43.29823685 C7.25156955 43.31184847 3.62644674 43.29482663 0 43.26983643 C-1.05981787 43.28099003 -2.11963574 43.29214364 -3.21156931 43.30363524 C-7.97166164 43.23976679 -10.32012269 43.19817946 -14.23590851 40.30934715 C-16.65045741 36.81445853 -16.72908386 34.55186294 -16.74768066 30.32241821 C-16.75246429 29.63107788 -16.75724792 28.93973755 -16.76217651 28.22744751 C-16.76556552 26.77177645 -16.75643266 25.31602826 -16.73547363 23.86050415 C-16.70868363 21.64034325 -16.73524463 19.4252356 -16.76721191 17.20523071 C-16.76390763 15.78594879 -16.75750097 14.36667 -16.74768066 12.94741821 C-16.74204102 11.66480103 -16.73640137 10.38218384 -16.73059082 9.06069946 C-14.95922762 -0.31883577 -7.93917048 -0.08355247 0 0 Z " fill="#F5F7F8" transform="translate(700.0836181640625,276.3650817871094)"/>
<path d="M0 0 C1.1318883 -0.00779995 2.2637766 -0.01559991 3.42996454 -0.02363622 C7.23110444 -0.04361488 11.03124973 -0.02776737 14.83239746 -0.01205444 C17.5540728 -0.01607684 20.27570561 -0.02754829 22.99736023 -0.03860474 C29.62726033 -0.06084526 36.25687751 -0.05603248 42.88678873 -0.04154153 C48.27471323 -0.03025243 53.6625584 -0.02871695 59.05049133 -0.03416061 C59.81714533 -0.03492678 60.58379933 -0.03569294 61.37368527 -0.03648233 C62.93109797 -0.03808094 64.48851064 -0.03970201 66.04592329 -0.04134528 C80.65195979 -0.05560516 95.25783941 -0.03920637 109.86385018 -0.01234345 C122.39820362 0.00999559 134.93232554 0.00611553 147.4666748 -0.01693726 C162.02020947 -0.0436911 176.57360663 -0.05423184 191.12716246 -0.03887594 C192.67886573 -0.03728318 194.23056902 -0.03571133 195.78227234 -0.03416061 C196.54575238 -0.03338924 197.30923243 -0.03261786 198.09584823 -0.03182311 C203.47769479 -0.02750484 208.85945417 -0.03479534 214.24128723 -0.04655838 C220.79946037 -0.06057736 227.35733427 -0.05679645 233.9154731 -0.03015466 C237.26215153 -0.01700748 240.60791739 -0.0145659 243.9546566 -0.02840042 C247.58119412 -0.04201205 251.20631693 -0.0249902 254.83276367 0 C255.89258154 -0.01115361 256.95239942 -0.02230722 258.04433298 -0.03379881 C262.80442532 0.03006963 265.15288636 0.07165697 269.06867218 2.96048927 C271.48322108 6.45537789 271.56184753 8.71797349 271.58044434 12.94741821 C271.58522797 13.63875854 271.5900116 14.33009888 271.59494019 15.04238892 C271.59832919 16.49805997 271.58919634 17.95380817 271.5682373 19.40933228 C271.5414473 21.62949318 271.5680083 23.84460082 271.59997559 26.06460571 C271.5966713 27.48388763 271.59026465 28.90316642 271.58044434 30.32241821 C271.57480469 31.6050354 271.56916504 32.88765259 271.56335449 34.20913696 C270.71124006 38.72116326 269.61409313 39.90696823 265.91638184 42.63491821 C262.22579692 43.3801964 258.58728672 43.30934933 254.83276367 43.26983643 C253.70087537 43.27763638 252.56898707 43.28543633 251.40279913 43.29347265 C247.60165923 43.3134513 243.80151394 43.2976038 240.00036621 43.28189087 C237.27869087 43.28591327 234.55705807 43.29738471 231.83540344 43.30844116 C225.20550334 43.33068169 218.57588616 43.32586891 211.94597495 43.31137796 C206.55805045 43.30008885 201.17020527 43.29855337 195.78227234 43.30399704 C194.63229134 43.30514629 194.63229134 43.30514629 193.4590784 43.30631875 C191.9016657 43.30791737 190.34425303 43.30953844 188.78684038 43.31118171 C174.18080389 43.32544159 159.57492426 43.3090428 144.9689135 43.28217988 C132.43456005 43.25984084 119.90043813 43.2637209 107.36608887 43.28677368 C92.8125542 43.31352753 78.25915704 43.32406827 63.70560122 43.30871236 C62.15389794 43.30711961 60.60219465 43.30554775 59.05049133 43.30399704 C58.28701129 43.30322566 57.52353124 43.30245428 56.73691544 43.30165953 C51.35506888 43.29734127 45.9733095 43.30463177 40.59147644 43.31639481 C34.0333033 43.33041378 27.4754294 43.32663287 20.91729057 43.29999109 C17.57061214 43.28684391 14.22484628 43.28440232 10.87810707 43.29823685 C7.25156955 43.31184847 3.62644674 43.29482663 0 43.26983643 C-1.05981787 43.28099003 -2.11963574 43.29214364 -3.21156931 43.30363524 C-7.97166164 43.23976679 -10.32012269 43.19817946 -14.23590851 40.30934715 C-16.65045741 36.81445853 -16.72908386 34.55186294 -16.74768066 30.32241821 C-16.75246429 29.63107788 -16.75724792 28.93973755 -16.76217651 28.22744751 C-16.76556552 26.77177645 -16.75643266 25.31602826 -16.73547363 23.86050415 C-16.70868363 21.64034325 -16.73524463 19.4252356 -16.76721191 17.20523071 C-16.76390763 15.78594879 -16.75750097 14.36667 -16.74768066 12.94741821 C-16.74204102 11.66480103 -16.73640137 10.38218384 -16.73059082 9.06069946 C-14.95922762 -0.31883577 -7.93917048 -0.08355247 0 0 Z " fill="#F3F5F6" transform="translate(93.0836181640625,276.3650817871094)"/>
<path d="M0 0 C1.13597185 -0.00779995 2.2719437 -0.01559991 3.44233894 -0.02363622 C7.25729717 -0.04361531 11.07126444 -0.02776719 14.88623047 -0.01205444 C17.61775782 -0.01607682 20.3492428 -0.02754825 23.08074951 -0.03860474 C29.73471275 -0.06084549 36.3883941 -0.05603238 43.04236841 -0.04154153 C48.44983898 -0.03025252 53.85723051 -0.02871691 59.26470947 -0.03416061 C60.03413883 -0.03492678 60.80356819 -0.03569294 61.5963136 -0.03648233 C63.15936329 -0.03808094 64.72241297 -0.03970201 66.28546262 -0.04134528 C80.94443401 -0.05560523 95.60324911 -0.03920626 110.26219487 -0.01234345 C122.84202981 0.0099956 135.42163407 0.00611553 148.00146484 -0.01693726 C162.60773709 -0.04369098 177.21387231 -0.05423191 191.82016563 -0.03887594 C193.37748589 -0.03728318 194.93480617 -0.03571133 196.49212646 -0.03416061 C197.25837062 -0.03338924 198.02461478 -0.03261786 198.81407845 -0.03182311 C204.21546155 -0.02750481 209.61675779 -0.03479542 215.01812744 -0.04655838 C221.60008875 -0.06057722 228.1817519 -0.05679673 234.76367903 -0.03015466 C238.12250803 -0.01700731 241.48042775 -0.01456613 244.83931732 -0.02840042 C248.47899024 -0.04201172 252.11725348 -0.02499056 255.75683594 0 C257.35239917 -0.01673041 257.35239917 -0.01673041 258.980196 -0.03379881 C263.75664436 0.03006018 266.10910871 0.06499654 270.03308105 2.97196388 C272.37308077 6.34875232 272.52323996 8.41993616 272.54248047 12.50991821 C272.54892578 13.82476196 272.55537109 15.13960571 272.56201172 16.49429321 C272.55153809 17.17427368 272.54106445 17.85425415 272.53027344 18.55484009 C272.50347805 20.63026502 272.53004684 22.70028497 272.56201172 24.77554321 C272.55556641 26.09038696 272.54912109 27.40523071 272.54248047 28.75991821 C272.53684082 29.95874634 272.53120117 31.15757446 272.52539062 32.39273071 C271.65201264 36.76950794 270.47150734 37.97307644 266.87841797 40.63491821 C263.17559075 41.38168285 259.52363174 41.30933348 255.75683594 41.26983643 C254.62086409 41.27763638 253.48489223 41.28543633 252.31449699 41.29347265 C248.49953877 41.31345174 244.6855715 41.29760361 240.87060547 41.28189087 C238.13907812 41.28591324 235.40759314 41.29738468 232.67608643 41.30844116 C226.02212319 41.33068192 219.36844184 41.3258688 212.71446753 41.31137796 C207.30699696 41.30008894 201.89960543 41.29855333 196.49212646 41.30399704 C195.7226971 41.3047632 194.95326774 41.30552937 194.16052234 41.30631875 C192.59747264 41.30791737 191.03442297 41.30953843 189.47137332 41.31118171 C174.81240192 41.32544165 160.15358683 41.30904269 145.49464107 41.28217988 C132.91480613 41.25984083 120.33520187 41.26372089 107.75537109 41.28677368 C93.14909885 41.31352741 78.54296362 41.32406834 63.9366703 41.30871236 C62.37935005 41.30711961 60.82202977 41.30554775 59.26470947 41.30399704 C58.11534324 41.30283997 58.11534324 41.30283997 56.94275749 41.30165953 C51.54137439 41.29734123 46.14007815 41.30463185 40.7387085 41.31639481 C34.15674718 41.33041365 27.57508403 41.32663315 20.99315691 41.29999109 C17.63432791 41.28684373 14.27640819 41.28440255 10.91751862 41.29823685 C7.27784569 41.31184815 3.63958246 41.29482699 0 41.26983643 C-1.06370882 41.28099003 -2.12741764 41.29214364 -3.22336006 41.30363524 C-7.99980842 41.23977624 -10.35227277 41.20483989 -14.27624512 38.29787254 C-16.61624483 34.9210841 -16.76640402 32.84990027 -16.78564453 28.75991821 C-16.79208984 27.44507446 -16.79853516 26.13023071 -16.80517578 24.77554321 C-16.79470215 24.09556274 -16.78422852 23.41558228 -16.7734375 22.71499634 C-16.74664211 20.63957141 -16.7732109 18.56955146 -16.80517578 16.49429321 C-16.79550781 14.52202759 -16.79550781 14.52202759 -16.78564453 12.50991821 C-16.78000488 11.31109009 -16.77436523 10.11226196 -16.76855469 8.87710571 C-14.92247663 -0.37418355 -7.82365974 -0.08203564 0 0 Z " fill="#4F39F6" transform="translate(1003.12158203125,278.3650817871094)"/>
<path d="M0 0 C70.62 0 141.24 0 214 0 C214 13.2 214 26.4 214 40 C143.38 40 72.76 40 0 40 C0 26.8 0 13.6 0 0 Z " fill="#FEFEFE" transform="translate(813,483)"/>
<path d="M0 0 C47.52 0 95.04 0 144 0 C144 13.2 144 26.4 144 40 C96.48 40 48.96 40 0 40 C0 26.8 0 13.6 0 0 Z " fill="#FEFEFE" transform="translate(78,483)"/>
<path d="M0 0 C47.52 0 95.04 0 144 0 C144 13.2 144 26.4 144 40 C96.48 40 48.96 40 0 40 C0 26.8 0 13.6 0 0 Z " fill="#F7F8F9" transform="translate(78,442)"/>
<path d="M0 0 C395.34 0 790.68 0 1198 0 C1198 40.92 1198 81.84 1198 124 C802.66 124 407.32 124 0 124 C0 83.08 0 42.16 0 0 Z M1 1 C1 14.2 1 27.4 1 41 C48.52 41 96.04 41 145 41 C145 27.8 145 14.6 145 1 C97.48 1 49.96 1 1 1 Z M146 1 C146 14.2 146 27.4 146 41 C340.37 41 534.74 41 735 41 C735 27.8 735 14.6 735 1 C540.63 1 346.26 1 146 1 Z M736 1 C736 14.2 736 27.4 736 41 C806.62 41 877.24 41 950 41 C950 27.8 950 14.6 950 1 C879.38 1 808.76 1 736 1 Z M951 1 C951 14.2 951 27.4 951 41 C1032.18 41 1113.36 41 1197 41 C1197 27.8 1197 14.6 1197 1 C1115.82 1 1034.64 1 951 1 Z M1 42 C1 55.2 1 68.4 1 82 C48.52 82 96.04 82 145 82 C145 68.8 145 55.6 145 42 C97.48 42 49.96 42 1 42 Z M146 42 C146 55.2 146 68.4 146 82 C340.37 82 534.74 82 735 82 C735 68.8 735 55.6 735 42 C540.63 42 346.26 42 146 42 Z M736 42 C736 55.2 736 68.4 736 82 C806.62 82 877.24 82 950 82 C950 68.8 950 55.6 950 42 C879.38 42 808.76 42 736 42 Z M951 42 C951 55.2 951 68.4 951 82 C1032.18 82 1113.36 82 1197 82 C1197 68.8 1197 55.6 1197 42 C1115.82 42 1034.64 42 951 42 Z M1 83 C1 96.2 1 109.4 1 123 C314.17 123 627.34 123 950 123 C950 109.8 950 96.6 950 83 C636.83 83 323.66 83 1 83 Z M951 83 C951 96.2 951 109.4 951 123 C1032.18 123 1113.36 123 1197 123 C1197 109.8 1197 96.6 1197 83 C1115.82 83 1034.64 83 951 83 Z " fill="#E5E7EB" transform="translate(77,441)"/>
<path d="M0 0 C0.598125 0.78375 1.19625 1.5675 1.8125 2.375 C3.91085249 5.14574323 3.91085249 5.14574323 7 7 C9.79337928 7.19395102 12.48667956 7.26876369 15.28043693 7.25299966 C16.57082791 7.25757931 16.57082791 7.25757931 17.88728739 7.26225147 C20.8015276 7.2701129 23.71556401 7.26359485 26.62980556 7.25726891 C28.73659094 7.2599594 30.84337535 7.26352558 32.95015791 7.26789337 C38.78578312 7.27740739 44.62134637 7.27433273 50.45697474 7.26933783 C56.78815092 7.26608699 63.1193134 7.2743405 69.45048529 7.28115618 C80.56200865 7.2914918 91.67351416 7.29436316 102.78504181 7.29224396 C114.71187627 7.28999788 126.63869823 7.29205334 138.56553078 7.29938889 C139.6940575 7.30007784 139.6940575 7.30007784 140.84538275 7.30078072 C143.90942049 7.30266392 146.97345821 7.30457529 150.0374959 7.3065231 C182.03042726 7.32683137 214.02335162 7.33293578 246.01628869 7.33410732 C249.46184432 7.33423681 252.90739995 7.33437269 256.35295558 7.33451414 C257.20793378 7.33454815 258.06291199 7.33458216 258.94379862 7.3346172 C277.87431044 7.33543346 296.80482092 7.33981118 315.73533202 7.34482583 C323.52563828 7.34688248 331.31594455 7.34886252 339.10625082 7.35085833 C339.96696205 7.35107951 340.82767328 7.35130069 341.71446667 7.35152857 C391.0496468 7.36417998 440.38482606 7.37242644 489.7200079 7.37151146 C491.56702874 7.3714799 493.41404959 7.37144843 495.26107044 7.37141704 C503.60058544 7.37127027 511.94010044 7.37109393 520.27961544 7.37090927 C523.99856985 7.37082703 527.71752426 7.37074673 531.43647867 7.37066665 C533.29788401 7.37062586 535.15928935 7.37058382 537.02069469 7.37054053 C595.8942592 7.36917971 654.76779965 7.38381892 713.64135742 7.41162109 C728.47625439 7.41862281 743.31115139 7.42556159 758.14604855 7.43214989 C759.05942238 7.43255564 759.97279622 7.43296138 760.91384806 7.43337943 C789.05186418 7.44580378 817.18987832 7.45333945 845.32789707 7.45586586 C846.2109437 7.45594576 847.09399033 7.45602566 848.00379594 7.45610799 C867.38608088 7.4578143 886.7683657 7.45833701 906.1506507 7.45776723 C913.08547069 7.45757425 920.02029069 7.45747017 926.95511069 7.45740977 C928.68039788 7.45739395 930.40568506 7.45737354 932.13097225 7.45734853 C959.65357685 7.45699548 987.17616091 7.4684082 1014.69875962 7.48565616 C1042.40886865 7.5029334 1070.11894918 7.507358 1097.82906133 7.49413352 C1101.65373022 7.49230878 1105.47839917 7.49062226 1109.30306816 7.48901749 C1110.42773239 7.48853722 1110.42773239 7.48853722 1111.57511711 7.48804726 C1123.4721216 7.48333166 1135.36907699 7.49207843 1147.26607224 7.50635986 C1158.94973434 7.52010584 1170.63330822 7.51935803 1182.31697045 7.50397559 C1188.5731259 7.49615289 1194.82910604 7.49483055 1201.08524965 7.51089029 C1206.76666065 7.52534796 1212.44774884 7.52169487 1218.12914499 7.50304256 C1220.18126541 7.49957453 1222.23341049 7.50293829 1224.28550591 7.51364497 C1227.05547584 7.52713927 1229.82429044 7.5163283 1232.5942139 7.49909532 C1233.79890685 7.51379418 1233.79890685 7.51379418 1235.02793704 7.52878998 C1238.56041603 7.48256814 1240.59526288 7.30298543 1243.46286163 5.15630654 C1245.16636599 2.98953694 1245.16636599 2.98953694 1246 0 C1246.66 0 1247.32 0 1248 0 C1247.58565093 4.83407252 1245.62206046 6.89537674 1242 10 C1238.21778798 11.26073734 1234.68744107 11.13879688 1230.74751252 11.12880117 C1229.89027804 11.13057618 1229.03304356 11.13235119 1228.14983228 11.13417998 C1225.24595617 11.13895198 1222.34212905 11.13653927 1219.43825054 11.13422108 C1217.33889295 11.13617261 1215.23953572 11.13856091 1213.14017907 11.14134905 C1207.32517735 11.14777706 1201.5101894 11.14790845 1195.69518481 11.14707164 C1189.38632144 11.14724059 1183.07746308 11.15314049 1176.76860219 11.1583125 C1165.69619335 11.16656918 1154.623788 11.17106574 1143.55137634 11.17303848 C1131.66646967 11.1751653 1119.78156668 11.17942109 1107.89666176 11.1862812 C1107.14695133 11.18671182 1106.3972409 11.18714243 1105.62481198 11.1875861 C1102.57152413 11.1893444 1099.5182363 11.19111404 1096.46494847 11.19289912 C1059.42836406 11.21451013 1022.39177892 11.22537922 985.35518965 11.23437535 C973.347823 11.23730829 961.34045652 11.24067803 949.33309007 11.24434257 C948.4862912 11.24460086 947.63949233 11.24485915 946.76703289 11.24512527 C943.34135658 11.24617146 939.91568026 11.24721988 936.49000395 11.24827109 C877.89563042 11.26623576 819.3012566 11.28161621 760.7068807 11.28903012 C756.10344189 11.2896141 751.50000308 11.29021136 746.89656426 11.29080774 C745.98337417 11.29092586 745.07018408 11.29104398 744.12932156 11.29116567 C734.87718579 11.29236309 725.62505002 11.29357184 716.37291426 11.29479821 C714.51781202 11.29504344 712.66270979 11.2952873 710.80760755 11.29552978 C651.2113584 11.30332177 591.61512893 11.32571015 532.01888838 11.3582062 C489.20344393 11.38154432 446.38800338 11.40309993 403.57255268 11.41021252 C402.69247686 11.41035954 401.81240104 11.41050656 400.90565625 11.41065803 C381.58802468 11.41384249 362.27039315 11.41589364 342.95276135 11.41688558 C335.18061299 11.41730034 327.40846464 11.41785524 319.6363163 11.41844749 C318.36036832 11.4185385 318.36036832 11.4185385 317.05864361 11.41863134 C289.63286367 11.42064916 262.20710694 11.434901 234.7813351 11.4553925 C207.16601003 11.47595251 179.5507118 11.48387844 151.93537984 11.47431473 C148.12276707 11.4729962 144.31015427 11.47181818 140.49754143 11.47072411 C139.37643403 11.47039433 139.37643403 11.47039433 138.23267799 11.4700579 C126.37894359 11.4669387 114.52526039 11.47728896 102.67153786 11.49319966 C91.02698829 11.50855205 79.38252512 11.50939803 67.73797138 11.49565142 C61.50414928 11.4887084 55.27050419 11.48824224 49.03669741 11.50521151 C43.37321375 11.52050355 37.710051 11.51761416 32.04657737 11.49980123 C30.00318763 11.49663379 27.95977401 11.50026903 25.91641155 11.51129298 C23.15338997 11.52523641 20.39151546 11.5147404 17.62853497 11.49794465 C16.83306111 11.50786203 16.03758724 11.5177794 15.21800811 11.5279973 C10.03212255 11.46109952 7.14504546 10.37305531 3 7 C0.58363706 4.34200077 0 3.64705667 0 0 Z " fill="#F0F1F3" transform="translate(52,581)"/>
<path d="M0 0 C0.8353125 1.1446875 0.8353125 1.1446875 1.6875 2.3125 C5.13636831 6.32064425 7.51621549 7.85508512 12.85646253 8.37664418 C14.4046836 8.39274944 15.95312898 8.39233671 17.50137645 8.37900752 C18.36121806 8.3835362 19.22105967 8.38806489 20.10695709 8.39273081 C23.00778845 8.40431619 25.90815475 8.39442725 28.80898762 8.38476086 C30.91078885 8.38868585 33.01258798 8.39392581 35.11438301 8.40036663 C40.92683904 8.41432695 46.73915442 8.4094776 52.55161654 8.40173779 C58.86107431 8.39661437 65.1705016 8.4088135 71.47995013 8.41886932 C82.55011323 8.43410135 93.62023632 8.43825006 104.69040871 8.43499184 C116.57125421 8.43155291 128.45207132 8.43463375 140.33291245 8.44572449 C141.45755357 8.44676851 141.45755357 8.44676851 142.60491473 8.44783363 C146.42779186 8.45141267 150.25066888 8.45509829 154.07354588 8.45882157 C181.76050942 8.485569 209.4474642 8.49780678 237.13443947 8.50238609 C264.55832383 8.50696432 291.98219436 8.51773006 319.40607262 8.53681374 C320.25736023 8.53740331 321.10864784 8.53799288 321.98573204 8.53860032 C329.76079061 8.54398834 337.53584912 8.54945276 345.31090757 8.55500887 C364.63990965 8.56882056 383.9689123 8.58167383 403.29791546 8.59387684 C404.17817194 8.59443334 405.05842841 8.59498984 405.96535933 8.59556321 C448.79778546 8.6225584 491.63021477 8.63851186 534.46264648 8.65356445 C549.32877608 8.65879499 564.19490565 8.66407431 579.06103516 8.66955566 C580.44400991 8.67006551 580.44400991 8.67006551 581.85492355 8.67058566 C624.70562605 8.68644992 667.55632316 8.71015166 710.40702074 8.73587859 C713.18849468 8.7375484 715.96996863 8.73921483 718.75144257 8.74088058 C737.18422306 8.75192484 755.61700345 8.76310426 774.0497838 8.7743742 C810.72728283 8.7967979 847.40478232 8.81842736 884.08228215 8.83951129 C885.82900946 8.84051539 887.57573677 8.84152005 889.32246407 8.84252527 C967.96863493 8.88778049 1046.61480905 8.92379572 1125.26098633 8.95581055 C1125.99748859 8.95611042 1126.73399085 8.95641029 1127.49281137 8.95671924 C1164.32854069 8.97170994 1201.16427022 8.98617353 1238 9 C1238 9.33 1238 9.66 1238 10 C1200.38973008 10.01649409 1162.77945988 10.03230996 1125.16918945 10.04760742 C1124.43324812 10.04790681 1123.69730678 10.04820621 1122.93906419 10.04851467 C1044.09887854 10.08056971 965.2586928 10.10824083 886.41850281 10.12702942 C884.66770797 10.12744777 882.91691313 10.12786613 881.16611829 10.12828448 C844.41833662 10.1370521 807.67055483 10.1452023 770.92277287 10.15263903 C752.4637776 10.15637528 734.00478236 10.16023021 715.54578714 10.16419732 C712.76127732 10.16479507 709.9767675 10.16538943 707.19225769 10.16598364 C664.30303561 10.17516608 621.41381608 10.18689722 578.52459717 10.20599365 C577.14084067 10.2066097 577.14084067 10.2066097 575.7291295 10.20723819 C560.85515869 10.21387549 545.98118797 10.22072625 531.10721727 10.22760532 C488.27760321 10.24741037 445.4479911 10.26564309 402.61837292 10.27341938 C401.7380422 10.27357999 400.85771148 10.27374059 399.95070408 10.27390606 C380.62760457 10.27740295 361.30450504 10.2800877 341.98140532 10.28200295 C334.20702174 10.28278784 326.43263818 10.2836897 318.65825462 10.28463173 C317.80737009 10.28473201 316.95648555 10.28483229 316.07981664 10.28493561 C288.64181891 10.28822756 261.20383573 10.30104964 233.76584388 10.31884663 C206.13763058 10.33672353 178.50943143 10.34530254 150.8812122 10.34087196 C147.06724611 10.34026268 143.25328001 10.33976055 139.43931389 10.33932304 C138.69163786 10.3392334 137.94396182 10.33914376 137.17362894 10.3390514 C125.31274284 10.33790741 113.45188657 10.34688068 101.59100861 10.36002959 C89.94102884 10.3727383 78.29109645 10.37458857 66.64111206 10.36549544 C60.40365468 10.36094128 54.16629745 10.36126137 47.92885057 10.37464955 C42.26322681 10.38671868 36.59778213 10.3851789 30.93216137 10.37241993 C28.88685047 10.37026346 26.84152673 10.37322148 24.79623229 10.38170573 C22.0331955 10.39244763 19.27080437 10.38490656 16.50778848 10.37259549 C15.70945133 10.38012212 14.91111418 10.38764875 14.088585 10.39540346 C9.53757321 10.3517406 6.63116646 9.79412033 3 7 C0.61753391 4.3710719 0 3.61165822 0 0 Z " fill="#E3E4E5" transform="translate(52,581)"/>
<path d="M0 0 C5.28 0 10.56 0 16 0 C16 2.64 16 5.28 16 8 C14.35 8.33 12.7 8.66 11 9 C10.855625 9.928125 10.71125 10.85625 10.5625 11.8125 C10 15 10 15 9 18 C5.37 18 1.74 18 -2 18 C-2.18175781 17.00097656 -2.36351563 16.00195312 -2.55078125 14.97265625 C-2.80214844 13.68230469 -3.05351563 12.39195313 -3.3125 11.0625 C-3.55613281 9.77472656 -3.79976563 8.48695312 -4.05078125 7.16015625 C-4.36402344 6.11730469 -4.67726562 5.07445312 -5 4 C-5.99 3.67 -6.98 3.34 -8 3 C-4.23312136 3 -3.08809695 3.23537317 0 5 C0 3.35 0 1.7 0 0 Z " fill="#897DF9" transform="translate(68,26)"/>
<path d="M0 0 C3.8425303 0.72047443 5.45767292 1.57152696 8 4.5625 C8.7975483 9.58705429 8.82360163 11.39976829 5.875 15.5625 C3 17.5625 3 17.5625 0 18.1875 C-4.10703441 17.33186783 -5.55401113 15.94371991 -8 12.5625 C-8.625 9.0625 -8.625 9.0625 -8 5.5625 C-5.54999553 2.17572911 -4.13607554 0.77551416 0 0 Z " fill="#5B47F6" transform="translate(185,28.4375)"/>
<path d="M0 0 C1.65 0 3.3 0 5 0 C6.32 3.3 7.64 6.6 9 10 C10.32 6.7 11.64 3.4 13 0 C14.98 0 16.96 0 19 0 C19 5.61 19 11.22 19 17 C17.68 17 16.36 17 15 17 C14.67 14.03 14.34 11.06 14 8 C13.01 10.97 12.02 13.94 11 17 C9.68 17 8.36 17 7 17 C6.01 14.03 5.02 11.06 4 8 C3.67 10.97 3.34 13.94 3 17 C2.01 17 1.02 17 0 17 C0 11.39 0 5.78 0 0 Z " fill="#634FF6" transform="translate(106,29)"/>
<path d="M0 0 C0.33 0.66 0.66 1.32 1 2 C1.66 1.34 2.32 0.68 3 0 C5.625 -0.125 5.625 -0.125 8 0 C8 0.66 8 1.32 8 2 C6.68 2 5.36 2 4 2 C5.65 3.65 7.3 5.3 9 7 C8.34 8.32 7.68 9.64 7 11 C4.66666667 11 2.33333333 11 0 11 C-0.99 11.04125 -1.98 11.0825 -3 11.125 C-6 11 -6 11 -8 9 C-8.3125 5.5 -8.3125 5.5 -8 2 C-4.77208445 -0.1519437 -3.71599191 -0.20086443 0 0 Z " fill="#EDF2F1" transform="translate(848,293)"/>
<path d="M0 0 C8.625 -0.25 8.625 -0.25 12 2 C12.375 5.5 12.375 5.5 12 9 C8.77208445 11.1519437 7.71599191 11.20086443 4 11 C4 12.98 4 14.96 4 17 C2.68 17 1.36 17 0 17 C0 11.39 0 5.78 0 0 Z " fill="#5B47F6" transform="translate(163,29)"/>
<path d="M0 0 C0 0.99 0 1.98 0 3 C2.31 3 4.62 3 7 3 C7 3.66 7 4.32 7 5 C6.34 5 5.68 5 5 5 C5 6.98 5 8.96 5 11 C4.195625 10.814375 3.39125 10.62875 2.5625 10.4375 C1.716875 10.293125 0.87125 10.14875 0 10 C-0.33 10.33 -0.66 10.66 -1 11 C-3.9375 11.1875 -3.9375 11.1875 -7 11 C-9 9 -9 9 -9.3125 5.5 C-9.209375 4.345 -9.10625 3.19 -9 2 C-5.5647952 -0.29013653 -4.014669 -0.17842973 0 0 Z " fill="#E5EBDA" transform="translate(930,539)"/>
<path d="M0 0 C4.62 0 9.24 0 14 0 C14.66 1.32 15.32 2.64 16 4 C14.68 5.32 13.36 6.64 12 8 C13.32 8.33 14.64 8.66 16 9 C16 9.66 16 10.32 16 11 C6.26995516 11.92017937 6.26995516 11.92017937 3.15625 9.6640625 C1.8125 8 1.8125 8 0 5 C0.99 4.67 1.98 4.34 3 4 C2.01 3.34 1.02 2.68 0 2 C0 1.34 0 0.68 0 0 Z " fill="#EFF2EC" transform="translate(1210,498)"/>
<path d="M0 0 C2.00240549 0.31856451 4.00211562 0.65421232 6 1 C8.00487668 0.69737711 10.00661779 0.37086181 12 0 C13 1 13 1 13.3125 3.375 C13 6 13 6 11 7.8125 C10.34 8.204375 9.68 8.59625 9 9 C10.65 9.33 12.3 9.66 14 10 C14 10.33 14 10.66 14 11 C11.69 11 9.38 11 7 11 C6.67 9.68 6.34 8.36 6 7 C5.5875 7.66 5.175 8.32 4.75 9 C4.1725 9.66 3.595 10.32 3 11 C1.68 11 0.36 11 -1 11 C-2.50662097 7.98675805 -2.17770373 5.31713623 -2 2 C-1.34 1.34 -0.68 0.68 0 0 Z " fill="#8F868A" transform="translate(157,293)"/>
<path d="M0 0 C0.66 0 1.32 0 2 0 C2 0.66 2 1.32 2 2 C3.32 2.33 4.64 2.66 6 3 C6 3.66 6 4.32 6 5 C7.32 5.33 8.64 5.66 10 6 C9.67 7.32 9.34 8.64 9 10 C7.741875 10.04125 6.48375 10.0825 5.1875 10.125 C4.47980469 10.14820312 3.77210938 10.17140625 3.04296875 10.1953125 C1 10 1 10 -2 8 C-2 8.66 -2 9.32 -2 10 C-3.66611905 10.042721 -5.33382885 10.04063832 -7 10 C-8 9 -8 9 -8.0625 5.9375 C-8.041875 4.968125 -8.02125 3.99875 -8 3 C-5.29120665 1.64560332 -2.99066732 1.93498549 0 2 C0 1.34 0 0.68 0 0 Z " fill="#BFC3CC" transform="translate(232,92)"/>
<path d="M0 0 C0 0.99 0 1.98 0 3 C-1.98 3 -3.96 3 -6 3 C-4.66667905 6.99996286 -2.5042173 7.83782337 1 10 C0.25 14.75 0.25 14.75 -2 17 C-5.625 17.125 -5.625 17.125 -9 17 C-9.33 15.68 -9.66 14.36 -10 13 C-7.69 13.33 -5.38 13.66 -3 14 C-3 13.01 -3 12.02 -3 11 C-3.969375 10.690625 -4.93875 10.38125 -5.9375 10.0625 C-9 9 -9 9 -10 8 C-10.25 5.0625 -10.25 5.0625 -10 2 C-6.3558226 -0.4294516 -4.28758728 -0.16179575 0 0 Z " fill="#5945F6" transform="translate(206,29)"/>
<path d="M0 0 C1.33359073 6.42548263 1.33359073 6.42548263 -0.125 8.9375 C-2.63647631 10.36066991 -4.15503228 10.42674516 -7 10 C-8.8125 8.8125 -8.8125 8.8125 -10 7 C-10.42674516 4.15503228 -10.36066991 2.63647631 -8.9375 0.125 C-5.88430685 -1.64782183 -3.33588292 -0.69235306 0 0 Z " fill="#C0C3CA" transform="translate(298,92)"/>
<path d="M0 0 C7.71484375 -0.09765625 7.71484375 -0.09765625 10 0 C11 1 11 1 11.09765625 3.50390625 C11.08605469 4.51324219 11.07445312 5.52257813 11.0625 6.5625 C11.05347656 7.57441406 11.04445312 8.58632813 11.03515625 9.62890625 C11.02355469 10.41136719 11.01195312 11.19382812 11 12 C10.01 12 9.02 12 8 12 C7.67 9.36 7.34 6.72 7 4 C6.01 3.67 5.02 3.34 4 3 C4 5.97 4 8.94 4 12 C2.68 12 1.36 12 0 12 C0 8.04 0 4.08 0 0 Z " fill="#5B47F6" transform="translate(135,34)"/>
<path d="M0 0 C3.375 -0.125 3.375 -0.125 7 0 C9 2 9 2 9.3125 5.5 C9.1578125 7.2325 9.1578125 7.2325 9 9 C5.5647952 11.29013653 4.014669 11.17842973 0 11 C0 7.37 0 3.74 0 0 Z " fill="#F4ECFD" transform="translate(1147,294)"/>
<path d="M0 0 C7 0 7 0 9 1 C9.125 4.375 9.125 4.375 9 8 C8.34 8.66 7.68 9.32 7 10 C5.68 10 4.36 10 3 10 C2.67 11.65 2.34 13.3 2 15 C1.34 15 0.68 15 0 15 C0 10.05 0 5.1 0 0 Z " fill="#1F1E3E" transform="translate(152,184)"/>
<path d="M0 0 C2.31 0 4.62 0 7 0 C7.66 0.66 8.32 1.32 9 2 C8.625 3.9375 8.625 3.9375 8 6 C8 9.20395416 8.74335022 11.09399739 10 14 C9.01 14 8.02 14 7 14 C5.95107762 12.36368108 4.95093297 10.69514137 4 9 C3.34 8.67 2.68 8.34 2 8 C2 9.98 2 11.96 2 14 C1.34 14 0.68 14 0 14 C0 9.38 0 4.76 0 0 Z " fill="#102450" transform="translate(130,180)"/>
<path d="M0 0 C5.625 -0.25 5.625 -0.25 9 2 C9.39964378 5.1305429 9.52149743 7.13083761 7.875 9.875 C5.21965017 11.4682099 3.03210482 11.20214032 0 11 C0 7.37 0 3.74 0 0 Z " fill="#242233" transform="translate(240,457)"/>
<path d="M0 0 C5.625 -0.25 5.625 -0.25 9 2 C9.39964378 5.1305429 9.52149743 7.13083761 7.875 9.875 C5.21965017 11.4682099 3.03210482 11.20214032 0 11 C0 7.37 0 3.74 0 0 Z " fill="#1C1B29" transform="translate(100,457)"/>
<path d="M0 0 C1.81242052 -0.02687279 3.62495233 -0.04633715 5.4375 -0.0625 C6.44683594 -0.07410156 7.45617187 -0.08570313 8.49609375 -0.09765625 C11 0 11 0 12 1 C12.04092937 3.33297433 12.04241723 5.66705225 12 8 C7.71 8 3.42 8 -1 8 C-0.01 7.67 0.98 7.34 2 7 C1.484375 6.5875 0.96875 6.175 0.4375 5.75 C-0.036875 5.1725 -0.51125 4.595 -1 4 C-0.58984375 1.890625 -0.58984375 1.890625 0 0 Z " fill="#B6BEC4" transform="translate(120,378)"/>
<path d="M0 0 C5.42857143 -0.36190476 5.42857143 -0.36190476 7.875 1.1875 C9.40659584 3.65507108 9.42822025 5.14519831 9 8 C7.875 9.8125 7.875 9.8125 6 11 C2.8125 11.1875 2.8125 11.1875 0 11 C0 7.37 0 3.74 0 0 Z " fill="#B8B9C4" transform="translate(69,91)"/>
<path d="M0 0 C2.5 0.25 2.5 0.25 4.5 2.25 C4.75 5.25 4.75 5.25 4.5 8.25 C2.5 10.25 2.5 10.25 0.0625 10.5625 C-2.5 10.25 -2.5 10.25 -4.375 9.0625 C-5.5 7.25 -5.5 7.25 -5.3125 4.6875 C-4.22827241 1.43481722 -3.47807945 0.34780795 0 0 Z " fill="#4A3734" transform="translate(168.5,183.75)"/>
<path d="M0 0 C1.98 0 3.96 0 6 0 C6 0.66 6 1.32 6 2 C4.68 2 3.36 2 2 2 C2 2.99 2 3.98 2 5 C3.32 5 4.64 5 6 5 C6 5.66 6 6.32 6 7 C4.68 7 3.36 7 2 7 C2 7.66 2 8.32 2 9 C3.98 9 5.96 9 8 9 C8 7.02 8 5.04 8 3 C8.66 3 9.32 3 10 3 C10 3.66 10 4.32 10 5 C11.65 4.34 13.3 3.68 15 3 C14.62875 3.763125 14.2575 4.52625 13.875 5.3125 C13.441875 6.6428125 13.441875 6.6428125 13 8 C13.99 9.485 13.99 9.485 15 11 C14.01 11 13.02 11 12 11 C12 10.34 12 9.68 12 9 C11.34 9 10.68 9 10 9 C10 9.66 10 10.32 10 11 C6.7 11 3.4 11 0 11 C0 7.37 0 3.74 0 0 Z " fill="#341B21" transform="translate(788,293)"/>
<path d="M0 0 C3.3 0 6.6 0 10 0 C10 2.64 10 5.28 10 8 C6.7 8 3.4 8 0 8 C0 5.36 0 2.72 0 0 Z " fill="#F9FAFB" transform="translate(636,295)"/>
<path d="M0 0 C3.3 0 6.6 0 10 0 C10 2.64 10 5.28 10 8 C6.7 8 3.4 8 0 8 C0 5.36 0 2.72 0 0 Z " fill="#F9FAFB" transform="translate(332,295)"/>
<path d="M0 0 C1.051875 -0.00386719 1.051875 -0.00386719 2.125 -0.0078125 C4 0.125 4 0.125 6 1.125 C6 5.415 6 9.705 6 14.125 C2.04 14.125 -1.92 14.125 -6 14.125 C-6 9.835 -6 5.545 -6 1.125 C-3.75487738 0.00243869 -2.48543351 -0.00913762 0 0 Z M-5 4.125 C-5 6.765 -5 9.405 -5 12.125 C-1.7 12.125 1.6 12.125 5 12.125 C5 9.485 5 6.845 5 4.125 C1.7 4.125 -1.6 4.125 -5 4.125 Z " fill="#1C1D1D" transform="translate(641,290.875)"/>
<path d="M0 0 C1.051875 -0.00386719 1.051875 -0.00386719 2.125 -0.0078125 C4 0.125 4 0.125 6 1.125 C6 5.415 6 9.705 6 14.125 C2.04 14.125 -1.92 14.125 -6 14.125 C-6 9.835 -6 5.545 -6 1.125 C-3.75487738 0.00243869 -2.48543351 -0.00913762 0 0 Z M-5 4.125 C-5 6.765 -5 9.405 -5 12.125 C-1.7 12.125 1.6 12.125 5 12.125 C5 9.485 5 6.845 5 4.125 C1.7 4.125 -1.6 4.125 -5 4.125 Z " fill="#1C1D1D" transform="translate(337,290.875)"/>
<path d="M0 0 C0.66 0 1.32 0 2 0 C2 0.66 2 1.32 2 2 C4.64 2 7.28 2 10 2 C10 2.66 10 3.32 10 4 C9.01 4.495 9.01 4.495 8 5 C8.66 5.33 9.32 5.66 10 6 C9.67 7.32 9.34 8.64 9 10 C6.03 10 3.06 10 0 10 C0 7.69 0 5.38 0 3 C-0.66 2.67 -1.32 2.34 -2 2 C-1.34 2 -0.68 2 0 2 C0 1.34 0 0.68 0 0 Z " fill="#A39FF9" transform="translate(390,92)"/>
<path d="M0 0 C4.55555556 0.55555556 4.55555556 0.55555556 6 2 C6.1875 5.4375 6.1875 5.4375 6 9 C5.34 9.66 4.68 10.32 4 11 C-0.55555556 10.44444444 -0.55555556 10.44444444 -2 9 C-2.1875 5.5625 -2.1875 5.5625 -2 2 C-1.34 1.34 -0.68 0.68 0 0 Z " fill="#160C1D" transform="translate(1251,539)"/>
<path d="M0 0 C4.55555556 0.55555556 4.55555556 0.55555556 6 2 C6.1875 5.4375 6.1875 5.4375 6 9 C5.34 9.66 4.68 10.32 4 11 C-0.55555556 10.44444444 -0.55555556 10.44444444 -2 9 C-2.1875 5.5625 -2.1875 5.5625 -2 2 C-1.34 1.34 -0.68 0.68 0 0 Z " fill="#392325" transform="translate(1228,539)"/>
<path d="M0 0 C4.55555556 0.55555556 4.55555556 0.55555556 6 2 C6.1875 5.4375 6.1875 5.4375 6 9 C5.34 9.66 4.68 10.32 4 11 C-0.55555556 10.44444444 -0.55555556 10.44444444 -2 9 C-2.1875 5.5625 -2.1875 5.5625 -2 2 C-1.34 1.34 -0.68 0.68 0 0 Z " fill="#F7F7FE" transform="translate(183,32)"/>
<path d="M0 0 C4.55555556 0.55555556 4.55555556 0.55555556 6 2 C6.26293056 6.03160191 6.29404844 7.55892734 4 11 C-0.875 10.125 -0.875 10.125 -2 9 C-2.1875 5.5625 -2.1875 5.5625 -2 2 C-1.34 1.34 -0.68 0.68 0 0 Z " fill="#382D3C" transform="translate(1251,498)"/>
<path d="M0 0 C0.66 0 1.32 0 2 0 C2 0.66 2 1.32 2 2 C3.32 2 4.64 2 6 2 C7.67225729 2.30404678 9.34080104 2.63128912 11 3 C11 5.31 11 7.62 11 10 C10.34 9.34 9.68 8.68 9 8 C9.33 7.34 9.66 6.68 10 6 C6.88214887 6.64644661 6.88214887 6.64644661 6 9 C6.66 9.33 7.32 9.66 8 10 C5.69 10 3.38 10 1 10 C-1.125 3.375 -1.125 3.375 0 0 Z " fill="#7F776D" transform="translate(1241,458)"/>
<path d="M0 0 C0.33 0.66 0.66 1.32 1 2 C1.66 2.33 2.32 2.66 3 3 C2.34 3 1.68 3 1 3 C1 4.98 1 6.96 1 9 C1.66 9.33 2.32 9.66 3 10 C2.278125 9.814375 1.55625 9.62875 0.8125 9.4375 C-1.98785845 8.83247571 -1.98785845 8.83247571 -4.6875 9.5625 C-5.450625 9.706875 -6.21375 9.85125 -7 10 C-7.66 9.34 -8.32 8.68 -9 8 C-8.625 5.375 -8.625 5.375 -8 3 C-5.23735711 2.40267181 -2.83967231 2 0 2 C0 1.34 0 0.68 0 0 Z " fill="#B5B1B7" transform="translate(142,376)"/>
<path d="M0 0 C2.625 0.375 2.625 0.375 5 1 C6.33554084 7.43487859 6.33554084 7.43487859 4.8125 10 C3 11 3 11 0.875 10.75 C-1 10 -1 10 -2 9 C-2.1875 5.5625 -2.1875 5.5625 -2 2 C-1.34 1.34 -0.68 0.68 0 0 Z " fill="#161C32" transform="translate(1242,539)"/>
<path d="M0 0 C0.99 0 1.98 0 3 0 C3 3.96 3 7.92 3 12 C0.66705225 12.04241723 -1.66702567 12.04092937 -4 12 C-5 11 -5 11 -5.0625 7.9375 C-5.041875 6.968125 -5.02125 5.99875 -5 5 C-3.35 4.67 -1.7 4.34 0 4 C0 2.68 0 1.36 0 0 Z " fill="#53515D" transform="translate(962,538)"/>
<path d="M0 0 C0.598125 0.309375 1.19625 0.61875 1.8125 0.9375 C4.08956772 2.10209704 4.08956772 2.10209704 7 3 C7 3.66 7 4.32 7 5 C6.34 5 5.68 5 5 5 C5.33 7.31 5.66 9.62 6 12 C9.3 12 12.6 12 16 12 C16.33 10.02 16.66 8.04 17 6 C17.66 6.33 18.32 6.66 19 7 C18.01 9.97 17.02 12.94 16 16 C12.37 16 8.74 16 5 16 C4.81824219 15.00097656 4.63648437 14.00195312 4.44921875 12.97265625 C4.19785156 11.68230469 3.94648437 10.39195313 3.6875 9.0625 C3.44386719 7.77472656 3.20023437 6.48695312 2.94921875 5.16015625 C2.63597656 4.11730469 2.32273438 3.07445312 2 2 C1.01 1.67 0.02 1.34 -1 1 C-0.67 0.67 -0.34 0.34 0 0 Z " fill="#4733A2" transform="translate(61,28)"/>
<path d="M0 0 C6.875 0.875 6.875 0.875 8 2 C7.71269945 4.33944736 7.38063221 6.6739143 7 9 C4.69 9.33 2.38 9.66 0 10 C0 6.7 0 3.4 0 0 Z " fill="#8E99A9" transform="translate(400,254)"/>
<path d="M0 0 C6.875 0.875 6.875 0.875 8 2 C8.29573841 4.80951486 8.38243085 6.41628976 6.8125 8.8125 C5 10 5 10 0 10 C0 6.7 0 3.4 0 0 Z " fill="#4C5675" transform="translate(115,254)"/>
<path d="M0 0 C2.625 0.375 2.625 0.375 5 1 C5 3.97 5 6.94 5 10 C2.625 10.625 2.625 10.625 0 11 C-2 9 -2 9 -2.25 5.5 C-2 2 -2 2 0 0 Z " fill="#777B97" transform="translate(251,375)"/>
<path d="M0 0 C2.625 0.375 2.625 0.375 5 1 C5 3.97 5 6.94 5 10 C2.625 10.625 2.625 10.625 0 11 C-2 9 -2 9 -2.25 5.5 C-2 2 -2 2 0 0 Z " fill="#777B97" transform="translate(239,375)"/>
<path d="M0 0 C1.65 0.33 3.3 0.66 5 1 C5 3.97 5 6.94 5 10 C2.625 10.625 2.625 10.625 0 11 C-2 9 -2 9 -2.25 6.0625 C-2 3 -2 3 0 0 Z " fill="#4A3748" transform="translate(288,498)"/>
<path d="M0 0 C1 1 1 1 1.1875 4.4375 C1 8 1 8 -1 10 C-3.625 9.625 -3.625 9.625 -6 9 C-6 6.03 -6 3.06 -6 0 C-3.49749232 -1.25125384 -2.59701335 -0.83774624 0 0 Z " fill="#312E42" transform="translate(1247,499)"/>
<path d="M0 0 C1.65 0.33 3.3 0.66 5 1 C5 3.97 5 6.94 5 10 C2.625 10.625 2.625 10.625 0 11 C-2 9 -2 9 -2.25 6.0625 C-2 3 -2 3 0 0 Z " fill="#483647" transform="translate(460,293)"/>
<path d="M0 0 C1.65 0.33 3.3 0.66 5 1 C5 3.97 5 6.94 5 10 C2.625 10.625 2.625 10.625 0 11 C-2 9 -2 9 -2.25 6.0625 C-2 3 -2 3 0 0 Z " fill="#483647" transform="translate(426,293)"/>
<path d="M0 0 C1 1 1 1 1.1875 3.875 C1 7 1 7 -1 10 C-2.65 9.67 -4.3 9.34 -6 9 C-6 6.03 -6 3.06 -6 0 C-3.49749232 -1.25125384 -2.59701335 -0.83774624 0 0 Z " fill="#96959E" transform="translate(368,499)"/>
<path d="M0 0 C3.53571429 0.53571429 3.53571429 0.53571429 5 2 C5.1875 5.4375 5.1875 5.4375 5 9 C4.34 9.66 3.68 10.32 3 11 C0.375 10.625 0.375 10.625 -2 10 C-2.1953125 3.9453125 -2.1953125 3.9453125 -2 2 C-1.34 1.34 -0.68 0.68 0 0 Z " fill="#CDD1D4" transform="translate(260,375)"/>
<path d="M0 0 C3.53571429 0.53571429 3.53571429 0.53571429 5 2 C5.1875 5.4375 5.1875 5.4375 5 9 C4.34 9.66 3.68 10.32 3 11 C1.68 11 0.36 11 -1 11 C-2.50662097 7.98675805 -2.17770373 5.31713623 -2 2 C-1.34 1.34 -0.68 0.68 0 0 Z " fill="#2E2634" transform="translate(1230,498)"/>
<path d="M0 0 C0.66 0 1.32 0 2 0 C2 3.96 2 7.92 2 12 C0.02 12 -1.96 12 -4 12 C-4.66 11.34 -5.32 10.68 -6 10 C-5.625 7.375 -5.625 7.375 -5 5 C-3.35 4.67 -1.7 4.34 0 4 C0 2.68 0 1.36 0 0 Z " fill="#7D8593" transform="translate(211,90)"/>
<path d="M0 0 C3.53571429 0.53571429 3.53571429 0.53571429 5 2 C5.26293056 6.03160191 5.29404844 7.55892734 3 11 C1.68 11 0.36 11 -1 11 C-2.50662097 7.98675805 -2.17770373 5.31713623 -2 2 C-1.34 1.34 -0.68 0.68 0 0 Z " fill="#BEB3B0" transform="translate(123,293)"/>
<path d="M0 0 C2.5 0.25 2.5 0.25 4.5 2.25 C4.5 3.57 4.5 4.89 4.5 6.25 C2.52 6.58 0.54 6.91 -1.5 7.25 C0.15 7.58 1.8 7.91 3.5 8.25 C3.17 8.91 2.84 9.57 2.5 10.25 C0.125 10.375 0.125 10.375 -2.5 10.25 C-4.5 8.25 -4.5 8.25 -4.75 5.25 C-4.43608753 1.48305032 -3.83691092 0.38369109 0 0 Z " fill="#2C3450" transform="translate(145.5,183.75)"/>
<path d="M0 0 C2.5 0.25 2.5 0.25 4.5 2.25 C4.5 3.57 4.5 4.89 4.5 6.25 C2.52 6.58 0.54 6.91 -1.5 7.25 C0.15 7.58 1.8 7.91 3.5 8.25 C3.17 8.91 2.84 9.57 2.5 10.25 C0.125 10.375 0.125 10.375 -2.5 10.25 C-4.5 8.25 -4.5 8.25 -4.75 5.25 C-4.43608753 1.48305032 -3.83691092 0.38369109 0 0 Z " fill="#4C4B5C" transform="translate(108.5,183.75)"/>
<path d="M0 0 C2.375 -0.125 2.375 -0.125 5 0 C7 2 7 2 7.1953125 3.9453125 C7.13020833 5.96354167 7.06510417 7.98177083 7 10 C4.36 10 1.72 10 -1 10 C-1.33 8.68 -1.66 7.36 -2 6 C1 4 1 4 4 4 C4 3.34 4 2.68 4 2 C2.35 2 0.7 2 -1 2 C-0.67 1.34 -0.34 0.68 0 0 Z " fill="#33394E" transform="translate(90,184)"/>
<path d="M0 0 C0.66 0 1.32 0 2 0 C2 3.96 2 7.92 2 12 C0.02 12 -1.96 12 -4 12 C-4.66 11.34 -5.32 10.68 -6 10 C-5.625 7.375 -5.625 7.375 -5 5 C-3.35 4.67 -1.7 4.34 0 4 C0 2.68 0 1.36 0 0 Z " fill="#C5CAD0" transform="translate(142,90)"/>
<path d="M0 0 C1.98 0 3.96 0 6 0 C6.66 0.66 7.32 1.32 8 2 C7.625 4.625 7.625 4.625 7 7 C5.68 7.33 4.36 7.66 3 8 C2.67 9.32 2.34 10.64 2 12 C1.34 12 0.68 12 0 12 C0 8.04 0 4.08 0 0 Z " fill="#7B7C80" transform="translate(804,296)"/>
<path d="M0 0 C2.875 -0.125 2.875 -0.125 6 0 C6.66 0.66 7.32 1.32 8 2 C7.625 4.625 7.625 4.625 7 7 C5.35 7.33 3.7 7.66 2 8 C2 8.99 2 9.98 2 11 C1.34 11 0.68 11 0 11 C0 7.37 0 3.74 0 0 Z " fill="#ECF5FE" transform="translate(1137,294)"/>
<path d="M0 0 C2.875 -0.125 2.875 -0.125 6 0 C6.66 0.66 7.32 1.32 8 2 C7.625 4.625 7.625 4.625 7 7 C5.35 7.33 3.7 7.66 2 8 C2 8.99 2 9.98 2 11 C1.34 11 0.68 11 0 11 C0 7.37 0 3.74 0 0 Z " fill="#ECF5FE" transform="translate(1098,294)"/>
<path d="M0 0 C0.66 0 1.32 0 2 0 C2 1.32 2 2.64 2 4 C3.65 4.33 5.3 4.66 7 5 C7.04254356 6.99954746 7.04080783 9.00041636 7 11 C6.67 11.33 6.34 11.66 6 12 C4.02 12 2.04 12 0 12 C0 8.04 0 4.08 0 0 Z " fill="#7F7B8C" transform="translate(104,90)"/>
<path d="M0 0 C4.95 0 9.9 0 15 0 C15 1.98 15 3.96 15 6 C13.54119891 5.85892253 12.08296449 5.71197585 10.625 5.5625 C9.40683594 5.44068359 9.40683594 5.44068359 8.1640625 5.31640625 C6 5 6 5 4 4 C4 3.34 4 2.68 4 2 C2.68 2 1.36 2 0 2 C0 1.34 0 0.68 0 0 Z " fill="#325EB9" transform="translate(69,26)"/>
<path d="M0 0 C1.65 0.33 3.3 0.66 5 1 C5 3.97 5 6.94 5 10 C3.35 10.33 1.7 10.66 0 11 C-1.0625 9.125 -1.0625 9.125 -2 7 C-1.67 6.34 -1.34 5.68 -1 5 C-0.64386903 3.33805547 -0.30791692 1.671549 0 0 Z " fill="#7E7C85" transform="translate(131,293)"/>
<path d="M0 0 C1.98 0 3.96 0 6 0 C6.59732819 2.76264289 7 5.16032769 7 8 C7.33 8.99 7.66 9.98 8 11 C5.00667261 10.0022242 4.05233685 9.2477975 2 7 C2 8.32 2 9.64 2 11 C1.34 11 0.68 11 0 11 C0 7.37 0 3.74 0 0 Z " fill="#5E4FF6" transform="translate(346,91)"/>
<path d="M0 0 C-0.020625 0.7425 -0.04125 1.485 -0.0625 2.25 C-0.00671312 4.70462279 0.3069904 6.66109261 1 9 C-0.98 9.33 -2.96 9.66 -5 10 C-5.72945166 6.53510463 -6 3.53576478 -6 0 C-3.50907189 -1.24546405 -2.58919267 -0.7767578 0 0 Z " fill="#918C90" transform="translate(269,499)"/>
<path d="M0 0 C-0.020625 0.7425 -0.04125 1.485 -0.0625 2.25 C-0.00671312 4.70462279 0.3069904 6.66109261 1 9 C-0.98 9.33 -2.96 9.66 -5 10 C-5.72945166 6.53510463 -6 3.53576478 -6 0 C-3.50907189 -1.24546405 -2.58919267 -0.7767578 0 0 Z " fill="#8D898E" transform="translate(439,294)"/>
<path d="M0 0 C-0.33 0.99 -0.66 1.98 -1 3 C-2.65 3.33 -4.3 3.66 -6 4 C-6 5.32 -6 6.64 -6 8 C-4.68 8.33 -3.36 8.66 -2 9 C-2 8.34 -2 7.68 -2 7 C-2.66 7 -3.32 7 -4 7 C-4 6.34 -4 5.68 -4 5 C-2.68 5 -1.36 5 0 5 C0.042721 6.66611905 0.04063832 8.33382885 0 10 C-1 11 -1 11 -3.9375 11.1875 C-7 11 -7 11 -9 9 C-9.3125 5.5 -9.3125 5.5 -9 2 C-5.5647952 -0.29013653 -4.014669 -0.17842973 0 0 Z " fill="#0B0200" transform="translate(930,539)"/>
<path d="M0 0 C5.94 0.99 5.94 0.99 12 2 C11.67 3.65 11.34 5.3 11 7 C7.7 7 4.4 7 1 7 C0.67 4.69 0.34 2.38 0 0 Z " fill="#FAFAFB" transform="translate(66,33)"/>
<path d="M0 0 C0 1.98 0 3.96 0 6 C-5.75 7.125 -5.75 7.125 -8 6 C-8 4.02 -8 2.04 -8 0 C-5.13822943 -1.43088528 -3.06624227 -0.59991697 0 0 Z " fill="#424146" transform="translate(987,543)"/>
<path d="M0 0 C1.4540625 0.0309375 1.4540625 0.0309375 2.9375 0.0625 C2.6075 1.0525 2.2775 2.0425 1.9375 3.0625 C0.6175 3.0625 -0.7025 3.0625 -2.0625 3.0625 C-2.0625 3.7225 -2.0625 4.3825 -2.0625 5.0625 C-1.2375 5.495625 -0.4125 5.92875 0.4375 6.375 C1.2625 6.931875 2.0875 7.48875 2.9375 8.0625 C3.25 10.75 3.25 10.75 2.9375 13.0625 C0.22870665 14.41689668 -2.07183268 14.12751451 -5.0625 14.0625 C-5.0625 13.4025 -5.0625 12.7425 -5.0625 12.0625 C-3.0825 12.0625 -1.1025 12.0625 0.9375 12.0625 C-0.30796405 8.32610784 -1.69654953 7.87493487 -5.0625 6.0625 C-3.98897059 0.08140756 -3.98897059 0.08140756 0 0 Z " fill="#242643" transform="translate(83.0625,179.9375)"/>
<path d="M0 0 C0.33 0 0.66 0 1 0 C1.061875 1.1446875 1.061875 1.1446875 1.125 2.3125 C1.77823609 5.32405113 1.77823609 5.32405113 5.0625 6.8125 C6.031875 7.204375 7.00125 7.59625 8 8 C8 8.99 8 9.98 8 11 C5.69 10.67 3.38 10.34 1 10 C0.67 10.99 0.34 11.98 0 13 C-0.33 12.01 -0.66 11.02 -1 10 C-1.99 10.495 -1.99 10.495 -3 11 C-2.67 8.36 -2.34 5.72 -2 3 C-1.34 3 -0.68 3 0 3 C0 2.01 0 1.02 0 0 Z " fill="#E8E5FD" transform="translate(195,32)"/>
<path d="M0 0 C0.625 2.375 0.625 2.375 1 5 C-1 7 -1 7 -3.5625 7.1875 C-6 7 -6 7 -7 6 C-7.04080783 4.00041636 -7.04254356 1.99954746 -7 0 C-4.3333581 -1.33332095 -2.83319697 -0.67102033 0 0 Z " fill="#666972" transform="translate(1238,461)"/>
<path d="M0 0 C0.625 2.375 0.625 2.375 1 5 C-1 7 -1 7 -3.5625 7.1875 C-6 7 -6 7 -7 6 C-7.04080783 4.00041636 -7.04254356 1.99954746 -7 0 C-4.3333581 -1.33332095 -2.83319697 -0.67102033 0 0 Z " fill="#666972" transform="translate(821,297)"/>
<path d="M0 0 C0.625 2.375 0.625 2.375 1 5 C-1 7 -1 7 -3.5625 7.1875 C-6 7 -6 7 -7 6 C-7.04080783 4.00041636 -7.04254356 1.99954746 -7 0 C-4.3333581 -1.33332095 -2.83319697 -0.67102033 0 0 Z " fill="#6960F7" transform="translate(380,95)"/>
<path d="M0 0 C2.625 0.375 2.625 0.375 5 1 C5.625 3.375 5.625 3.375 6 6 C5.34 6.66 4.68 7.32 4 8 C1.375 7.625 1.375 7.625 -1 7 C-1.625 4.625 -1.625 4.625 -2 2 C-1.34 1.34 -0.68 0.68 0 0 Z " fill="#B1B2BA" transform="translate(152,378)"/>
<path d="M0 0 C2.625 0.375 2.625 0.375 5 1 C5.625 3.375 5.625 3.375 6 6 C5.34 6.66 4.68 7.32 4 8 C1.375 7.625 1.375 7.625 -1 7 C-1.625 4.625 -1.625 4.625 -2 2 C-1.34 1.34 -0.68 0.68 0 0 Z " fill="#B1B2BA" transform="translate(198,94)"/>
<path d="M0 0 C0.04254356 1.99954746 0.04080783 4.00041636 0 6 C-1 7 -1 7 -3.5 7.125 C-6 7 -6 7 -7 6 C-7.04080783 4.00041636 -7.04254356 1.99954746 -7 0 C-4.3333581 -1.33332095 -2.83319697 -0.67102033 0 0 Z " fill="#B1B4BC" transform="translate(196,379)"/>
<path d="M0 0 C0.04254356 1.99954746 0.04080783 4.00041636 0 6 C-1 7 -1 7 -3.5 7.125 C-6 7 -6 7 -7 6 C-7.04080783 4.00041636 -7.04254356 1.99954746 -7 0 C-4.3333581 -1.33332095 -2.83319697 -0.67102033 0 0 Z " fill="#B4B4BA" transform="translate(120,95)"/>
<path d="M0 0 C2.31 0.33 4.62 0.66 7 1 C7 3.31 7 5.62 7 8 C4.69 8 2.38 8 0 8 C0.185625 7.236875 0.37125 6.47375 0.5625 5.6875 C1.22819173 2.91032625 1.22819173 2.91032625 0 0 Z " fill="#28252C" transform="translate(995,542)"/>
<path d="M0 0 C2.64 0 5.28 0 8 0 C8 4 8 4 6.5 5.75 C6.005 6.1625 5.51 6.575 5 7 C5.66 8.32 6.32 9.64 7 11 C4.50638429 9.79618552 2.31856917 8.54571278 0 7 C-0.1875 3.375 -0.1875 3.375 0 0 Z " fill="#1B1112" transform="translate(1208,539)"/>
<path d="M0 0 C1.32 0 2.64 0 4 0 C4 3.96 4 7.92 4 12 C2.68 12 1.36 12 0 12 C0 8.04 0 4.08 0 0 Z " fill="#624EF6" transform="translate(149,34)"/>
<path d="M0 0 C1.32 0 2.64 0 4 0 C4 3.96 4 7.92 4 12 C2.68 12 1.36 12 0 12 C0 8.04 0 4.08 0 0 Z " fill="#604CF6" transform="translate(128,34)"/>
<path d="M0 0 C1.65 0 3.3 0 5 0 C5.33 1.32 5.66 2.64 6 4 C5.01 4 4.02 4 3 4 C2.67 8.29 2.34 12.58 2 17 C1.34 17 0.68 17 0 17 C0 11.39 0 5.78 0 0 Z " fill="#523CF6" transform="translate(106,29)"/>
<path d="M0 0 C0.33 0.66 0.66 1.32 1 2 C3.52733235 2.65555119 3.52733235 2.65555119 6 3 C6 4.65 6 6.3 6 8 C3.625 8.625 3.625 8.625 1 9 C-1 7 -1 7 -1.1875 3.9375 C-1 1 -1 1 0 0 Z " fill="#46323D" transform="translate(371,500)"/>
<path d="M0 0 C1.65 0 3.3 0 5 0 C5.66 0.66 6.32 1.32 7 2 C6.625 4.125 6.625 4.125 6 6 C4.35 6.33 2.7 6.66 1 7 C0.67 8.32 0.34 9.64 0 11 C0 7.37 0 3.74 0 0 Z " fill="#29172E" transform="translate(384,498)"/>
<path d="M0 0 C1.65 0 3.3 0 5 0 C5.66 0.66 6.32 1.32 7 2 C6.625 4.125 6.625 4.125 6 6 C4.35 6.33 2.7 6.66 1 7 C0.67 8.32 0.34 9.64 0 11 C0 7.37 0 3.74 0 0 Z " fill="#A09CA8" transform="translate(280,91)"/>
<path d="M0 0 C1.65 0 3.3 0 5 0 C5.66 0.66 6.32 1.32 7 2 C6.625 4.125 6.625 4.125 6 6 C4.35 6.33 2.7 6.66 1 7 C0.67 8.32 0.34 9.64 0 11 C0 7.37 0 3.74 0 0 Z " fill="#A09CA8" transform="translate(182,91)"/>
<path d="M0 0 C2.33294775 -0.04241723 4.66702567 -0.04092937 7 0 C8 1 8 1 8.0625 4.5625 C8.041875 5.696875 8.02125 6.83125 8 8 C7.01 8 6.02 8 5 8 C5 6.02 5 4.04 5 2 C4.01 2.495 4.01 2.495 3 3 C2.34444881 5.52733235 2.34444881 5.52733235 2 8 C1.34 8 0.68 8 0 8 C0 5.36 0 2.72 0 0 Z " fill="#2D2733" transform="translate(947,542)"/>
<path d="M0 0 C1.66611905 -0.042721 3.33382885 -0.04063832 5 0 C6 1 6 1 6.0625 4.5625 C6.041875 5.696875 6.02125 6.83125 6 8 C4.02 8 2.04 8 0 8 C-0.98120464 4.94736336 -0.98120464 3.05263664 0 0 Z " fill="#1C1A25" transform="translate(939,542)"/>
<path d="M0 0 C2.33294775 -0.04241723 4.66702567 -0.04092937 7 0 C8 1 8 1 8.0625 4.5625 C8.041875 5.696875 8.02125 6.83125 8 8 C7.34 8 6.68 8 6 8 C6 6.02 6 4.04 6 2 C5.01 2 4.02 2 3 2 C3 3.98 3 5.96 3 8 C2.01 8 1.02 8 0 8 C0 5.36 0 2.72 0 0 Z " fill="#E4E1FC" transform="translate(1117,297)"/>
<path d="M0 0 C0.99 0 1.98 0 3 0 C3 4.95 3 9.9 3 15 C2.01 15 1.02 15 0 15 C0 10.05 0 5.1 0 0 Z " fill="#494C5B" transform="translate(99,179)"/>
<path d="M0 0 C1.65 0 3.3 0 5 0 C5.6875 2.3125 5.6875 2.3125 6 5 C4.5625 6.8125 4.5625 6.8125 3 8 C3.99 8.33 4.98 8.66 6 9 C6 9.66 6 10.32 6 11 C3.69 11 1.38 11 -1 11 C-0.6875 9.125 -0.6875 9.125 0 7 C0.99 6.34 1.98 5.68 3 5 C3.33 4.01 3.66 3.02 4 2 C2.35 2.33 0.7 2.66 -1 3 C-0.67 2.01 -0.34 1.02 0 0 Z " fill="#180608" transform="translate(1218,539)"/>
<path d="M0 0 C2.64 0 5.28 0 8 0 C8 2.64 8 5.28 8 8 C7.34 8 6.68 8 6 8 C6 5.69 6 3.38 6 1 C5.01 1.495 5.01 1.495 4 2 C3.34227572 5.02934491 3.34227572 5.02934491 3 8 C2.01 8 1.02 8 0 8 C0 5.36 0 2.72 0 0 Z " fill="#DEE3FC" transform="translate(1107,297)"/>
<path d="M0 0 C0.042721 1.66611905 0.04063832 3.33382885 0 5 C-1 6 -1 6 -3.5 6.125 C-6 6 -6 6 -7 5 C-7.04063832 3.33382885 -7.042721 1.66611905 -7 0 C-4.3333581 -1.33332095 -2.83319697 -0.67102033 0 0 Z " fill="#8D8D9D" transform="translate(394,258)"/>
<path d="M0 0 C2.31 0.33 4.62 0.66 7 1 C6.67 2.98 6.34 4.96 6 7 C4.33388095 7.042721 2.66617115 7.04063832 1 7 C0 6 0 6 -0.0625 2.9375 C-0.041875 1.968125 -0.02125 0.99875 0 0 Z " fill="#CACED5" transform="translate(224,95)"/>
<path d="M0 0 C1.64574566 -0.02688151 3.29161413 -0.04634123 4.9375 -0.0625 C5.85402344 -0.07410156 6.77054688 -0.08570313 7.71484375 -0.09765625 C10 0 10 0 11 1 C11.04092937 3.33297433 11.04241723 5.66705225 11 8 C10.67 8 10.34 8 10 8 C10 6.02 10 4.04 10 2 C9.01 2.33 8.02 2.66 7 3 C6.67 4.65 6.34 6.3 6 8 C5.34 8 4.68 8 4 8 C4 6.02 4 4.04 4 2 C3.01 2 2.02 2 1 2 C1 3.98 1 5.96 1 8 C0.67 8 0.34 8 0 8 C0 5.36 0 2.72 0 0 Z " fill="#312418" transform="translate(992,460)"/>
<path d="M0 0 C-0.17625835 2.37948772 -0.69719773 3.70225849 -2.40234375 5.37890625 C-3.90649092 6.62115486 -5.45129851 7.81376056 -7 9 C-7.99 7.35 -8.98 5.7 -10 4 C-4.5 0 -4.5 0 0 0 Z " fill="#E2EAE8" transform="translate(1222,541)"/>
<path d="M0 0 C1.66611905 -0.042721 3.33382885 -0.04063832 5 0 C6 1 6 1 6.0625 4.5625 C6.041875 5.696875 6.02125 6.83125 6 8 C4.02 8 2.04 8 0 8 C-0.33 6.68 -0.66 5.36 -1 4 C0.65 3.67 2.3 3.34 4 3 C4 2.34 4 1.68 4 1 C2.68 1.33 1.36 1.66 0 2 C0 1.34 0 0.68 0 0 Z " fill="#738098" transform="translate(204,378)"/>
<path d="M0 0 C1.66611905 -0.042721 3.33382885 -0.04063832 5 0 C6 1 6 1 6.0625 4.5625 C6.041875 5.696875 6.02125 6.83125 6 8 C4.02 8 2.04 8 0 8 C-0.33 6.68 -0.66 5.36 -1 4 C0.65 3.67 2.3 3.34 4 3 C4 2.34 4 1.68 4 1 C2.68 1.33 1.36 1.66 0 2 C0 1.34 0 0.68 0 0 Z " fill="#738098" transform="translate(102,378)"/>
<path d="M0 0 C1.67542976 0.28604898 3.34385343 0.61781233 5 1 C5 2.65 5 4.3 5 6 C0.25 7.125 0.25 7.125 -2 6 C-1.125 1.125 -1.125 1.125 0 0 Z " fill="#8B8C9A" transform="translate(91,257)"/>
<path d="M0 0 C1.65 0 3.3 0 5 0 C5 0.66 5 1.32 5 2 C3.68 2 2.36 2 1 2 C1 2.66 1 3.32 1 4 C2.32 4.33 3.64 4.66 5 5 C4.67 6.65 4.34 8.3 4 10 C2.02 10 0.04 10 -2 10 C-2 9.34 -2 8.68 -2 8 C-0.35 8 1.3 8 3 8 C3 7.34 3 6.68 3 6 C0.525 5.01 0.525 5.01 -2 4 C-1.34 2.68 -0.68 1.36 0 0 Z " fill="#363244" transform="translate(192,184)"/>
<path d="M0 0 C1.65 0 3.3 0 5 0 C5 0.66 5 1.32 5 2 C3.68 2 2.36 2 1 2 C1 2.66 1 3.32 1 4 C2.32 4.33 3.64 4.66 5 5 C5.33 6.32 5.66 7.64 6 9 C3.69 9.33 1.38 9.66 -1 10 C-1 9.34 -1 8.68 -1 8 C0.32 8 1.64 8 3 8 C3 7.34 3 6.68 3 6 C1.68 5.67 0.36 5.34 -1 5 C-0.67 3.35 -0.34 1.7 0 0 Z " fill="#323346" transform="translate(116,184)"/>
<path d="M0 0 C1.66611905 -0.042721 3.33382885 -0.04063832 5 0 C6 1 6 1 6.0625 4.5625 C6.041875 5.696875 6.02125 6.83125 6 8 C4.02 8 2.04 8 0 8 C-0.33 6.68 -0.66 5.36 -1 4 C0.65 3.67 2.3 3.34 4 3 C4 2.34 4 1.68 4 1 C2.68 1.33 1.36 1.66 0 2 C0 1.34 0 0.68 0 0 Z " fill="#738098" transform="translate(123,94)"/>
<path d="M0 0 C0.66 0 1.32 0 2 0 C2 1.32 2 2.64 2 4 C3.65 4.33 5.3 4.66 7 5 C7 7.31 7 9.62 7 12 C6.34 12 5.68 12 5 12 C5 9.69 5 7.38 5 5 C4.01 5 3.02 5 2 5 C2 7.31 2 9.62 2 12 C1.34 12 0.68 12 0 12 C0 8.04 0 4.08 0 0 Z " fill="#868797" transform="translate(95,90)"/>
<path d="M0 0 C0.66 0 1.32 0 2 0 C2.99 1.98 3.98 3.96 5 6 C5.66 4.02 6.32 2.04 7 0 C7.66 0 8.32 0 9 0 C8.44894091 3.9492568 7.61064629 7.34920174 6 11 C5.01 11 4.02 11 3 11 C2.01 7.37 1.02 3.74 0 0 Z " fill="#382731" transform="translate(858,293)"/>
<path d="M0 0 C1.65 0.33 3.3 0.66 5 1 C5.33 1.99 5.66 2.98 6 4 C4.68 5.32 3.36 6.64 2 8 C3.32 8.33 4.64 8.66 6 9 C6 9.66 6 10.32 6 11 C3.69 11 1.38 11 -1 11 C-0.42647107 7.12867972 1.48704352 4.91827204 4 2 C2.35 2 0.7 2 -1 2 C-0.67 1.34 -0.34 0.68 0 0 Z " fill="#2A2129" transform="translate(1220,498)"/>
<path d="M0 0 C1.66611905 -0.042721 3.33382885 -0.04063832 5 0 C6 1 6 1 6.125 3.5 C6 6 6 6 5 7 C3.33382885 7.04063832 1.66611905 7.042721 0 7 C0 4.69 0 2.38 0 0 Z " fill="#D3E3E8" transform="translate(101,459)"/>
<path d="M0 0 C1.65 0 3.3 0 5 0 C5 0.66 5 1.32 5 2 C3.68 2 2.36 2 1 2 C2.65 3.65 4.3 5.3 6 7 C5.34 8.32 4.68 9.64 4 11 C2.35 11 0.7 11 -1 11 C-1 10.34 -1 9.68 -1 9 C0.65 9 2.3 9 4 9 C4 8.34 4 7.68 4 7 C1.525 6.01 1.525 6.01 -1 5 C-0.67 3.35 -0.34 1.7 0 0 Z " fill="#2B262D" transform="translate(851,293)"/>
<path d="M0 0 C2.31 0 4.62 0 7 0 C7 0.66 7 1.32 7 2 C5.35 2 3.7 2 2 2 C2 2.99 2 3.98 2 5 C3.32 5 4.64 5 6 5 C6 5.66 6 6.32 6 7 C4.68 7 3.36 7 2 7 C2 8.32 2 9.64 2 11 C1.34 11 0.68 11 0 11 C0 7.37 0 3.74 0 0 Z " fill="#EBF0FD" transform="translate(1158,294)"/>
<path d="M0 0 C0.639375 0.2475 1.27875 0.495 1.9375 0.75 C2.2675 1.74 2.5975 2.73 2.9375 3.75 C1.2875 3.75 -0.3625 3.75 -2.0625 3.75 C-2.0625 4.41 -2.0625 5.07 -2.0625 5.75 C-0.7425 5.75 0.5775 5.75 1.9375 5.75 C1.9375 6.41 1.9375 7.07 1.9375 7.75 C0.27138095 7.792721 -1.39632885 7.79063832 -3.0625 7.75 C-4.0625 6.75 -4.0625 6.75 -4.125 3.6875 C-4.104375 2.718125 -4.08375 1.74875 -4.0625 0.75 C-2.0625 -0.25 -2.0625 -0.25 0 0 Z " fill="#3D3D47" transform="translate(987.0625,460.25)"/>
<path d="M0 0 C0.66 0 1.32 0 2 0 C2 0.66 2 1.32 2 2 C3.65 1.34 5.3 0.68 7 0 C6.62875 0.763125 6.2575 1.52625 5.875 2.3125 C5.441875 3.6428125 5.441875 3.6428125 5 5 C5.99 6.485 5.99 6.485 7 8 C6.01 8 5.02 8 4 8 C4 7.34 4 6.68 4 6 C3.34 6 2.68 6 2 6 C2 6.66 2 7.32 2 8 C-0.64 7.67 -3.28 7.34 -6 7 C-6 6.67 -6 6.34 -6 6 C-4.02 6 -2.04 6 0 6 C0 4.02 0 2.04 0 0 Z " fill="#3E3C45" transform="translate(796,296)"/>
<path d="M0 0 C0 0.66 0 1.32 0 2 C-1.98 2.66 -3.96 3.32 -6 4 C-5.67 5.32 -5.34 6.64 -5 8 C-3.35 8.33 -1.7 8.66 0 9 C0 9.66 0 10.32 0 11 C-2.875 11.125 -2.875 11.125 -6 11 C-8 9 -8 9 -8.3125 5.5 C-8.209375 4.345 -8.10625 3.19 -8 2 C-4.77208445 -0.1519437 -3.71599191 -0.20086443 0 0 Z " fill="#29232D" transform="translate(848,293)"/>
<path d="M0 0 C0.66 0 1.32 0 2 0 C2 0.99 2 1.98 2 3 C2.66 3 3.32 3 4 3 C4 3.66 4 4.32 4 5 C3.34 5 2.68 5 2 5 C2 6.98 2 8.96 2 11 C2.66 11 3.32 11 4 11 C4 11.66 4 12.32 4 13 C2.68 13 1.36 13 0 13 C0 10.36 0 7.72 0 5 C-0.66 5 -1.32 5 -2 5 C-2 4.34 -2 3.68 -2 3 C-1.34 3 -0.68 3 0 3 C0 2.01 0 1.02 0 0 Z " fill="#1D3055" transform="translate(185,181)"/>
<path d="M0 0 C2.64 0 5.28 0 8 0 C8 0.99 8 1.98 8 3 C7.01 3.66 6.02 4.32 5 5 C5.66 6.98 6.32 8.96 7 11 C3.31197956 9.77065985 2.27643027 8.06140622 0 5 C0.99 4.67 1.98 4.34 3 4 C2.01 3.34 1.02 2.68 0 2 C0 1.34 0 0.68 0 0 Z " fill="#251B23" transform="translate(1210,498)"/>
<path d="M0 0 C0.33 1.32 0.66 2.64 1 4 C-2 6 -2 6 -4.1875 5.625 C-4.785625 5.41875 -5.38375 5.2125 -6 5 C-6 3.35 -6 1.7 -6 0 C-3.50907189 -1.24546405 -2.58919267 -0.7767578 0 0 Z " fill="#7F8591" transform="translate(138,181)"/>
<path d="M0 0 C0 0.99 0 1.98 0 3 C-1.65 3 -3.3 3 -5 3 C-4.67 3.66 -4.34 4.32 -4 5 C-3.01 5 -2.02 5 -1 5 C-1 5.66 -1 6.32 -1 7 C-2.66611905 7.042721 -4.33382885 7.04063832 -6 7 C-7 6 -7 6 -7.0625 2.9375 C-7.041875 1.968125 -7.02125 0.99875 -7 0 C-4.3333581 -1.33332095 -2.83319697 -0.67102033 0 0 Z " fill="#7769F7" transform="translate(362,95)"/>
<path d="M0 0 C1.65 0.33 3.3 0.66 5 1 C5 3.31 5 5.62 5 8 C3.02 8 1.04 8 -1 8 C-0.67 6.35 -0.34 4.7 0 3 C0.99 3 1.98 3 3 3 C3 2.34 3 1.68 3 1 C2.01 0.67 1.02 0.34 0 0 Z " fill="#8A909E" transform="translate(81,94)"/>
<path d="M0 0 C2.97 0 5.94 0 9 0 C9 0.66 9 1.32 9 2 C8.01 2 7.02 2 6 2 C6 4.97 6 7.94 6 11 C5.34 11 4.68 11 4 11 C4 8.03 4 5.06 4 2 C2.68 2 1.36 2 0 2 C0 1.34 0 0.68 0 0 Z " fill="#070217" transform="translate(970,539)"/>
<path d="M0 0 C0.66 0 1.32 0 2 0 C2 0.66 2 1.32 2 2 C2.66 2.33 3.32 2.66 4 3 C3.34 3 2.68 3 2 3 C2 4.98 2 6.96 2 9 C2.66 9.33 3.32 9.66 4 10 C2.68 9.67 1.36 9.34 0 9 C-0.33 7.35 -0.66 5.7 -1 4 C-2.65 3.67 -4.3 3.34 -6 3 C-6 2.67 -6 2.34 -6 2 C-4.02 2 -2.04 2 0 2 C0 1.34 0 0.68 0 0 Z " fill="#8C96A4" transform="translate(232,92)"/>
<path d="M0 0 C1.65 0.33 3.3 0.66 5 1 C5 2.98 5 4.96 5 7 C3.02 7.33 1.04 7.66 -1 8 C-0.01 7.67 0.98 7.34 2 7 C1.484375 6.5875 0.96875 6.175 0.4375 5.75 C-0.036875 5.1725 -0.51125 4.595 -1 4 C-0.6875 1.8125 -0.6875 1.8125 0 0 Z " fill="#A0ABB9" transform="translate(89,94)"/>
<path d="M0 0 C1.65 0 3.3 0 5 0 C5 0.66 5 1.32 5 2 C4.01 2.495 4.01 2.495 3 3 C3.66 3.33 4.32 3.66 5 4 C4.67 5.32 4.34 6.64 4 8 C2.35 8 0.7 8 -1 8 C-1 7.34 -1 6.68 -1 6 C-0.34 5.67 0.32 5.34 1 5 C0.34 4.67 -0.32 4.34 -1 4 C-0.67 2.68 -0.34 1.36 0 0 Z " fill="#484046" transform="translate(1006,460)"/>
<path d="M0 0 C2.64 0 5.28 0 8 0 C8 0.66 8 1.32 8 2 C7.01 2 6.02 2 5 2 C5 4.97 5 7.94 5 11 C4.34 11 3.68 11 3 11 C3 8.03 3 5.06 3 2 C2.01 2 1.02 2 0 2 C0 1.34 0 0.68 0 0 Z " fill="#1A2947" transform="translate(1223,457)"/>
<path d="M0 0 C1.32 0.33 2.64 0.66 4 1 C4.625 3.375 4.625 3.375 5 6 C4.34 6.66 3.68 7.32 3 8 C2.01 8 1.02 8 0 8 C0 5.36 0 2.72 0 0 Z " fill="#DBE6E6" transform="translate(116,255)"/>
<path d="M0 0 C2.475 0.495 2.475 0.495 5 1 C5 2.65 5 4.3 5 6 C3.35 6.33 1.7 6.66 0 7 C0 4.69 0 2.38 0 0 Z " fill="#F9F8F3" transform="translate(242,459)"/>
<path d="M0 0 C2.475 0.495 2.475 0.495 5 1 C5 2.65 5 4.3 5 6 C3.35 6.33 1.7 6.66 0 7 C0 4.69 0 2.38 0 0 Z " fill="#5142F7" transform="translate(1149,296)"/>
<path d="M0 0 C0.66 0 1.32 0 2 0 C2 0.66 2 1.32 2 2 C2.66 2 3.32 2 4 2 C4 2.66 4 3.32 4 4 C3.34 4 2.68 4 2 4 C2 5.32 2 6.64 2 8 C2.66 8 3.32 8 4 8 C4 8.66 4 9.32 4 10 C2.68 10 1.36 10 0 10 C0 8.02 0 6.04 0 4 C-0.66 4 -1.32 4 -2 4 C-2 3.34 -2 2.68 -2 2 C-1.34 2 -0.68 2 0 2 C0 1.34 0 0.68 0 0 Z " fill="#0F0921" transform="translate(990,540)"/>
<path d="M0 0 C0.99 0.33 1.98 0.66 3 1 C3 3.31 3 5.62 3 8 C1.68 8 0.36 8 -1 8 C-1.04241723 5.66705225 -1.04092937 3.33297433 -1 1 C-0.67 0.67 -0.34 0.34 0 0 Z " fill="#FBFDEE" transform="translate(289,499)"/>
<path d="M0 0 C0.99 0.33 1.98 0.66 3 1 C3 3.31 3 5.62 3 8 C1.68 8 0.36 8 -1 8 C-1.04241723 5.66705225 -1.04092937 3.33297433 -1 1 C-0.67 0.67 -0.34 0.34 0 0 Z " fill="#FEF9EA" transform="translate(252,376)"/>
<path d="M0 0 C0.99 0.33 1.98 0.66 3 1 C3 3.31 3 5.62 3 8 C1.68 8 0.36 8 -1 8 C-1.04241723 5.66705225 -1.04092937 3.33297433 -1 1 C-0.67 0.67 -0.34 0.34 0 0 Z " fill="#FEF9EA" transform="translate(240,376)"/>
<path d="M0 0 C0.99 0.33 1.98 0.66 3 1 C3 3.31 3 5.62 3 8 C1.68 8 0.36 8 -1 8 C-1.04241723 5.66705225 -1.04092937 3.33297433 -1 1 C-0.67 0.67 -0.34 0.34 0 0 Z " fill="#F5F8EA" transform="translate(461,294)"/>
<path d="M0 0 C0.99 0.33 1.98 0.66 3 1 C3 3.31 3 5.62 3 8 C1.68 8 0.36 8 -1 8 C-1.04241723 5.66705225 -1.04092937 3.33297433 -1 1 C-0.67 0.67 -0.34 0.34 0 0 Z " fill="#F5F8EA" transform="translate(427,294)"/>
<path d="M0 0 C2.31 0.33 4.62 0.66 7 1 C6.67 2.98 6.34 4.96 6 7 C5.34 7 4.68 7 4 7 C4 5.35 4 3.7 4 2 C3.34 2 2.68 2 2 2 C2 3.65 2 5.3 2 7 C1.34 7 0.68 7 0 7 C0 4.69 0 2.38 0 0 Z " fill="#6D667A" transform="translate(98,257)"/>
<path d="M0 0 C1.98 0 3.96 0 6 0 C7 1 7 1 7.0625 3.5625 C7.041875 4.366875 7.02125 5.17125 7 6 C6.67 4.68 6.34 3.36 6 2 C4.68 2 3.36 2 2 2 C1.67 5.3 1.34 8.6 1 12 C0.67 12 0.34 12 0 12 C0 8.04 0 4.08 0 0 Z " fill="#615AF7" transform="translate(364,94)"/>
<path d="M0 0 C0.66 0.33 1.32 0.66 2 1 C1.25 5.75 1.25 5.75 -1 8 C-0.01 8.66 0.98 9.32 2 10 C-0.31 10 -2.62 10 -5 10 C-4.6875 8.125 -4.6875 8.125 -4 6 C-3.01 5.34 -2.02 4.68 -1 4 C-0.27617533 1.94074861 -0.27617533 1.94074861 0 0 Z " fill="#61677C" transform="translate(283,499)"/>
<path d="M0 0 C0.66 0.33 1.32 0.66 2 1 C1.25 5.75 1.25 5.75 -1 8 C-0.01 8.66 0.98 9.32 2 10 C-0.31 10 -2.62 10 -5 10 C-4.6875 8.125 -4.6875 8.125 -4 6 C-3.01 5.34 -2.02 4.68 -1 4 C-0.27617533 1.94074861 -0.27617533 1.94074861 0 0 Z " fill="#5E657A" transform="translate(455,294)"/>
<path d="M0 0 C1.65 0.33 3.3 0.66 5 1 C5 2.98 5 4.96 5 7 C3.35 7 1.7 7 0 7 C0 5.68 0 4.36 0 3 C0.99 3 1.98 3 3 3 C3 2.34 3 1.68 3 1 C2.01 1.33 1.02 1.66 0 2 C0 1.34 0 0.68 0 0 Z " fill="#6A687F" transform="translate(410,257)"/>
<path d="M0 0 C1.65 0 3.3 0 5 0 C5.33 1.65 5.66 3.3 6 5 C3.50907189 6.24546405 2.58919267 5.7767578 0 5 C0 3.35 0 1.7 0 0 Z " fill="#B49DFA" transform="translate(1139,295)"/>
<path d="M0 0 C1.65 0 3.3 0 5 0 C5.33 1.65 5.66 3.3 6 5 C3.50907189 6.24546405 2.58919267 5.7767578 0 5 C0 3.35 0 1.7 0 0 Z " fill="#B49DFA" transform="translate(1100,295)"/>
<path d="M0 0 C2.125 0.375 2.125 0.375 4 1 C4 1.99 4 2.98 4 4 C3.67 4.33 3.34 4.66 3 5 C3.33 5.66 3.66 6.32 4 7 C2.35 7 0.7 7 -1 7 C-1.625 4.625 -1.625 4.625 -2 2 C-1.34 1.34 -0.68 0.68 0 0 Z " fill="#6D6C7F" transform="translate(138,257)"/>
<path d="M0 0 C1.32 0 2.64 0 4 0 C4.33 1.65 4.66 3.3 5 5 C3.35 5.33 1.7 5.66 0 6 C-0.33 7.32 -0.66 8.64 -1 10 C-0.67 6.7 -0.34 3.4 0 0 Z " fill="#BBB8FA" transform="translate(366,96)"/>
<path d="M0 0 C0.66 0 1.32 0 2 0 C2 3.96 2 7.92 2 12 C1.01 11.67 0.02 11.34 -1 11 C-0.9071875 9.824375 -0.9071875 9.824375 -0.8125 8.625 C-0.874375 7.75875 -0.93625 6.8925 -1 6 C-1.99 5.34 -2.98 4.68 -4 4 C-2.68 4 -1.36 4 0 4 C0 2.68 0 1.36 0 0 Z " fill="#7E879B" transform="translate(142,90)"/>
<path d="M0 0 C1.32 0.66 2.64 1.32 4 2 C4.125 5.375 4.125 5.375 4 9 C3.34 9.66 2.68 10.32 2 11 C1.01 11 0.02 11 -1 11 C-1 10.34 -1 9.68 -1 9 C-0.34 8.67 0.32 8.34 1 8 C1.16687448 5.58354218 1.16687448 5.58354218 1 3 C0.34 2.34 -0.32 1.68 -1 1 C-0.67 0.67 -0.34 0.34 0 0 Z " fill="#05051D" transform="translate(1230,539)"/>
<path d="M0 0 C-0.33 1.65 -0.66 3.3 -1 5 C-2.32 4.67 -3.64 4.34 -5 4 C-5.33 2.68 -5.66 1.36 -6 0 C-3.50907189 -1.24546405 -2.58919267 -0.7767578 0 0 Z " fill="#7B7275" transform="translate(269,499)"/>
<path d="M0 0 C0.66 0 1.32 0 2 0 C2 0.66 2 1.32 2 2 C2.66 2 3.32 2 4 2 C4 2.66 4 3.32 4 4 C3.34 4 2.68 4 2 4 C2 5.32 2 6.64 2 8 C2.66 8 3.32 8 4 8 C4 8.66 4 9.32 4 10 C2.68 9.67 1.36 9.34 0 9 C-1.125 2.25 -1.125 2.25 0 0 Z " fill="#E8EFFD" transform="translate(1127,295)"/>
<path d="M0 0 C-0.33 1.65 -0.66 3.3 -1 5 C-2.32 4.67 -3.64 4.34 -5 4 C-5.33 2.68 -5.66 1.36 -6 0 C-3.50907189 -1.24546405 -2.58919267 -0.7767578 0 0 Z " fill="#786F73" transform="translate(439,294)"/>
<path d="M0 0 C1.67542976 0.28604898 3.34385343 0.61781233 5 1 C5 1.99 5 2.98 5 4 C3.68 4.33 2.36 4.66 1 5 C1.99 5.66 2.98 6.32 4 7 C2.35 6.67 0.7 6.34 -1 6 C-1.042721 4.33388095 -1.04063832 2.66617115 -1 1 C-0.67 0.67 -0.34 0.34 0 0 Z " fill="#66697E" transform="translate(423,257)"/>
<path d="M0 0 C1.65 0 3.3 0 5 0 C5 0.66 5 1.32 5 2 C4.34 2 3.68 2 3 2 C3 3.98 3 5.96 3 8 C2.01 8 1.02 8 0 8 C0 5.36 0 2.72 0 0 Z " fill="#241D2F" transform="translate(932,542)"/>
<path d="M0 0 C1.32 0 2.64 0 4 0 C4 2.31 4 4.62 4 7 C2.68 7 1.36 7 0 7 C0 4.69 0 2.38 0 0 Z " fill="#DEE7D9" transform="translate(1251,500)"/>
<path d="M0 0 C1.98 0 3.96 0 6 0 C6 0.66 6 1.32 6 2 C5.01 2.33 4.02 2.66 3 3 C2.67 5.31 2.34 7.62 2 10 C1.34 10 0.68 10 0 10 C0 6.7 0 3.4 0 0 Z " fill="#252341" transform="translate(176,184)"/>
<path d="M0 0 C1.32 0 2.64 0 4 0 C4 1.65 4 3.3 4 5 C2.35 5.33 0.7 5.66 -1 6 C-1.042721 4.33388095 -1.04063832 2.66617115 -1 1 C-0.67 0.67 -0.34 0.34 0 0 Z " fill="#F3F6F2" transform="translate(167,186)"/>
<path d="M0 0 C0.33 0 0.66 0 1 0 C1 3.96 1 7.92 1 12 C0.01 10.68 -0.98 9.36 -2 8 C-4.08334635 6.7483533 -4.08334635 6.7483533 -6 6 C-6 5.34 -6 4.68 -6 4 C-4.35 3.67 -2.7 3.34 -1 3 C-0.67 2.01 -0.34 1.02 0 0 Z " fill="#E5D0FA" transform="translate(363,94)"/>
<path d="M0 0 C0.598125 0.309375 1.19625 0.61875 1.8125 0.9375 C4.08956772 2.10209704 4.08956772 2.10209704 7 3 C7 3.66 7 4.32 7 5 C6.34 5 5.68 5 5 5 C5.33 6.98 5.66 8.96 6 11 C5.34 11 4.68 11 4 11 C3.89042969 10.36191406 3.78085938 9.72382812 3.66796875 9.06640625 C3.50941406 8.24011719 3.35085937 7.41382813 3.1875 6.5625 C2.96126953 5.32693359 2.96126953 5.32693359 2.73046875 4.06640625 C2.48941406 3.38449219 2.24835937 2.70257812 2 2 C1.01 1.67 0.02 1.34 -1 1 C-0.67 0.67 -0.34 0.34 0 0 Z " fill="#3252AC" transform="translate(61,28)"/>
<path d="M0 0 C1.65 0.33 3.3 0.66 5 1 C5 2.65 5 4.3 5 6 C2.29120665 7.35439668 -0.00933268 7.06501451 -3 7 C-3 6.34 -3 5.68 -3 5 C-1.02 5 0.96 5 3 5 C2.2236068 1.9254644 2.2236068 1.9254644 0 0 Z " fill="#212137" transform="translate(81,187)"/>
<path d="M0 0 C1.32 0 2.64 0 4 0 C4 1.65 4 3.3 4 5 C2.68 5.33 1.36 5.66 0 6 C-0.38218767 4.34385343 -0.71395102 2.67542976 -1 1 C-0.67 0.67 -0.34 0.34 0 0 Z " fill="#EBF6F2" transform="translate(155,186)"/>
<path d="M0 0 C2.5 0.25 2.5 0.25 4.5 2.25 C4.625 5.375 4.625 5.375 4.5 8.25 C2.5 4.5 2.5 4.5 2.5 2.25 C0.55000871 2.44471111 0.55000871 2.44471111 -1.5 3.25 C-2.78436734 5.2337767 -2.78436734 5.2337767 -3.5 7.25 C-4.125 4.875 -4.125 4.875 -4.5 2.25 C-2.5 0.25 -2.5 0.25 0 0 Z " fill="#1F2B4F" transform="translate(168.5,183.75)"/>
<path d="M0 0 C0.66 0 1.32 0 2 0 C2 0.66 2 1.32 2 2 C2.66 2.33 3.32 2.66 4 3 C3.34 3 2.68 3 2 3 C2 4.65 2 6.3 2 8 C2.66 8 3.32 8 4 8 C4 8.66 4 9.32 4 10 C2.68 9.67 1.36 9.34 0 9 C-1.125 2.25 -1.125 2.25 0 0 Z " fill="#271B3E" transform="translate(1241,458)"/>
<path d="M0 0 C0.66 0 1.32 0 2 0 C2 0.66 2 1.32 2 2 C2.66 2.33 3.32 2.66 4 3 C3.34 3 2.68 3 2 3 C2 4.65 2 6.3 2 8 C2.66 8 3.32 8 4 8 C4 8.66 4 9.32 4 10 C2.68 9.67 1.36 9.34 0 9 C-1.125 2.25 -1.125 2.25 0 0 Z " fill="#271B3E" transform="translate(978,458)"/>
<path d="M0 0 C0.66 0 1.32 0 2 0 C2 0.66 2 1.32 2 2 C2.66 2.33 3.32 2.66 4 3 C3.34 3 2.68 3 2 3 C2 4.65 2 6.3 2 8 C2.66 8 3.32 8 4 8 C4 8.66 4 9.32 4 10 C2.68 9.67 1.36 9.34 0 9 C-1.125 2.25 -1.125 2.25 0 0 Z " fill="#38192B" transform="translate(260,458)"/>
<path d="M0 0 C0.99 0.33 1.98 0.66 3 1 C2.34 1.66 1.68 2.32 1 3 C0.59952556 5.32275177 0.2602896 7.65739357 0 10 C0.99 10.33 1.98 10.66 3 11 C1.68 11 0.36 11 -1 11 C-2.50662097 7.98675805 -2.17770373 5.31713623 -2 2 C-1.34 1.34 -0.68 0.68 0 0 Z " fill="#505C75" transform="translate(157,293)"/>
<path d="M0 0 C0.99 0.33 1.98 0.66 3 1 C2.34 1.66 1.68 2.32 1 3 C0.59952556 5.32275177 0.2602896 7.65739357 0 10 C0.99 10.33 1.98 10.66 3 11 C1.68 11 0.36 11 -1 11 C-2.50662097 7.98675805 -2.17770373 5.31713623 -2 2 C-1.34 1.34 -0.68 0.68 0 0 Z " fill="#505C75" transform="translate(123,293)"/>
<path d="M0 0 C0.99 0.33 1.98 0.66 3 1 C2.67 4.63 2.34 8.26 2 12 C1.34 12 0.68 12 0 12 C0 8.04 0 4.08 0 0 Z " fill="#411420" transform="translate(804,296)"/>
<path d="M0 0 C1.65 0.33 3.3 0.66 5 1 C5 2.98 5 4.96 5 7 C4.34 7 3.68 7 3 7 C3 6.01 3 5.02 3 4 C2.34 4 1.68 4 1 4 C1.33 4.99 1.66 5.98 2 7 C1.01 7 0.02 7 -1 7 C-0.67 5.68 -0.34 4.36 0 3 C0.99 3 1.98 3 3 3 C3 2.34 3 1.68 3 1 C2.01 0.67 1.02 0.34 0 0 Z " fill="#565876" transform="translate(125,257)"/>
<path d="M0 0 C1.32 0 2.64 0 4 0 C4 0.66 4 1.32 4 2 C3.01 2 2.02 2 1 2 C1 3.32 1 4.64 1 6 C1.99 6.33 2.98 6.66 4 7 C2.0625 7.5625 2.0625 7.5625 0 8 C-1 7 -1 7 -1.125 4 C-1 1 -1 1 0 0 Z " fill="#12060E" transform="translate(958,542)"/>
<path d="M0 0 C-0.33 0.99 -0.66 1.98 -1 3 C-1.78375 3.103125 -2.5675 3.20625 -3.375 3.3125 C-6.33045181 3.77595022 -6.33045181 3.77595022 -8 7 C-8.33 5.35 -8.66 3.7 -9 2 C-5.5647952 -0.29013653 -4.014669 -0.17842973 0 0 Z " fill="#131225" transform="translate(930,539)"/>
<path d="M0 0 C0.99 0.33 1.98 0.66 3 1 C3 2.65 3 4.3 3 6 C1.68 6 0.36 6 -1 6 C-1.042721 4.33388095 -1.04063832 2.66617115 -1 1 C-0.67 0.67 -0.34 0.34 0 0 Z " fill="#BDC4BB" transform="translate(1252,541)"/>
<path d="M0 0 C0.66 0 1.32 0 2 0 C2 0.66 2 1.32 2 2 C2.66 2.33 3.32 2.66 4 3 C3.34 3 2.68 3 2 3 C2 4.98 2 6.96 2 9 C2.66 9.33 3.32 9.66 4 10 C2.68 9.67 1.36 9.34 0 9 C-1.125 2.25 -1.125 2.25 0 0 Z " fill="#788399" transform="translate(184,376)"/>
<path d="M0 0 C0.66 0 1.32 0 2 0 C2 0.66 2 1.32 2 2 C2.66 2.33 3.32 2.66 4 3 C3.34 3 2.68 3 2 3 C2 4.98 2 6.96 2 9 C2.66 9.33 3.32 9.66 4 10 C2.68 9.67 1.36 9.34 0 9 C-1.125 2.25 -1.125 2.25 0 0 Z " fill="#788399" transform="translate(91,376)"/>
<path d="M0 0 C0.33 0 0.66 0 1 0 C1 2.97 1 5.94 1 9 C0.01 9 -0.98 9 -2 9 C-2.125 5.625 -2.125 5.625 -2 2 C-1.34 1.34 -0.68 0.68 0 0 Z " fill="#F6F4ED" transform="translate(159,294)"/>
<path d="M0 0 C1.32 0 2.64 0 4 0 C5.32 2.64 6.64 5.28 8 8 C7.01 8 6.02 8 5 8 C3.95107762 6.36368108 2.95093297 4.69514137 2 3 C1.34 2.67 0.68 2.34 0 2 C0 1.34 0 0.68 0 0 Z " fill="#2D2A3F" transform="translate(132,186)"/>
<path d="M0 0 C1.98 0 3.96 0 6 0 C6.33 0.66 6.66 1.32 7 2 C6.34 2 5.68 2 5 2 C5 2.99 5 3.98 5 5 C3.68 5 2.36 5 1 5 C0.67 3.35 0.34 1.7 0 0 Z " fill="#9D9EF9" transform="translate(346,91)"/>
<path d="M0 0 C2.625 0.375 2.625 0.375 5 1 C5 1.66 5 2.32 5 3 C3.68 3 2.36 3 1 3 C0.34 4.98 -0.32 6.96 -1 9 C-1.33 9 -1.66 9 -2 9 C-2.125 5.625 -2.125 5.625 -2 2 C-1.34 1.34 -0.68 0.68 0 0 Z " fill="#090919" transform="translate(1242,539)"/>
<path d="M0 0 C0.66 0.33 1.32 0.66 2 1 C2 3.31 2 5.62 2 8 C1.01 8 0.02 8 -1 8 C-1.04241723 5.66705225 -1.04092937 3.33297433 -1 1 C-0.67 0.67 -0.34 0.34 0 0 Z " fill="#F1F6ED" transform="translate(1231,499)"/>
<path d="M0 0 C1.66611905 -0.042721 3.33382885 -0.04063832 5 0 C6 1 6 1 6.0625 4.5625 C6.041875 5.696875 6.02125 6.83125 6 8 C5.34 8 4.68 8 4 8 C4 6.68 4 5.36 4 4 C3.01 3.67 2.02 3.34 1 3 C1.99 3 2.98 3 4 3 C4 2.34 4 1.68 4 1 C2.68 1.33 1.36 1.66 0 2 C0 1.34 0 0.68 0 0 Z " fill="#738098" transform="translate(126,378)"/>
<path d="M0 0 C0.33 0.66 0.66 1.32 1 2 C1.66 2.33 2.32 2.66 3 3 C2.34 3 1.68 3 1 3 C1.66 5.31 2.32 7.62 3 10 C1.68 9.67 0.36 9.34 -1 9 C-1.33 6.69 -1.66 4.38 -2 2 C-1.34 2 -0.68 2 0 2 C0 1.34 0 0.68 0 0 Z " fill="#462B11" transform="translate(831,294)"/>
<path d="M0 0 C2.475 0.495 2.475 0.495 5 1 C4.67 2.32 4.34 3.64 4 5 C2.68 5 1.36 5 0 5 C0 3.35 0 1.7 0 0 Z " fill="#E5E1FD" transform="translate(167,32)"/>
<path d="M0 0 C0.33 0 0.66 0 1 0 C1.66 2.64 2.32 5.28 3 8 C2.01 8.33 1.02 8.66 0 9 C0 8.34 0 7.68 0 7 C-1.32 6.67 -2.64 6.34 -4 6 C-3.525625 5.566875 -3.05125 5.13375 -2.5625 4.6875 C-0.76313043 2.97690387 -0.76313043 2.97690387 0 0 Z " fill="#B7DCF0" transform="translate(1224,541)"/>
<path d="M0 0 C0.66 0.33 1.32 0.66 2 1 C2 3.31 2 5.62 2 8 C1.01 8 0.02 8 -1 8 C-1.04241723 5.66705225 -1.04092937 3.33297433 -1 1 C-0.67 0.67 -0.34 0.34 0 0 Z " fill="#F9F6E5" transform="translate(1244,499)"/>
<path d="M0 0 C2.16874252 0.50603992 3.99967627 0.99983813 6 2 C5.67 3.32 5.34 4.64 5 6 C2.525 5.01 2.525 5.01 0 4 C0 2.68 0 1.36 0 0 Z " fill="#B0C4D3" transform="translate(266,462)"/>
<path d="M0 0 C0.99 0.33 1.98 0.66 3 1 C1.02 1.99 1.02 1.99 -1 3 C-0.73343428 5.93443402 -0.73343428 5.93443402 0 9 C0.99 9.66 1.98 10.32 3 11 C1.35 10.67 -0.3 10.34 -2 10 C-2.1953125 3.9453125 -2.1953125 3.9453125 -2 2 C-1.34 1.34 -0.68 0.68 0 0 Z " fill="#797A8F" transform="translate(260,375)"/>
<path d="M0 0 C0.66 0.66 1.32 1.32 2 2 C1.625 4.625 1.625 4.625 1 7 C-1.97 6.505 -1.97 6.505 -5 6 C-5 5.34 -5 4.68 -5 4 C-3.35 4 -1.7 4 0 4 C0 2.68 0 1.36 0 0 Z " fill="#F1F2E4" transform="translate(795,296)"/>
<path d="M0 0 C0.33 0 0.66 0 1 0 C1 1.65 1 3.3 1 5 C-2.20395416 5 -4.09399739 4.25664978 -7 3 C-7 2.67 -7 2.34 -7 2 C-4.69 2 -2.38 2 0 2 C0 1.34 0 0.68 0 0 Z " fill="#E5F2F6" transform="translate(150,188)"/>
<path d="M0 0 C0.99 0.33 1.98 0.66 3 1 C2.67 2.65 2.34 4.3 2 6 C1.01 6 0.02 6 -1 6 C-1.042721 4.33388095 -1.04063832 2.66617115 -1 1 C-0.67 0.67 -0.34 0.34 0 0 Z " fill="#F9FBF5" transform="translate(107,95)"/>
<path d="M0 0 C0.66 0 1.32 0 2 0 C2 2.31 2 4.62 2 7 C1.67 6.34 1.34 5.68 1 5 C-0.65 5 -2.3 5 -4 5 C-2.71937515 3.2925002 -1.38232443 1.62626404 0 0 Z " fill="#E5F5FD" transform="translate(1225,502)"/>
<path d="M0 0 C1.65 0.33 3.3 0.66 5 1 C5.33 1.99 5.66 2.98 6 4 C5.01 4.99 4.02 5.98 3 7 C3 4 3 4 4 2 C2.35 2 0.7 2 -1 2 C-0.67 1.34 -0.34 0.68 0 0 Z " fill="#31303C" transform="translate(1220,498)"/>
<path d="M0 0 C0.33 0.66 0.66 1.32 1 2 C1.66 2.33 2.32 2.66 3 3 C3 5.31 3 7.62 3 10 C2.01 9.67 1.02 9.34 0 9 C-1.125 2.25 -1.125 2.25 0 0 Z " fill="#757791" transform="translate(199,376)"/>
<path d="M0 0 C0 2.64 0 5.28 0 8 C-0.99 7.67 -1.98 7.34 -3 7 C-3 5.02 -3 3.04 -3 1 C-1 0 -1 0 0 0 Z " fill="#E6FDFF" transform="translate(146,378)"/>
<path d="M0 0 C0.66 0 1.32 0 2 0 C3.06546953 3.1964086 3.07427838 5.65747276 3 9 C2.01 8.67 1.02 8.34 0 8 C-1.125 2.25 -1.125 2.25 0 0 Z " fill="#535779" transform="translate(132,255)"/>
<path d="M0 0 C0.33 0.66 0.66 1.32 1 2 C1.66 2.33 2.32 2.66 3 3 C2.34 3 1.68 3 1 3 C1 4.65 1 6.3 1 8 C1.66 8.33 2.32 8.66 3 9 C1.68 8.67 0.36 8.34 -1 8 C-1.33 6.02 -1.66 4.04 -2 2 C-1.34 2 -0.68 2 0 2 C0 1.34 0 0.68 0 0 Z " fill="#6D616C" transform="translate(418,255)"/>
<path d="M0 0 C0.99 0.33 1.98 0.66 3 1 C2.67 2.65 2.34 4.3 2 6 C1.01 5.67 0.02 5.34 -1 5 C-0.67 3.35 -0.34 1.7 0 0 Z " fill="#FCFFFD" transform="translate(208,95)"/>
<path d="M0 0 C0.33 0.66 0.66 1.32 1 2 C2.32 2 3.64 2 5 2 C5 2.99 5 3.98 5 5 C3.68 5 2.36 5 1 5 C0.67 5.99 0.34 6.98 0 8 C0 5.36 0 2.72 0 0 Z " fill="#8FB2F5" transform="translate(68,26)"/>
<path d="M0 0 C0.99 0.33 1.98 0.66 3 1 C3 2.65 3 4.3 3 6 C2.01 6.33 1.02 6.66 0 7 C0 4.69 0 2.38 0 0 Z " fill="#E8DFC3" transform="translate(1229,541)"/>
<path d="M0 0 C0.66 0 1.32 0 2 0 C2 2.31 2 4.62 2 7 C1.01 6.67 0.02 6.34 -1 6 C-1.042721 4.33388095 -1.04063832 2.66617115 -1 1 C-0.67 0.67 -0.34 0.34 0 0 Z " fill="#D8E5D8" transform="translate(1243,541)"/>
<path d="M0 0 C1.32 0 2.64 0 4 0 C3.67 1.65 3.34 3.3 3 5 C2.01 5 1.02 5 0 5 C0 3.35 0 1.7 0 0 Z " fill="#DFF0F0" transform="translate(385,499)"/>
<path d="M0 0 C0.99 0.495 0.99 0.495 2 1 C2 1.66 2 2.32 2 3 C3.32 3.66 4.64 4.32 6 5 C4.68 5 3.36 5 2 5 C2 5.66 2 6.32 2 7 C1.34 7 0.68 7 0 7 C0 4.69 0 2.38 0 0 Z " fill="#AFD3E6" transform="translate(1003,461)"/>
<path d="M0 0 C1.65 0 3.3 0 5 0 C5 1.32 5 2.64 5 4 C3.35 3.67 1.7 3.34 0 3 C0 2.01 0 1.02 0 0 Z " fill="#B1B4B6" transform="translate(203,382)"/>
<path d="M0 0 C1.65 0 3.3 0 5 0 C5 1.32 5 2.64 5 4 C3.35 3.67 1.7 3.34 0 3 C0 2.01 0 1.02 0 0 Z " fill="#B1B4B6" transform="translate(125,382)"/>
<path d="M0 0 C1.65 0 3.3 0 5 0 C5 1.32 5 2.64 5 4 C3.35 3.67 1.7 3.34 0 3 C0 2.01 0 1.02 0 0 Z " fill="#B1B4B6" transform="translate(101,382)"/>
<path d="M0 0 C1.65 0 3.3 0 5 0 C5 1.32 5 2.64 5 4 C3.35 3.67 1.7 3.34 0 3 C0 2.01 0 1.02 0 0 Z " fill="#B1B4B6" transform="translate(122,98)"/>
<path d="M0 0 C0 0.66 0 1.32 0 2 C-1.65 2.33 -3.3 2.66 -5 3 C-5 3.66 -5 4.32 -5 5 C-5.66 5 -6.32 5 -7 5 C-7 3.68 -7 2.36 -7 1 C-4.53721199 -0.231394 -2.7204945 -0.07159196 0 0 Z " fill="#E2EFEF" transform="translate(127,95)"/>
<path d="M0 0 C0.66 0 1.32 0 2 0 C2.33 0.99 2.66 1.98 3 3 C2.34 3 1.68 3 1 3 C1.66 5.31 2.32 7.62 3 10 C2.01 10 1.02 10 0 10 C0 7.69 0 5.38 0 3 C-0.66 2.67 -1.32 2.34 -2 2 C-1.34 2 -0.68 2 0 2 C0 1.34 0 0.68 0 0 Z " fill="#6250F7" transform="translate(390,92)"/>
<path d="M0 0 C2.31 0 4.62 0 7 0 C6.01 0.66 5.02 1.32 4 2 C3.01 3.485 3.01 3.485 2 5 C1.34 4.67 0.68 4.34 0 4 C0 2.68 0 1.36 0 0 Z " fill="#E2E3CE" transform="translate(992,544)"/>
<path d="M0 0 C2.31 0 4.62 0 7 0 C7 0.99 7 1.98 7 3 C6.34 3 5.68 3 5 3 C5 3.66 5 4.32 5 5 C2.525 4.01 2.525 4.01 0 3 C0 2.01 0 1.02 0 0 Z " fill="#555A75" transform="translate(220,375)"/>
<path d="M0 0 C1.65 0 3.3 0 5 0 C4.34 0.66 3.68 1.32 3 2 C2.35232207 4.57061311 2.35232207 4.57061311 2 7 C1.34 7 0.68 7 0 7 C0 4.69 0 2.38 0 0 Z " fill="#7E7273" transform="translate(84,257)"/>
<path d="M0 0 C0.66 0.99 1.32 1.98 2 3 C1.34 4.32 0.68 5.64 0 7 C-1.65 6.67 -3.3 6.34 -5 6 C-4.360625 5.7525 -3.72125 5.505 -3.0625 5.25 C-0.81258459 4.18437567 -0.81258459 4.18437567 -0.25 1.875 C-0.1675 1.25625 -0.085 0.6375 0 0 Z " fill="#402D37" transform="translate(159,187)"/>
<path d="M0 0 C0.99 0.33 1.98 0.66 3 1 C3 2.32 3 3.64 3 5 C1.68 5 0.36 5 -1 5 C-0.67 3.35 -0.34 1.7 0 0 Z " fill="#F3E9FC" transform="translate(376,95)"/>
<path d="M0 0 C-2 2 -2 2 -5.625 2.125 C-6.73875 2.08375 -7.8525 2.0425 -9 2 C-9 1.34 -9 0.68 -9 0 C-5.67465243 -1.10844919 -3.37817425 -0.84454356 0 0 Z " fill="#7985F7" transform="translate(78,31)"/>
<path d="M0 0 C0.66 0 1.32 0 2 0 C3.09658936 3.28976808 2.79953138 4.71303767 2 8 C1.34 8 0.68 8 0 8 C0 5.36 0 2.72 0 0 Z " fill="#280005" transform="translate(947,542)"/>
<path d="M0 0 C1.65 0 3.3 0 5 0 C5.33 1.65 5.66 3.3 6 5 C5.34 4.34 4.68 3.68 4 3 C1.41645782 2.83312552 1.41645782 2.83312552 -1 3 C-0.67 2.01 -0.34 1.02 0 0 Z " fill="#241511" transform="translate(1218,539)"/>
<path d="M0 0 C1.32 0.33 2.64 0.66 4 1 C3.67 2.32 3.34 3.64 3 5 C2.01 4.67 1.02 4.34 0 4 C0 2.68 0 1.36 0 0 Z " fill="#F3F7EB" transform="translate(372,503)"/>
<path d="M0 0 C2.125 0.9375 2.125 0.9375 4 2 C3.071875 2.4021875 3.071875 2.4021875 2.125 2.8125 C-0.2995233 3.95556848 -0.2995233 3.95556848 -2 7 C-2 5.02 -2 3.04 -2 1 C-1.34 0.67 -0.68 0.34 0 0 Z " fill="#D7C6A9" transform="translate(252,460)"/>
<path d="M0 0 C-0.33 0.99 -0.66 1.98 -1 3 C-2.32 3 -3.64 3 -5 3 C-5.33 2.01 -5.66 1.02 -6 0 C-3.50907189 -1.24546405 -2.58919267 -0.7767578 0 0 Z " fill="#888C94" transform="translate(95,189)"/>
<path d="M0 0 C1.65 0 3.3 0 5 0 C5 1.32 5 2.64 5 4 C3.35 4 1.7 4 0 4 C0 2.66666667 0 1.33333333 0 0 Z " fill="#939090" transform="translate(143,184)"/>
<path d="M0 0 C1.85776765 3.13498292 2.20140476 5.37471432 2 9 C0.68 7.68 -0.64 6.36 -2 5 C-1.34 3.35 -0.68 1.7 0 0 Z " fill="#E0EBFC" transform="translate(353,93)"/>
<path d="M0 0 C2.475 0.495 2.475 0.495 5 1 C4.67 1.99 4.34 2.98 4 4 C2.68 3.67 1.36 3.34 0 3 C0 2.01 0 1.02 0 0 Z " fill="#9F93F9" transform="translate(79,31)"/>
</svg>
