<?xml version="1.0" encoding="UTF-8"?>
<svg version="1.1" xmlns="http://www.w3.org/2000/svg" width="1350" height="677">
<path d="M0 0 C445.5 0 891 0 1350 0 C1350 223.41 1350 446.82 1350 677 C904.5 677 459 677 0 677 C0 453.59 0 230.18 0 0 Z " fill="#F9F9FA" transform="translate(0,0)"/>
<path d="M0 0 C445.5 0 891 0 1350 0 C1350 38.94 1350 77.88 1350 118 C904.5 118 459 118 0 118 C0 79.06 0 40.12 0 0 Z " fill="#FEFEFE" transform="translate(0,0)"/>
<path d="M0 0 C131.34 0 262.68 0 398 0 C398.0928125 96.586875 398.0928125 96.586875 398.1875 195.125 C398.21481201 215.4833252 398.24212402 235.84165039 398.27026367 256.81689453 C398.28381348 281.60913086 398.28381348 281.60913086 398.28633118 293.20236206 C398.28913476 301.32795805 398.30016446 309.45349253 398.31672668 317.57907104 C398.33578735 326.94420662 398.34451613 336.30928298 398.34033485 345.67443811 C398.33852313 350.46781594 398.34144824 355.2610613 398.35764539 360.05441499 C398.3721942 364.3861712 398.373003 368.71770068 398.36270332 373.04946709 C398.36142771 374.61794917 398.36526243 376.18644522 398.37464774 377.75489974 C398.38666841 379.88865056 398.38021071 382.02158309 398.36914349 384.15532112 C398.37085223 385.93355143 398.37085223 385.93355143 398.37259549 387.74770558 C397.82147625 392.55828994 396.51772178 395.76619753 392.72276968 398.8512302 C389.44108011 400.23581513 386.99726859 400.37714404 383.43568516 400.38031673 C382.78675477 400.38497665 382.13782438 400.38963657 381.46922943 400.3944377 C379.29158231 400.40640249 377.1145574 400.39698705 374.93690491 400.38768005 C373.36118818 400.39185234 371.78547446 400.39732927 370.20976633 400.40399987 C365.87718586 400.41848708 361.54479509 400.41419956 357.2122041 400.40683305 C352.54067696 400.40211178 347.86919149 400.41460199 343.19767761 400.42485046 C334.04486012 400.44206416 324.8921112 400.44287317 315.73928172 400.43763756 C308.30142016 400.43359947 300.8635789 400.43503512 293.42571831 400.44038582 C291.839051 400.44150845 291.839051 400.44150845 290.2203298 400.44265376 C288.07159785 400.44418521 285.92286591 400.44572356 283.77413397 400.44726873 C263.61469579 400.46100303 243.45529639 400.45554951 223.29585909 400.44408352 C204.84472528 400.43414975 186.39369172 400.44709267 167.94257338 400.47101771 C149.00562785 400.49538809 130.06872906 400.50502169 111.13176817 400.49836498 C100.49661464 400.49486823 89.86153825 400.49713491 79.22639656 400.51461601 C70.17308035 400.52931221 61.11989559 400.53000729 52.06658203 400.5125451 C47.44608864 400.50401147 42.82583032 400.501943 38.20534897 400.51719666 C33.97686368 400.53098358 29.74881616 400.52635836 25.52035659 400.50695742 C23.98945514 400.5031786 22.45851913 400.50617329 20.92764831 400.51656907 C18.84795484 400.52968919 16.76978352 400.51820301 14.69015598 400.50057125 C12.95700102 400.50041025 12.95700102 400.50041025 11.18883282 400.50024599 C7.1993202 399.8743939 5.0769824 398.59313101 2 396 C-0.23936812 392.16252836 -0.24890336 388.6626042 -0.24609566 384.27836895 C-0.24840315 383.61220386 -0.25071064 382.94603876 -0.25308805 382.25968685 C-0.25838667 380.02464235 -0.24940725 377.78988509 -0.24050903 375.55485535 C-0.24138393 373.9416497 -0.24313784 372.32844433 -0.24569702 370.71524048 C-0.2501894 366.27033088 -0.24214732 361.82551738 -0.23214546 357.38061999 C-0.2234254 352.51825718 -0.22633381 347.65589895 -0.2277813 342.79353046 C-0.22884558 333.35056764 -0.21960153 323.90764278 -0.20677864 314.46468972 C-0.19239277 303.54436783 -0.19078991 292.62406882 -0.18920898 281.70373535 C-0.17870332 252.86498421 -0.15078116 224.02624154 -0.125 195.1875 C-0.08375 130.775625 -0.0425 66.36375 0 0 Z " fill="#FCFCFC" transform="translate(901,221)"/>
<path d="M0 0 C1.40319423 -0.00576139 2.80638092 -0.01370264 4.20955181 -0.02363622 C8.06534223 -0.04453096 11.92051479 -0.0341829 15.77630758 -0.01870513 C19.93454289 -0.00740612 24.09267092 -0.02484709 28.25088501 -0.03860474 C36.39676667 -0.06085725 44.54241821 -0.05602704 52.68830895 -0.04154153 C59.30763659 -0.03025719 65.92689965 -0.0287149 72.54623413 -0.03416061 C73.48773589 -0.03492678 74.42923765 -0.03569294 75.39926976 -0.03648233 C77.31181345 -0.03808093 79.22435713 -0.03970199 81.13690078 -0.04134528 C99.07783872 -0.05560868 117.01864899 -0.0392008 134.959566 -0.01234345 C150.35925703 0.00999587 165.75875963 0.0061159 181.15844727 -0.01693726 C199.03445063 -0.04368484 216.91034206 -0.05423533 234.78636265 -0.03887594 C236.69193584 -0.03728316 238.59750905 -0.03571131 240.50308228 -0.03416061 C241.44070127 -0.03338924 242.37832026 -0.03261786 243.34435195 -0.03182311 C249.95700208 -0.02750298 256.56958131 -0.03479939 263.18222046 -0.04655838 C271.23905294 -0.06057035 279.29564181 -0.05681097 287.35244632 -0.03015466 C291.46452797 -0.0169988 295.57620322 -0.01189388 299.68828201 -0.02840042 C303.45115579 -0.04327694 307.21324568 -0.03515097 310.97604811 -0.00851266 C312.98526719 -0.00026298 314.99454049 -0.01662616 317.00370312 -0.03379881 C326.71958923 0.0725478 326.71958923 0.0725478 329.82718468 3.04895973 C331.45654015 5.53114608 332.15376949 6.69795164 332.17163086 9.61148071 C332.18739166 10.35575317 332.20315247 11.10002563 332.21939087 11.86685181 C332.20420914 13.05141968 332.20420914 13.05141968 332.1887207 14.25991821 C332.19350433 15.08443481 332.19828796 15.90895142 332.20321655 16.75845337 C332.20660943 18.49659134 332.19744973 20.23479365 332.17651367 21.97280884 C332.1497355 24.62725647 332.17627816 27.27747646 332.20825195 29.93179321 C332.20494774 31.62451084 332.19854126 33.31722585 332.1887207 35.00991821 C332.19884186 35.79963013 332.20896301 36.58934204 332.21939087 37.40298462 C332.20363007 38.14725708 332.18786926 38.89152954 332.17163086 39.65835571 C332.16765289 40.30723755 332.16367493 40.95611938 332.15957642 41.62466431 C331.10597995 44.96052138 329.52191259 46.93683022 326.5246582 48.63491821 C322.04355121 49.40995879 317.58701337 49.30862089 313.04931641 49.26983643 C311.64612218 49.27559782 310.24293549 49.28353907 308.8397646 49.29347265 C304.98397418 49.31436739 301.12880161 49.30401932 297.27300882 49.28854156 C293.11477352 49.27724254 288.95664549 49.29468352 284.7984314 49.30844116 C276.65254973 49.33069367 268.5068982 49.32586346 260.36100745 49.31137796 C253.74167982 49.30009361 247.12241676 49.29855132 240.50308228 49.30399704 C239.56158052 49.3047632 238.62007876 49.30552937 237.65004665 49.30631875 C235.73750295 49.30791735 233.82495928 49.30953842 231.91241562 49.31118171 C213.97147769 49.32544511 196.03066741 49.30903723 178.08975041 49.28217988 C162.69005937 49.25984056 147.29055678 49.26372052 131.89086914 49.28677368 C114.01486577 49.31352126 96.13897434 49.32407176 78.26295376 49.30871236 C76.35738057 49.30711959 74.45180736 49.30554774 72.54623413 49.30399704 C71.60861514 49.30322566 70.67099615 49.30245428 69.70496446 49.30165953 C63.09231433 49.2973394 56.4797351 49.30463582 49.86709595 49.31639481 C41.81026347 49.33040678 33.7536746 49.32664739 25.69687009 49.29999109 C21.58478844 49.28683522 17.47311319 49.28173031 13.36103439 49.29823685 C9.59816062 49.31311336 5.83607073 49.30498739 2.07326829 49.27834909 C0.06404922 49.27009941 -1.94522408 49.28646259 -3.95438671 49.30363524 C-13.67027282 49.19728862 -13.67027282 49.19728862 -16.77786827 46.22087669 C-18.40722375 43.73869035 -19.10445308 42.57188478 -19.12231445 39.65835571 C-19.13807526 38.91408325 -19.15383606 38.16981079 -19.17007446 37.40298462 C-19.15995331 36.61327271 -19.14983215 35.82356079 -19.1394043 35.00991821 C-19.14418793 34.18540161 -19.14897156 33.36088501 -19.15390015 32.51138306 C-19.15729302 30.77324509 -19.14813333 29.03504278 -19.12719727 27.29702759 C-19.10041909 24.64257996 -19.12696175 21.99235996 -19.15893555 19.33804321 C-19.15563134 17.64532558 -19.14922486 15.95261058 -19.1394043 14.25991821 C-19.14952545 13.4702063 -19.15964661 12.68049438 -19.17007446 11.86685181 C-19.15431366 11.12257935 -19.13855286 10.37830688 -19.12231445 9.61148071 C-19.11833649 8.96259888 -19.11435852 8.31371704 -19.11026001 7.64517212 C-16.25200062 -1.40454009 -7.9107406 -0.06761444 0 0 Z " fill="#4F39F6" transform="translate(943.475341796875,497.3650817871094)"/>
<path d="M0 0 C0.598125 0.78375 1.19625 1.5675 1.8125 2.375 C4.19242868 5.23091442 5.72467213 6.87199051 9.50297427 7.251233 C11.01706158 7.2521075 11.01706158 7.2521075 12.56173652 7.25299966 C13.72852144 7.25851915 14.89530635 7.26403864 16.09744838 7.26972538 C17.38794376 7.26561475 18.67843913 7.26150411 20.00804043 7.25726891 C21.391725 7.25996026 22.7754081 7.26352693 24.1590884 7.26789337 C27.98700584 7.2773959 31.81482868 7.27433643 35.64275091 7.26933783 C39.79752956 7.26608406 43.95228742 7.27434296 48.10705954 7.28115618 C55.3973354 7.29148702 62.68758468 7.29429465 69.97786713 7.29224396 C80.81854901 7.28920197 91.65920135 7.29750005 102.4998775 7.30799321 C122.98452632 7.32736636 143.46916516 7.33296265 163.95382207 7.33410732 C179.76798418 7.33502525 195.58214235 7.33913587 211.39630318 7.34550858 C215.94296139 7.34730357 220.48961961 7.3490832 225.03627783 7.35085833 C226.1664809 7.35130043 227.29668397 7.35174252 228.46113562 7.35219802 C260.26469082 7.36451163 292.06824464 7.37239861 323.87180233 7.37151146 C325.07162022 7.3714803 326.27143811 7.37144914 327.50761411 7.37141704 C333.5892547 7.37125082 339.67089529 7.37105274 345.75253587 7.37084763 C346.96044519 7.37080774 348.16835451 7.37076785 349.41286715 7.37072675 C351.8555549 7.37064587 354.29824266 7.37056228 356.74093042 7.37047596 C394.75853596 7.36925002 432.77610584 7.38426943 470.79370117 7.41162109 C513.47212579 7.44231308 556.15052698 7.45955536 598.82896334 7.45769465 C603.37593591 7.45754538 607.92290848 7.45744797 612.46988106 7.45738602 C613.58952375 7.45736271 614.70916645 7.4573394 615.86273771 7.45731538 C633.91450644 7.45725373 651.96624433 7.47004888 670.01800387 7.48725055 C688.14603818 7.50416817 706.27402715 7.50621131 724.40206497 7.4930319 C735.18361229 7.48561699 745.96502228 7.48937614 756.74655517 7.50891658 C763.93823212 7.520854 771.12980886 7.51839559 778.32148108 7.50397559 C782.42578093 7.49615944 786.52981368 7.4948118 790.63409542 7.51089029 C794.36298499 7.52537111 798.09138328 7.52166778 801.82025041 7.50304256 C803.80338301 7.49793938 805.78653586 7.51259135 807.76961604 7.52788812 C808.93890447 7.5183865 810.1081929 7.50888487 811.31291431 7.49909532 C812.32237362 7.49927176 813.33183292 7.49944821 814.3718819 7.49963 C817.73571944 6.86013281 818.89965875 5.65309196 821 3 C821.33 2.01 821.66 1.02 822 0 C822.66 0 823.32 0 824 0 C823.58565093 4.83407252 821.62206046 6.89537674 818 10 C814.88364762 11.03878413 812.73478404 11.12639527 809.46621293 11.12880117 C808.30567414 11.13207336 807.14513534 11.13534555 805.94942871 11.13871691 C804.66592241 11.13723328 803.38241611 11.13574966 802.06001568 11.13422108 C800.68375931 11.13617323 799.3075035 11.13856178 797.93124858 11.14134905 C794.12396304 11.1477692 790.31669855 11.14790907 786.50940864 11.14707164 C782.3769446 11.14724074 778.2444882 11.15314238 774.11202794 11.1583125 C765.90444592 11.16765388 757.6968693 11.17156313 749.48928262 11.17383147 C739.66308088 11.17678949 729.83688633 11.18548447 720.01068835 11.19424575 C696.25912585 11.21510628 672.50756209 11.22556199 648.75599256 11.23437535 C637.5257499 11.23857908 626.29550778 11.24380139 615.06526558 11.24905988 C576.64232086 11.26695037 538.21937599 11.28194807 499.79642773 11.28938007 C497.3835187 11.28985483 494.97060968 11.29033072 492.55770065 11.29080774 C490.76277934 11.2911623 490.76277934 11.2911623 488.93159698 11.29152403 C482.86870463 11.29272526 476.80581227 11.2939407 470.74291992 11.29516602 C469.53970992 11.29540617 468.33649993 11.29564632 467.09682902 11.29589374 C428.0663439 11.30379059 389.03588914 11.32723021 350.00541728 11.35972196 C308.7646377 11.39399122 267.52387589 11.41372846 226.28308183 11.41702431 C221.75910301 11.41744187 217.23512421 11.41792144 212.7111454 11.41844749 C211.04018253 11.41863228 211.04018253 11.41863228 209.33546283 11.4188208 C191.38078917 11.42115632 173.42615068 11.43683572 155.47148957 11.45728934 C137.43752098 11.47750801 119.40359478 11.48304343 101.36961695 11.47351871 C90.64625352 11.46828848 79.92303086 11.47425278 69.1996876 11.49605338 C62.04424643 11.50950525 54.88890276 11.50853446 47.73346075 11.49565142 C43.65149315 11.48871722 39.56979573 11.48821233 35.48785164 11.50521151 C31.7768904 11.52054046 28.06641817 11.51757493 24.35547194 11.49980123 C22.38676016 11.4951483 20.4180322 11.51019582 18.44937804 11.52596101 C12.02980848 11.47514854 7.82825748 11.43336228 3 7 C0.58363706 4.34200077 0 3.64705667 0 0 Z " fill="#F0F1F3" transform="translate(52,353)"/>
<path d="M0 0 C0.97893915 -0.00297112 1.95787831 -0.00594224 2.96648228 -0.0090034 C6.26763122 -0.01771912 9.56874401 -0.01920106 12.86990356 -0.02069092 C15.22821124 -0.02531702 17.58651817 -0.0303414 19.94482422 -0.03573608 C27.03639555 -0.05025306 34.12795914 -0.05624664 41.21954268 -0.0611316 C44.55728308 -0.06370769 47.89502215 -0.06749805 51.23276138 -0.07125092 C62.32465145 -0.08344452 73.41653958 -0.09374381 84.5084362 -0.09712601 C85.21858641 -0.09734557 85.92873662 -0.09756514 86.66040654 -0.09779136 C87.72821076 -0.09811878 87.72821076 -0.09811878 88.81758678 -0.09845281 C90.26015592 -0.09889628 91.70272505 -0.09934284 93.14529419 -0.09979248 C93.86086149 -0.10001391 94.57642879 -0.10023534 95.31367995 -0.10046348 C106.91182802 -0.10441259 118.50991329 -0.12186964 130.1080371 -0.145152 C142.00941285 -0.16885073 153.91075707 -0.18132717 165.8121568 -0.18249393 C172.49689117 -0.1834115 179.18155489 -0.18950154 185.86626816 -0.20731354 C192.15185572 -0.22373576 198.43728764 -0.22597824 204.72288895 -0.21717453 C207.03362188 -0.21640104 209.34436298 -0.22078767 211.65507507 -0.23063278 C214.80230177 -0.24325864 217.94896938 -0.23752649 221.09619141 -0.22705078 C222.01700339 -0.23510719 222.93781538 -0.24316359 223.88653076 -0.25146413 C230.02192308 -0.20348847 230.02192308 -0.20348847 233.21125984 1.47591019 C236.36089412 5.05740785 235.84203534 9.34297205 235.86795044 13.83721924 C235.88021667 15.01088799 235.88021667 15.01088799 235.89273071 16.20826721 C235.91754418 18.79763019 235.93408851 21.38693858 235.94851685 23.97637939 C235.95384052 24.86102497 235.9591642 25.74567055 235.9646492 26.65712357 C235.9913606 31.33775211 236.01074367 36.01835414 236.025177 40.69903564 C236.03852895 44.57329858 236.0664071 48.4470364 236.10720825 52.32110596 C236.15647985 56.99952312 236.18129089 61.67746313 236.18840408 66.35612869 C236.19512224 68.13834466 236.21035902 69.92054975 236.23429489 71.70261765 C236.26589566 74.1972695 236.26599183 76.69007625 236.25857544 79.18487549 C236.27498077 79.91959579 236.29138611 80.6543161 236.30828857 81.41130066 C236.26501793 84.96973528 235.83235674 86.92167445 233.74201393 89.82926941 C229.4650641 93.052282 226.22007099 92.83897935 220.99612427 92.77536011 C220.01532741 92.78316006 219.03453054 92.79096001 218.02401257 92.79899633 C214.73414348 92.81895634 211.44542598 92.80313541 208.1555481 92.78741455 C205.79841434 92.79418885 203.44128588 92.80309092 201.08416748 92.81396484 C194.67924179 92.83678668 188.27471816 92.82790958 181.86978531 92.81206942 C177.87041734 92.80318547 173.87107697 92.80485498 169.8717041 92.80952072 C169.20773847 92.81028689 168.54377283 92.81105305 167.85968703 92.81184243 C166.51084333 92.81344106 165.16199966 92.81506213 163.81315601 92.81670539 C151.16570963 92.83096234 138.51844448 92.81457112 125.87102783 92.78770356 C115.0194881 92.76536474 104.16821581 92.76924489 93.31668091 92.79229736 C80.71443561 92.81905644 68.11234913 92.82958905 55.51007938 92.81423604 C54.16620448 92.8126433 52.82232955 92.81107145 51.47845459 92.80952072 C50.81724662 92.80874934 50.15603866 92.80797797 49.47479409 92.80718321 C44.81577899 92.80286649 40.15692 92.81039624 35.4979248 92.82191849 C29.22692875 92.83634361 22.95643858 92.82637649 16.68549728 92.7974472 C14.38164485 92.79082603 12.07774998 92.79275153 9.77391434 92.80376053 C6.63337625 92.81738609 3.4944681 92.80033494 0.35403442 92.77536011 C-0.56181836 92.78651372 -1.47767115 92.79766732 -2.42127705 92.80915892 C-6.85317749 92.74060121 -8.75260989 92.57199765 -12.3910141 89.82842827 C-14.92208098 86.31043342 -15.01592681 83.39605731 -14.94015503 79.21661377 C-14.94570404 78.43387589 -14.95125305 77.651138 -14.95697021 76.84468079 C-14.96875029 74.26555541 -14.94450974 71.68819353 -14.91867065 69.10919189 C-14.91695902 67.31227702 -14.91702577 65.51535965 -14.91879272 63.71844482 C-14.91714042 59.95570936 -14.89845917 56.19357035 -14.86691284 52.43096924 C-14.82723542 47.61219783 -14.82286814 42.79420741 -14.83037567 37.97530365 C-14.83344785 34.2657559 -14.82131605 30.55638315 -14.804245 26.84687805 C-14.79722266 25.07030841 -14.79408953 23.29371894 -14.79493713 21.51713562 C-14.79313576 19.03248374 -14.77172573 16.54876087 -14.74484253 14.06427002 C-14.74777313 13.3326918 -14.75070374 12.60111359 -14.75372314 11.84736633 C-14.68055077 7.45569287 -14.0274888 4.63498198 -11.32492065 1.14044189 C-7.85264187 -0.5956975 -3.82261353 -0.00357973 0 0 Z M-10.88626862 3.95398712 C-12.98663959 7.14611838 -12.88363449 10.17935678 -12.84249878 13.87481689 C-12.84950806 14.64926147 -12.85651733 15.42370605 -12.86373901 16.22161865 C-12.88132564 18.77825921 -12.86969454 21.33379034 -12.85617065 23.89044189 C-12.85886539 25.66876437 -12.86274766 27.4470854 -12.86776733 29.22540283 C-12.87366326 32.95113157 -12.86509652 36.67647654 -12.84640503 40.40216064 C-12.82361524 45.17743476 -12.83673784 49.95180965 -12.86069489 54.72705078 C-12.8751504 58.39881158 -12.87054805 62.07035924 -12.86018372 65.74212646 C-12.85751574 67.50278835 -12.8607887 69.26346961 -12.87010193 71.02410889 C-12.88026373 73.48528277 -12.86477318 75.9450014 -12.84249878 78.40606689 C-12.8505957 79.13346069 -12.85869263 79.86085449 -12.86703491 80.61029053 C-12.81575519 83.66930938 -12.58361548 85.74727905 -10.88626862 88.32689667 C-7.01177516 91.07020574 -3.47624882 90.69379837 1.1645813 90.64837646 C2.62330265 90.65773641 2.62330265 90.65773641 4.11149311 90.66728544 C7.37902691 90.68327505 10.6458209 90.67058755 13.9133606 90.65802002 C16.25226274 90.66343847 18.59116147 90.67055956 20.93005371 90.67926025 C27.28947151 90.69752934 33.64863037 90.69041113 40.00805283 90.67774391 C45.98196507 90.66865886 51.95585332 90.6755848 57.92976487 90.68145269 C70.48272671 90.69286164 83.03557176 90.6797399 95.58851445 90.65825123 C106.36189406 90.64037991 117.13510128 90.64348393 127.90847778 90.66192627 C140.41620186 90.68332748 152.92382355 90.69176298 165.43156338 90.67947721 C172.05367289 90.67314945 178.67568623 90.67243272 185.29779053 90.68562317 C191.52274046 90.69715584 197.74736402 90.68920287 203.97227859 90.66604614 C206.26042768 90.66074527 208.5486041 90.66229622 210.8367424 90.6710968 C213.95339485 90.68198115 217.06899267 90.66837416 220.18557739 90.64837646 C221.55307617 90.6617608 221.55307617 90.6617608 222.94820118 90.67541552 C227.92204206 90.6280188 227.92204206 90.6280188 232.23642731 88.32689667 C234.33679828 85.13476541 234.23379318 82.10152701 234.19265747 78.40606689 C234.19966675 77.63162231 234.20667603 76.85717773 234.21389771 76.05926514 C234.23148434 73.50262458 234.21985323 70.94709345 234.20632935 68.39044189 C234.20902408 66.61211942 234.21290635 64.83379839 234.21792603 63.05548096 C234.22382196 59.32975222 234.21525521 55.60440725 234.19656372 51.87872314 C234.17377393 47.10344903 234.18689653 42.32907413 234.21085358 37.55383301 C234.22530909 33.88207221 234.22070674 30.21052455 234.21034241 26.53875732 C234.20767443 24.77809543 234.21094739 23.01741418 234.22026062 21.2567749 C234.23042242 18.79560102 234.21493187 16.33588239 234.19265747 13.87481689 C234.20075439 13.1474231 234.20885132 12.4200293 234.2171936 11.67059326 C234.16591388 8.61157441 233.93377417 6.53360474 232.23642731 3.95398712 C228.36193386 1.21067805 224.82640751 1.58708542 220.18557739 1.63250732 C219.21309649 1.62626736 218.2406156 1.6200274 217.23866558 1.61359835 C213.97113178 1.59760873 210.70433779 1.61029624 207.4367981 1.62286377 C205.09789595 1.61744532 202.75899722 1.61032423 200.42010498 1.60162354 C194.06068718 1.58335445 187.70152832 1.59047266 181.34210587 1.60313988 C175.36819362 1.61222493 169.39430537 1.60529899 163.42039382 1.5994311 C150.86743198 1.58802215 138.31458693 1.60114389 125.76164424 1.62263256 C114.98826463 1.64050388 104.21505741 1.63739986 93.44168091 1.61895752 C80.93395683 1.59755631 68.42633515 1.58912081 55.91859531 1.60140657 C49.2964858 1.60773434 42.67447246 1.60845107 36.05236816 1.59526062 C29.82741823 1.58372795 23.60279468 1.59168092 17.3778801 1.61483765 C15.08973102 1.62013852 12.80155459 1.61858757 10.51341629 1.60978699 C7.39676385 1.59890264 4.28116602 1.61250963 1.1645813 1.63250732 C0.25291545 1.62358444 -0.6587504 1.61466155 -1.59804249 1.60546827 C-6.57188337 1.65286499 -6.57188337 1.65286499 -10.88626862 3.95398712 Z " fill="#E5E7EB" transform="translate(353.3249206542969,244.85955810546875)"/>
<path d="M0 0 C0.97893915 -0.00297112 1.95787831 -0.00594224 2.96648228 -0.0090034 C6.26763122 -0.01771912 9.56874401 -0.01920106 12.86990356 -0.02069092 C15.22821124 -0.02531702 17.58651817 -0.0303414 19.94482422 -0.03573608 C27.03639555 -0.05025306 34.12795914 -0.05624664 41.21954268 -0.0611316 C44.55728308 -0.06370769 47.89502215 -0.06749805 51.23276138 -0.07125092 C62.32465145 -0.08344452 73.41653958 -0.09374381 84.5084362 -0.09712601 C85.21858641 -0.09734557 85.92873662 -0.09756514 86.66040654 -0.09779136 C87.72821076 -0.09811878 87.72821076 -0.09811878 88.81758678 -0.09845281 C90.26015592 -0.09889628 91.70272505 -0.09934284 93.14529419 -0.09979248 C93.86086149 -0.10001391 94.57642879 -0.10023534 95.31367995 -0.10046348 C106.91182802 -0.10441259 118.50991329 -0.12186964 130.1080371 -0.145152 C142.00941285 -0.16885073 153.91075707 -0.18132717 165.8121568 -0.18249393 C172.49689117 -0.1834115 179.18155489 -0.18950154 185.86626816 -0.20731354 C192.15185572 -0.22373576 198.43728764 -0.22597824 204.72288895 -0.21717453 C207.03362188 -0.21640104 209.34436298 -0.22078767 211.65507507 -0.23063278 C214.80230177 -0.24325864 217.94896938 -0.23752649 221.09619141 -0.22705078 C222.01700339 -0.23510719 222.93781538 -0.24316359 223.88653076 -0.25146413 C230.02192308 -0.20348847 230.02192308 -0.20348847 233.21125984 1.47591019 C236.36089412 5.05740785 235.84203534 9.34297205 235.86795044 13.83721924 C235.88021667 15.01088799 235.88021667 15.01088799 235.89273071 16.20826721 C235.91754418 18.79763019 235.93408851 21.38693858 235.94851685 23.97637939 C235.95384052 24.86102497 235.9591642 25.74567055 235.9646492 26.65712357 C235.9913606 31.33775211 236.01074367 36.01835414 236.025177 40.69903564 C236.03852895 44.57329858 236.0664071 48.4470364 236.10720825 52.32110596 C236.15647985 56.99952312 236.18129089 61.67746313 236.18840408 66.35612869 C236.19512224 68.13834466 236.21035902 69.92054975 236.23429489 71.70261765 C236.26589566 74.1972695 236.26599183 76.69007625 236.25857544 79.18487549 C236.27498077 79.91959579 236.29138611 80.6543161 236.30828857 81.41130066 C236.26501793 84.96973528 235.83235674 86.92167445 233.74201393 89.82926941 C229.4650641 93.052282 226.22007099 92.83897935 220.99612427 92.77536011 C220.01532741 92.78316006 219.03453054 92.79096001 218.02401257 92.79899633 C214.73414348 92.81895634 211.44542598 92.80313541 208.1555481 92.78741455 C205.79841434 92.79418885 203.44128588 92.80309092 201.08416748 92.81396484 C194.67924179 92.83678668 188.27471816 92.82790958 181.86978531 92.81206942 C177.87041734 92.80318547 173.87107697 92.80485498 169.8717041 92.80952072 C169.20773847 92.81028689 168.54377283 92.81105305 167.85968703 92.81184243 C166.51084333 92.81344106 165.16199966 92.81506213 163.81315601 92.81670539 C151.16570963 92.83096234 138.51844448 92.81457112 125.87102783 92.78770356 C115.0194881 92.76536474 104.16821581 92.76924489 93.31668091 92.79229736 C80.71443561 92.81905644 68.11234913 92.82958905 55.51007938 92.81423604 C54.16620448 92.8126433 52.82232955 92.81107145 51.47845459 92.80952072 C50.81724662 92.80874934 50.15603866 92.80797797 49.47479409 92.80718321 C44.81577899 92.80286649 40.15692 92.81039624 35.4979248 92.82191849 C29.22692875 92.83634361 22.95643858 92.82637649 16.68549728 92.7974472 C14.38164485 92.79082603 12.07774998 92.79275153 9.77391434 92.80376053 C6.63337625 92.81738609 3.4944681 92.80033494 0.35403442 92.77536011 C-0.56181836 92.78651372 -1.47767115 92.79766732 -2.42127705 92.80915892 C-6.85317749 92.74060121 -8.75260989 92.57199765 -12.3910141 89.82842827 C-14.92208098 86.31043342 -15.01592681 83.39605731 -14.94015503 79.21661377 C-14.94570404 78.43387589 -14.95125305 77.651138 -14.95697021 76.84468079 C-14.96875029 74.26555541 -14.94450974 71.68819353 -14.91867065 69.10919189 C-14.91695902 67.31227702 -14.91702577 65.51535965 -14.91879272 63.71844482 C-14.91714042 59.95570936 -14.89845917 56.19357035 -14.86691284 52.43096924 C-14.82723542 47.61219783 -14.82286814 42.79420741 -14.83037567 37.97530365 C-14.83344785 34.2657559 -14.82131605 30.55638315 -14.804245 26.84687805 C-14.79722266 25.07030841 -14.79408953 23.29371894 -14.79493713 21.51713562 C-14.79313576 19.03248374 -14.77172573 16.54876087 -14.74484253 14.06427002 C-14.74777313 13.3326918 -14.75070374 12.60111359 -14.75372314 11.84736633 C-14.68055077 7.45569287 -14.0274888 4.63498198 -11.32492065 1.14044189 C-7.85264187 -0.5956975 -3.82261353 -0.00357973 0 0 Z M-10.88626862 3.95398712 C-12.98663959 7.14611838 -12.88363449 10.17935678 -12.84249878 13.87481689 C-12.84950806 14.64926147 -12.85651733 15.42370605 -12.86373901 16.22161865 C-12.88132564 18.77825921 -12.86969454 21.33379034 -12.85617065 23.89044189 C-12.85886539 25.66876437 -12.86274766 27.4470854 -12.86776733 29.22540283 C-12.87366326 32.95113157 -12.86509652 36.67647654 -12.84640503 40.40216064 C-12.82361524 45.17743476 -12.83673784 49.95180965 -12.86069489 54.72705078 C-12.8751504 58.39881158 -12.87054805 62.07035924 -12.86018372 65.74212646 C-12.85751574 67.50278835 -12.8607887 69.26346961 -12.87010193 71.02410889 C-12.88026373 73.48528277 -12.86477318 75.9450014 -12.84249878 78.40606689 C-12.8505957 79.13346069 -12.85869263 79.86085449 -12.86703491 80.61029053 C-12.81575519 83.66930938 -12.58361548 85.74727905 -10.88626862 88.32689667 C-7.01177516 91.07020574 -3.47624882 90.69379837 1.1645813 90.64837646 C2.62330265 90.65773641 2.62330265 90.65773641 4.11149311 90.66728544 C7.37902691 90.68327505 10.6458209 90.67058755 13.9133606 90.65802002 C16.25226274 90.66343847 18.59116147 90.67055956 20.93005371 90.67926025 C27.28947151 90.69752934 33.64863037 90.69041113 40.00805283 90.67774391 C45.98196507 90.66865886 51.95585332 90.6755848 57.92976487 90.68145269 C70.48272671 90.69286164 83.03557176 90.6797399 95.58851445 90.65825123 C106.36189406 90.64037991 117.13510128 90.64348393 127.90847778 90.66192627 C140.41620186 90.68332748 152.92382355 90.69176298 165.43156338 90.67947721 C172.05367289 90.67314945 178.67568623 90.67243272 185.29779053 90.68562317 C191.52274046 90.69715584 197.74736402 90.68920287 203.97227859 90.66604614 C206.26042768 90.66074527 208.5486041 90.66229622 210.8367424 90.6710968 C213.95339485 90.68198115 217.06899267 90.66837416 220.18557739 90.64837646 C221.55307617 90.6617608 221.55307617 90.6617608 222.94820118 90.67541552 C227.92204206 90.6280188 227.92204206 90.6280188 232.23642731 88.32689667 C234.33679828 85.13476541 234.23379318 82.10152701 234.19265747 78.40606689 C234.19966675 77.63162231 234.20667603 76.85717773 234.21389771 76.05926514 C234.23148434 73.50262458 234.21985323 70.94709345 234.20632935 68.39044189 C234.20902408 66.61211942 234.21290635 64.83379839 234.21792603 63.05548096 C234.22382196 59.32975222 234.21525521 55.60440725 234.19656372 51.87872314 C234.17377393 47.10344903 234.18689653 42.32907413 234.21085358 37.55383301 C234.22530909 33.88207221 234.22070674 30.21052455 234.21034241 26.53875732 C234.20767443 24.77809543 234.21094739 23.01741418 234.22026062 21.2567749 C234.23042242 18.79560102 234.21493187 16.33588239 234.19265747 13.87481689 C234.20075439 13.1474231 234.20885132 12.4200293 234.2171936 11.67059326 C234.16591388 8.61157441 233.93377417 6.53360474 232.23642731 3.95398712 C228.36193386 1.21067805 224.82640751 1.58708542 220.18557739 1.63250732 C219.21309649 1.62626736 218.2406156 1.6200274 217.23866558 1.61359835 C213.97113178 1.59760873 210.70433779 1.61029624 207.4367981 1.62286377 C205.09789595 1.61744532 202.75899722 1.61032423 200.42010498 1.60162354 C194.06068718 1.58335445 187.70152832 1.59047266 181.34210587 1.60313988 C175.36819362 1.61222493 169.39430537 1.60529899 163.42039382 1.5994311 C150.86743198 1.58802215 138.31458693 1.60114389 125.76164424 1.62263256 C114.98826463 1.64050388 104.21505741 1.63739986 93.44168091 1.61895752 C80.93395683 1.59755631 68.42633515 1.58912081 55.91859531 1.60140657 C49.2964858 1.60773434 42.67447246 1.60845107 36.05236816 1.59526062 C29.82741823 1.58372795 23.60279468 1.59168092 17.3778801 1.61483765 C15.08973102 1.62013852 12.80155459 1.61858757 10.51341629 1.60978699 C7.39676385 1.59890264 4.28116602 1.61250963 1.1645813 1.63250732 C0.25291545 1.62358444 -0.6587504 1.61466155 -1.59804249 1.60546827 C-6.57188337 1.65286499 -6.57188337 1.65286499 -10.88626862 3.95398712 Z " fill="#E5E7EB" transform="translate(91.32492065429688,244.85955810546875)"/>
<path d="M0 0 C1.87171875 -0.00386719 1.87171875 -0.00386719 3.78125 -0.0078125 C5.74578125 0.00378906 5.74578125 0.00378906 7.75 0.015625 C9.0596875 0.00789063 10.369375 0.00015625 11.71875 -0.0078125 C12.9665625 -0.00523437 14.214375 -0.00265625 15.5 0 C16.64984375 0.00225586 17.7996875 0.00451172 18.984375 0.00683594 C21.75 0.265625 21.75 0.265625 23.75 2.265625 C24.00878906 5.03125 24.00878906 5.03125 24.015625 8.515625 C24.01949219 10.38734375 24.01949219 10.38734375 24.0234375 12.296875 C24.01570313 13.6065625 24.00796875 14.91625 24 16.265625 C24.01160156 18.23015625 24.01160156 18.23015625 24.0234375 20.234375 C24.02085938 21.4821875 24.01828125 22.73 24.015625 24.015625 C24.01336914 25.16546875 24.01111328 26.3153125 24.00878906 27.5 C23.75 30.265625 23.75 30.265625 21.75 32.265625 C18.984375 32.52441406 18.984375 32.52441406 15.5 32.53125 C13.62828125 32.53511719 13.62828125 32.53511719 11.71875 32.5390625 C9.75421875 32.52746094 9.75421875 32.52746094 7.75 32.515625 C6.4403125 32.52335937 5.130625 32.53109375 3.78125 32.5390625 C2.5334375 32.53648437 1.285625 32.53390625 0 32.53125 C-1.72476562 32.52786621 -1.72476562 32.52786621 -3.484375 32.52441406 C-6.25 32.265625 -6.25 32.265625 -8.25 30.265625 C-8.50878906 27.5 -8.50878906 27.5 -8.515625 24.015625 C-8.51820312 22.7678125 -8.52078125 21.52 -8.5234375 20.234375 C-8.51570313 18.9246875 -8.50796875 17.615 -8.5 16.265625 C-8.50773437 14.9559375 -8.51546875 13.64625 -8.5234375 12.296875 C-8.52085938 11.0490625 -8.51828125 9.80125 -8.515625 8.515625 C-8.51336914 7.36578125 -8.51111328 6.2159375 -8.50878906 5.03125 C-7.98907396 -0.52283747 -4.76672627 0.00935176 0 0 Z " fill="#F9EBEC" transform="translate(1239.25,342.734375)"/>
<path d="M0 0 C1.87171875 -0.00386719 1.87171875 -0.00386719 3.78125 -0.0078125 C5.74578125 0.00378906 5.74578125 0.00378906 7.75 0.015625 C9.0596875 0.00789063 10.369375 0.00015625 11.71875 -0.0078125 C12.9665625 -0.00523437 14.214375 -0.00265625 15.5 0 C16.64984375 0.00225586 17.7996875 0.00451172 18.984375 0.00683594 C21.75 0.265625 21.75 0.265625 23.75 2.265625 C24.00878906 5.03125 24.00878906 5.03125 24.015625 8.515625 C24.01949219 10.38734375 24.01949219 10.38734375 24.0234375 12.296875 C24.01570313 13.6065625 24.00796875 14.91625 24 16.265625 C24.01160156 18.23015625 24.01160156 18.23015625 24.0234375 20.234375 C24.02085938 21.4821875 24.01828125 22.73 24.015625 24.015625 C24.01336914 25.16546875 24.01111328 26.3153125 24.00878906 27.5 C23.75 30.265625 23.75 30.265625 21.75 32.265625 C18.984375 32.52441406 18.984375 32.52441406 15.5 32.53125 C13.62828125 32.53511719 13.62828125 32.53511719 11.71875 32.5390625 C9.75421875 32.52746094 9.75421875 32.52746094 7.75 32.515625 C6.4403125 32.52335937 5.130625 32.53109375 3.78125 32.5390625 C2.5334375 32.53648437 1.285625 32.53390625 0 32.53125 C-1.72476562 32.52786621 -1.72476562 32.52786621 -3.484375 32.52441406 C-6.25 32.265625 -6.25 32.265625 -8.25 30.265625 C-8.50878906 27.5 -8.50878906 27.5 -8.515625 24.015625 C-8.51820312 22.7678125 -8.52078125 21.52 -8.5234375 20.234375 C-8.51570313 18.9246875 -8.50796875 17.615 -8.5 16.265625 C-8.50773437 14.9559375 -8.51546875 13.64625 -8.5234375 12.296875 C-8.52085938 11.0490625 -8.51828125 9.80125 -8.515625 8.515625 C-8.51336914 7.36578125 -8.51111328 6.2159375 -8.50878906 5.03125 C-7.98907396 -0.52283747 -4.76672627 0.00935176 0 0 Z " fill="#F1F2F4" transform="translate(1199.25,342.734375)"/>
<path d="M0 0 C1.87171875 -0.00386719 1.87171875 -0.00386719 3.78125 -0.0078125 C5.74578125 0.00378906 5.74578125 0.00378906 7.75 0.015625 C9.0596875 0.00789063 10.369375 0.00015625 11.71875 -0.0078125 C12.9665625 -0.00523437 14.214375 -0.00265625 15.5 0 C16.64984375 0.00225586 17.7996875 0.00451172 18.984375 0.00683594 C21.75 0.265625 21.75 0.265625 23.75 2.265625 C24.00878906 5.03125 24.00878906 5.03125 24.015625 8.515625 C24.01949219 10.38734375 24.01949219 10.38734375 24.0234375 12.296875 C24.01570313 13.6065625 24.00796875 14.91625 24 16.265625 C24.01160156 18.23015625 24.01160156 18.23015625 24.0234375 20.234375 C24.02085938 21.4821875 24.01828125 22.73 24.015625 24.015625 C24.01336914 25.16546875 24.01111328 26.3153125 24.00878906 27.5 C23.75 30.265625 23.75 30.265625 21.75 32.265625 C18.984375 32.52441406 18.984375 32.52441406 15.5 32.53125 C13.62828125 32.53511719 13.62828125 32.53511719 11.71875 32.5390625 C9.75421875 32.52746094 9.75421875 32.52746094 7.75 32.515625 C6.4403125 32.52335937 5.130625 32.53109375 3.78125 32.5390625 C2.5334375 32.53648437 1.285625 32.53390625 0 32.53125 C-1.72476562 32.52786621 -1.72476562 32.52786621 -3.484375 32.52441406 C-6.25 32.265625 -6.25 32.265625 -8.25 30.265625 C-8.50878906 27.5 -8.50878906 27.5 -8.515625 24.015625 C-8.51820312 22.7678125 -8.52078125 21.52 -8.5234375 20.234375 C-8.51570313 18.9246875 -8.50796875 17.615 -8.5 16.265625 C-8.50773437 14.9559375 -8.51546875 13.64625 -8.5234375 12.296875 C-8.52085938 11.0490625 -8.51828125 9.80125 -8.515625 8.515625 C-8.51336914 7.36578125 -8.51111328 6.2159375 -8.50878906 5.03125 C-7.98907396 -0.52283747 -4.76672627 0.00935176 0 0 Z " fill="#F2F3F5" transform="translate(1159.25,342.734375)"/>
<path d="M0 0 C1.87171875 -0.00386719 1.87171875 -0.00386719 3.78125 -0.0078125 C5.74578125 0.00378906 5.74578125 0.00378906 7.75 0.015625 C9.0596875 0.00789063 10.369375 0.00015625 11.71875 -0.0078125 C12.9665625 -0.00523437 14.214375 -0.00265625 15.5 0 C16.64984375 0.00225586 17.7996875 0.00451172 18.984375 0.00683594 C21.75 0.265625 21.75 0.265625 23.75 2.265625 C24.00878906 5.03125 24.00878906 5.03125 24.015625 8.515625 C24.01949219 10.38734375 24.01949219 10.38734375 24.0234375 12.296875 C24.01570313 13.6065625 24.00796875 14.91625 24 16.265625 C24.01160156 18.23015625 24.01160156 18.23015625 24.0234375 20.234375 C24.02085938 21.4821875 24.01828125 22.73 24.015625 24.015625 C24.01336914 25.16546875 24.01111328 26.3153125 24.00878906 27.5 C23.75 30.265625 23.75 30.265625 21.75 32.265625 C18.984375 32.52441406 18.984375 32.52441406 15.5 32.53125 C13.62828125 32.53511719 13.62828125 32.53511719 11.71875 32.5390625 C9.75421875 32.52746094 9.75421875 32.52746094 7.75 32.515625 C6.4403125 32.52335937 5.130625 32.53109375 3.78125 32.5390625 C2.5334375 32.53648437 1.285625 32.53390625 0 32.53125 C-1.72476562 32.52786621 -1.72476562 32.52786621 -3.484375 32.52441406 C-6.25 32.265625 -6.25 32.265625 -8.25 30.265625 C-8.50878906 27.5 -8.50878906 27.5 -8.515625 24.015625 C-8.51820312 22.7678125 -8.52078125 21.52 -8.5234375 20.234375 C-8.51570313 18.9246875 -8.50796875 17.615 -8.5 16.265625 C-8.50773437 14.9559375 -8.51546875 13.64625 -8.5234375 12.296875 C-8.52085938 11.0490625 -8.51828125 9.80125 -8.515625 8.515625 C-8.51336914 7.36578125 -8.51111328 6.2159375 -8.50878906 5.03125 C-7.98907396 -0.52283747 -4.76672627 0.00935176 0 0 Z " fill="#F9EBEC" transform="translate(1239.25,262.734375)"/>
<path d="M0 0 C1.87171875 -0.00386719 1.87171875 -0.00386719 3.78125 -0.0078125 C5.74578125 0.00378906 5.74578125 0.00378906 7.75 0.015625 C9.0596875 0.00789063 10.369375 0.00015625 11.71875 -0.0078125 C12.9665625 -0.00523437 14.214375 -0.00265625 15.5 0 C16.64984375 0.00225586 17.7996875 0.00451172 18.984375 0.00683594 C21.75 0.265625 21.75 0.265625 23.75 2.265625 C24.00878906 5.03125 24.00878906 5.03125 24.015625 8.515625 C24.01949219 10.38734375 24.01949219 10.38734375 24.0234375 12.296875 C24.01570313 13.6065625 24.00796875 14.91625 24 16.265625 C24.01160156 18.23015625 24.01160156 18.23015625 24.0234375 20.234375 C24.02085938 21.4821875 24.01828125 22.73 24.015625 24.015625 C24.01336914 25.16546875 24.01111328 26.3153125 24.00878906 27.5 C23.75 30.265625 23.75 30.265625 21.75 32.265625 C18.984375 32.52441406 18.984375 32.52441406 15.5 32.53125 C13.62828125 32.53511719 13.62828125 32.53511719 11.71875 32.5390625 C9.75421875 32.52746094 9.75421875 32.52746094 7.75 32.515625 C6.4403125 32.52335937 5.130625 32.53109375 3.78125 32.5390625 C2.5334375 32.53648437 1.285625 32.53390625 0 32.53125 C-1.72476562 32.52786621 -1.72476562 32.52786621 -3.484375 32.52441406 C-6.25 32.265625 -6.25 32.265625 -8.25 30.265625 C-8.50878906 27.5 -8.50878906 27.5 -8.515625 24.015625 C-8.51820312 22.7678125 -8.52078125 21.52 -8.5234375 20.234375 C-8.51570313 18.9246875 -8.50796875 17.615 -8.5 16.265625 C-8.50773437 14.9559375 -8.51546875 13.64625 -8.5234375 12.296875 C-8.52085938 11.0490625 -8.51828125 9.80125 -8.515625 8.515625 C-8.51336914 7.36578125 -8.51111328 6.2159375 -8.50878906 5.03125 C-7.98907396 -0.52283747 -4.76672627 0.00935176 0 0 Z " fill="#F1F2F4" transform="translate(1199.25,262.734375)"/>
<path d="M0 0 C1.87171875 -0.00386719 1.87171875 -0.00386719 3.78125 -0.0078125 C5.74578125 0.00378906 5.74578125 0.00378906 7.75 0.015625 C9.0596875 0.00789063 10.369375 0.00015625 11.71875 -0.0078125 C12.9665625 -0.00523437 14.214375 -0.00265625 15.5 0 C16.64984375 0.00225586 17.7996875 0.00451172 18.984375 0.00683594 C21.75 0.265625 21.75 0.265625 23.75 2.265625 C24.00878906 5.03125 24.00878906 5.03125 24.015625 8.515625 C24.01949219 10.38734375 24.01949219 10.38734375 24.0234375 12.296875 C24.01570313 13.6065625 24.00796875 14.91625 24 16.265625 C24.01160156 18.23015625 24.01160156 18.23015625 24.0234375 20.234375 C24.02085938 21.4821875 24.01828125 22.73 24.015625 24.015625 C24.01336914 25.16546875 24.01111328 26.3153125 24.00878906 27.5 C23.75 30.265625 23.75 30.265625 21.75 32.265625 C18.984375 32.52441406 18.984375 32.52441406 15.5 32.53125 C13.62828125 32.53511719 13.62828125 32.53511719 11.71875 32.5390625 C9.75421875 32.52746094 9.75421875 32.52746094 7.75 32.515625 C6.4403125 32.52335937 5.130625 32.53109375 3.78125 32.5390625 C2.5334375 32.53648437 1.285625 32.53390625 0 32.53125 C-1.72476562 32.52786621 -1.72476562 32.52786621 -3.484375 32.52441406 C-6.25 32.265625 -6.25 32.265625 -8.25 30.265625 C-8.50878906 27.5 -8.50878906 27.5 -8.515625 24.015625 C-8.51820312 22.7678125 -8.52078125 21.52 -8.5234375 20.234375 C-8.51570313 18.9246875 -8.50796875 17.615 -8.5 16.265625 C-8.50773437 14.9559375 -8.51546875 13.64625 -8.5234375 12.296875 C-8.52085938 11.0490625 -8.51828125 9.80125 -8.515625 8.515625 C-8.51336914 7.36578125 -8.51111328 6.2159375 -8.50878906 5.03125 C-7.98907396 -0.52283747 -4.76672627 0.00935176 0 0 Z " fill="#F2F3F5" transform="translate(1159.25,262.734375)"/>
<path d="M0 0 C0.8353125 1.1446875 0.8353125 1.1446875 1.6875 2.3125 C4.64927724 5.75456544 7.16958096 7.74848481 11.74105387 8.37664418 C12.74478919 8.37742408 13.7485245 8.37820398 14.78267604 8.37900752 C15.94781335 8.38718282 17.11295067 8.39535811 18.31339517 8.40378115 C19.59175818 8.39750445 20.8701212 8.39122775 22.18722248 8.38476086 C23.56592371 8.38868795 24.94462171 8.39392916 26.3233135 8.40036663 C30.12807532 8.41429863 33.93262171 8.4094873 37.73739271 8.40173779 C41.8704567 8.39660661 46.00347448 8.40881957 50.13652438 8.41886932 C57.38544269 8.43408945 64.6343014 8.43815444 71.88323402 8.43499184 C82.66217465 8.43033931 93.44104753 8.44280133 104.21997482 8.45882157 C122.35043848 8.48528077 140.48088686 8.49778358 158.61136818 8.50238609 C176.56788954 8.50698986 194.52438965 8.51776376 212.48090172 8.53681374 C214.15439991 8.53858393 214.15439991 8.53858393 215.86170614 8.54038988 C221.5273976 8.54641514 227.19308893 8.55255097 232.85878023 8.55872939 C273.00928211 8.60231433 313.15978349 8.63201138 353.31030273 8.65356445 C392.32072716 8.67453724 431.33113894 8.70178618 470.34155273 8.73754883 C471.54361011 8.73864831 472.74566749 8.73974778 473.98415085 8.74088058 C486.0554898 8.75192873 498.12682863 8.76310465 510.19816737 8.7743742 C534.78980033 8.79732953 559.38143404 8.81943191 583.97306824 8.84101868 C585.10380037 8.8420123 586.2345325 8.84300591 587.39952925 8.84402964 C662.93300914 8.91030611 738.46650388 8.9566983 814 9 C814 9.33 814 9.66 814 10 C737.22902404 10.05139918 660.45804601 10.09910025 583.6870575 10.12702942 C581.98372023 10.12765068 581.98372023 10.12765068 580.24597212 10.12828448 C555.56945389 10.13726242 530.89293548 10.14557308 506.21641679 10.15319599 C494.11571337 10.15693812 482.01500999 10.16082776 469.91430664 10.16479492 C468.71011723 10.1651872 467.50592781 10.16557948 466.26524781 10.16598364 C427.20773135 10.17877621 388.15022787 10.20131649 349.09271929 10.22889166 C308.96857307 10.25716856 268.84443405 10.27565148 228.72027804 10.28174497 C223.05787991 10.28260948 217.39548182 10.28358639 211.73308372 10.28463173 C210.61860155 10.284834 209.50411938 10.28503627 208.35586502 10.28524467 C190.38874665 10.28879498 172.42165046 10.30272302 154.45454115 10.3204961 C136.4079079 10.33812767 118.36129673 10.34491152 100.31465516 10.34050413 C89.58223164 10.33821593 78.8498887 10.34436314 68.11747967 10.36239263 C60.95717044 10.37360351 53.79691426 10.37401845 46.63660144 10.36549544 C42.5510129 10.36094611 38.46557724 10.36124181 34.3800048 10.37464955 C30.66692939 10.38674282 26.95412691 10.38515539 23.24105595 10.37241993 C21.26874485 10.36924943 19.29642715 10.38088169 17.32415089 10.39302543 C16.15758016 10.38628355 14.99100943 10.37954167 13.78908807 10.37259549 C12.78410491 10.37306343 11.77912175 10.37353137 10.74368455 10.37401349 C6.60707417 9.81011919 3.96226459 8.06180921 1.1875 5 C0 3 0 3 0 0 Z " fill="#E3E4E5" transform="translate(52,353)"/>
<path d="M0 0 C0.66 0.33 1.32 0.66 2 1 C1.77973572 3.97356773 0.78993281 5.2611305 -1.09581661 7.60526943 C-6.41178724 11.83311794 -13.89424207 10.68160419 -20.3419342 10.62818909 C-21.93573014 10.63323474 -23.5295204 10.64046371 -25.12329763 10.64968723 C-29.50128653 10.66863381 -33.87871761 10.65636238 -38.25669253 10.6389643 C-42.97863835 10.62560622 -47.70050171 10.64102172 -52.42243958 10.65278625 C-61.6717604 10.67117843 -70.92087016 10.66264018 -80.17018444 10.64469803 C-87.68574663 10.63068098 -95.20125147 10.6267773 -102.71682549 10.6301403 C-103.78585837 10.63061775 -104.85489125 10.63109519 -105.95631908 10.6315871 C-108.12792323 10.63261341 -110.29952737 10.63366877 -112.4711315 10.63475286 C-131.67912017 10.64332301 -150.88700684 10.62663423 -170.0949707 10.59692383 C-188.74182418 10.56808165 -207.38853072 10.5610044 -226.03540039 10.57641602 C-246.33257587 10.59316859 -266.62968156 10.59722232 -286.92685884 10.57970566 C-289.09023598 10.57786123 -291.25361313 10.5760265 -293.41699028 10.57420158 C-295.01369989 10.57283345 -295.01369989 10.57283345 -296.64266627 10.57143768 C-304.15149448 10.56582672 -311.66028869 10.56914463 -319.16911507 10.57574654 C-328.31650528 10.58346969 -337.46375072 10.57676375 -346.61111171 10.5515715 C-351.28008451 10.53905327 -355.94883166 10.53295803 -360.61781311 10.54411316 C-364.88939681 10.55412631 -369.16052973 10.54575877 -373.43205839 10.52253198 C-374.97972943 10.51735665 -376.52744061 10.5189633 -378.07509435 10.52792663 C-380.17501141 10.53907948 -382.27339299 10.52573586 -384.37321568 10.50615788 C-385.54064102 10.50496639 -386.70806636 10.50377491 -387.91086823 10.50254732 C-391.67234468 9.89062136 -393.33137706 8.67798798 -396 6 C-396.33 5.01 -396.66 4.02 -397 3 C-395 3 -395 3 -393 4.9375 C-392.01 5.9584375 -392.01 5.9584375 -391 7 C-388.20888888 8.39555556 -385.92648936 8.1280615 -382.80203533 8.13142776 C-381.83338265 8.13450672 -381.83338265 8.13450672 -380.84516123 8.13764787 C-378.66040182 8.14334565 -376.4757049 8.14185722 -374.29093933 8.14044189 C-372.7171022 8.14302394 -371.14326573 8.14603665 -369.56943017 8.1494453 C-365.22819747 8.15753742 -360.88698127 8.15930609 -356.54574192 8.16004276 C-351.87010494 8.16188948 -347.19447661 8.16943487 -342.5188446 8.17617798 C-332.28754983 8.18977748 -322.05625897 8.19578852 -311.82495666 8.20018864 C-305.44044076 8.20294831 -299.05592638 8.20718515 -292.67141151 8.21169281 C-275.00592614 8.22388754 -257.340442 8.23418648 -239.67495251 8.2375679 C-237.97800334 8.23789725 -237.97800334 8.23789725 -236.24677237 8.23823325 C-234.54568741 8.23856067 -234.54568741 8.23856067 -232.81023711 8.2388947 C-230.5120819 8.23933817 -228.21392669 8.23978474 -225.91577148 8.24023438 C-224.20581305 8.24056652 -224.20581305 8.24056652 -222.46131001 8.24090537 C-203.98346416 8.24485464 -185.50565772 8.26231168 -167.02782711 8.2855939 C-148.07178005 8.30928653 -129.11575279 8.3217688 -110.15969068 8.32293582 C-99.5105594 8.32385375 -88.86147946 8.32963574 -78.21236229 8.34775543 C-69.14542939 8.36312826 -60.07856369 8.36829359 -51.01162025 8.36001733 C-46.38320226 8.35610082 -41.75491972 8.35708903 -37.12651825 8.37107468 C-32.89187246 8.38375381 -28.65746471 8.38266914 -24.42281953 8.37048396 C-22.88847793 8.36851652 -21.35411981 8.37165337 -19.81980147 8.38032833 C-17.73807234 8.39135585 -15.65719299 8.38397989 -13.57548809 8.3719368 C-12.41804551 8.37253389 -11.26060293 8.37313097 -10.06808633 8.37374616 C-6.62407738 7.9542061 -4.75177881 7.0846528 -2 5 C-0.65310085 2.42900598 -0.65310085 2.42900598 0 0 Z " fill="#E4E5E6" transform="translate(1298,612)"/>
<path d="M0 0 C5.28 0 10.56 0 16 0 C16 2.64 16 5.28 16 8 C14.35 8.33 12.7 8.66 11 9 C10.855625 9.928125 10.71125 10.85625 10.5625 11.8125 C10 15 10 15 9 18 C5.37 18 1.74 18 -2 18 C-2.18175781 17.00097656 -2.36351563 16.00195312 -2.55078125 14.97265625 C-2.80214844 13.68230469 -3.05351563 12.39195313 -3.3125 11.0625 C-3.55613281 9.77472656 -3.79976563 8.48695312 -4.05078125 7.16015625 C-4.36402344 6.11730469 -4.67726562 5.07445312 -5 4 C-5.99 3.67 -6.98 3.34 -8 3 C-4.23312136 3 -3.08809695 3.23537317 0 5 C0 3.35 0 1.7 0 0 Z " fill="#897DF9" transform="translate(68,22)"/>
<path d="M0 0 C3.8425303 0.72047443 5.45767292 1.57152696 8 4.5625 C8.7975483 9.58705429 8.82360163 11.39976829 5.875 15.5625 C3 17.5625 3 17.5625 0 18.1875 C-4.10703441 17.33186783 -5.55401113 15.94371991 -8 12.5625 C-8.625 9.0625 -8.625 9.0625 -8 5.5625 C-5.54999553 2.17572911 -4.13607554 0.77551416 0 0 Z " fill="#5B47F6" transform="translate(185,24.4375)"/>
<path d="M0 0 C1.65 0 3.3 0 5 0 C6.32 3.3 7.64 6.6 9 10 C10.32 6.7 11.64 3.4 13 0 C14.98 0 16.96 0 19 0 C19 5.61 19 11.22 19 17 C17.68 17 16.36 17 15 17 C14.67 14.03 14.34 11.06 14 8 C13.01 10.97 12.02 13.94 11 17 C9.68 17 8.36 17 7 17 C6.01 14.03 5.02 11.06 4 8 C3.67 10.97 3.34 13.94 3 17 C2.01 17 1.02 17 0 17 C0 11.39 0 5.78 0 0 Z " fill="#634FF6" transform="translate(106,25)"/>
<path d="M0 0 C2.64 0 5.28 0 8 0 C8.33 0.66 8.66 1.32 9 2 C9.66 1.34 10.32 0.68 11 0 C13.5 -0.25 13.5 -0.25 16 0 C16.66 0.66 17.32 1.32 18 2 C17.77256695 4.95662966 17.38764062 6.55033688 15.4375 8.8125 C14.963125 9.204375 14.48875 9.59625 14 10 C15.32 10.33 16.64 10.66 18 11 C18 11.66 18 12.32 18 13 C6.27903139 13.77224537 6.27903139 13.77224537 1.6875 11 C-0.573795 6.97992 -0.38639587 4.55947131 0 0 Z " fill="#F3F5FD" transform="translate(358,299)"/>
<path d="M0 0 C1.93719378 -0.05406122 3.87481921 -0.09282025 5.8125 -0.125 C6.89144531 -0.14820313 7.97039063 -0.17140625 9.08203125 -0.1953125 C12 0 12 0 15 2 C15 1.34 15 0.68 15 0 C16.98 0 18.96 0 21 0 C19.68 0.33 18.36 0.66 17 1 C17 1.99 17 2.98 17 4 C18.32 4.33 19.64 4.66 21 5 C20.67 6.65 20.34 8.3 20 10 C17.4149133 10.13526616 14.83691248 10.23417653 12.25 10.3125 C11.52039063 10.35439453 10.79078125 10.39628906 10.0390625 10.43945312 C7.890625 10.48828125 7.890625 10.48828125 4 10 C1.484375 7.48046875 1.484375 7.48046875 0 5 C0.99 5 1.98 5 3 5 C3 4.34 3 3.68 3 3 C2.01 2.67 1.02 2.34 0 2 C0 1.34 0 0.68 0 0 Z " fill="#BCC0C6" transform="translate(937,286)"/>
<path d="M0 0 C8.625 -0.25 8.625 -0.25 12 2 C12.375 5.5 12.375 5.5 12 9 C8.77208445 11.1519437 7.71599191 11.20086443 4 11 C4 12.98 4 14.96 4 17 C2.68 17 1.36 17 0 17 C0 11.39 0 5.78 0 0 Z " fill="#5B47F6" transform="translate(163,25)"/>
<path d="M0 0 C0.99 0 1.98 0 3 0 C3 3.96 3 7.92 3 12 C1.39125 12.04125 -0.2175 12.0825 -1.875 12.125 C-2.77992187 12.14820313 -3.68484375 12.17140625 -4.6171875 12.1953125 C-7 12 -7 12 -9 10 C-9.3125 6.5 -9.3125 6.5 -9 3 C-5.72933122 0.81955415 -4.74581273 0.90142598 -1 1 C-0.67 0.67 -0.34 0.34 0 0 Z " fill="#BCBCBC" transform="translate(1074,569)"/>
<path d="M0 0 C0.66 0 1.32 0 2 0 C2 0.66 2 1.32 2 2 C3.32 2.33 4.64 2.66 6 3 C6 3.66 6 4.32 6 5 C7.32 5.33 8.64 5.66 10 6 C9.67 7.32 9.34 8.64 9 10 C7.741875 10.04125 6.48375 10.0825 5.1875 10.125 C4.47980469 10.14820312 3.77210938 10.17140625 3.04296875 10.1953125 C1 10 1 10 -2 8 C-2 8.66 -2 9.32 -2 10 C-3.66611905 10.042721 -5.33382885 10.04063832 -7 10 C-8 9 -8 9 -8.0625 5.9375 C-8.041875 4.968125 -8.02125 3.99875 -8 3 C-5.29120665 1.64560332 -2.99066732 1.93498549 0 2 C0 1.34 0 0.68 0 0 Z " fill="#BFC3CC" transform="translate(232,88)"/>
<path d="M0 0 C0 0.99 0 1.98 0 3 C-1.98 3 -3.96 3 -6 3 C-4.66667905 6.99996286 -2.5042173 7.83782337 1 10 C0.25 14.75 0.25 14.75 -2 17 C-5.625 17.125 -5.625 17.125 -9 17 C-9.33 15.68 -9.66 14.36 -10 13 C-7.69 13.33 -5.38 13.66 -3 14 C-3 13.01 -3 12.02 -3 11 C-3.969375 10.690625 -4.93875 10.38125 -5.9375 10.0625 C-9 9 -9 9 -10 8 C-10.25 5.0625 -10.25 5.0625 -10 2 C-6.3558226 -0.4294516 -4.28758728 -0.16179575 0 0 Z " fill="#5945F6" transform="translate(206,25)"/>
<path d="M0 0 C0.99 0 1.98 0 3 0 C3.33 1.65 3.66 3.3 4 5 C5.32 4.67 6.64 4.34 8 4 C6.515 6.475 6.515 6.475 5 9 C5.66 9 6.32 9 7 9 C7.33 9.99 7.66 10.98 8 12 C7.01 12 6.02 12 5 12 C4.67 11.34 4.34 10.68 4 10 C3.67 10.66 3.34 11.32 3 12 C1.52093108 12.02689216 0.04172517 12.04634621 -1.4375 12.0625 C-2.67306641 12.07990234 -2.67306641 12.07990234 -3.93359375 12.09765625 C-6 12 -6 12 -7 11 C-7.04080783 9.00041636 -7.04254356 6.99954746 -7 5 C-3.535 4.505 -3.535 4.505 0 4 C0 2.68 0 1.36 0 0 Z " fill="#A99EFA" transform="translate(1101,516)"/>
<path d="M0 0 C1 1 1 1 1.25 4.875 C1.2073067 7.517241 1.14785737 8.7431951 -0.1875 11.0625 C-2.76280093 12.3945522 -4.29717396 11.85352401 -7 11 C-8 10 -8 10 -8.25 6.125 C-8.2073067 3.482759 -8.14785737 2.2568049 -6.8125 -0.0625 C-4.23719907 -1.3945522 -2.70282604 -0.85352401 0 0 Z " fill="#252525" transform="translate(1273,463)"/>
<path d="M0 0 C2.375 0.75 2.375 0.75 3.375 1.75 C3.54296875 3.74609375 3.54296875 3.74609375 3.5625 6.1875 C3.57667969 6.99058594 3.59085937 7.79367187 3.60546875 8.62109375 C3.375 10.75 3.375 10.75 1.375 12.75 C-1.75 12.375 -1.75 12.375 -4.625 11.75 C-4.87454005 10.31589632 -5.09892642 8.87739928 -5.3125 7.4375 C-5.44011719 6.63699219 -5.56773437 5.83648437 -5.69921875 5.01171875 C-5.625 2.75 -5.625 2.75 -4.30859375 0.94140625 C-2.625 -0.25 -2.625 -0.25 0 0 Z " fill="#704EF6" transform="translate(398.625,299.25)"/>
<path d="M0 0 C2.375 0.75 2.375 0.75 3.375 1.75 C3.54296875 3.74609375 3.54296875 3.74609375 3.5625 6.1875 C3.57667969 6.99058594 3.59085938 7.79367187 3.60546875 8.62109375 C3.375 10.75 3.375 10.75 1.375 12.75 C-1.75 12.375 -1.75 12.375 -4.625 11.75 C-4.87454005 10.31589632 -5.09892642 8.87739928 -5.3125 7.4375 C-5.44011719 6.63699219 -5.56773437 5.83648437 -5.69921875 5.01171875 C-5.625 2.75 -5.625 2.75 -4.30859375 0.94140625 C-2.625 -0.25 -2.625 -0.25 0 0 Z " fill="#704EF6" transform="translate(136.625,299.25)"/>
<path d="M0 0 C2.375 0.75 2.375 0.75 3.375 1.75 C3.73590226 9.20864662 3.73590226 9.20864662 1.375 12.75 C-1.595 12.255 -1.595 12.255 -4.625 11.75 C-4.87454005 10.31589632 -5.09892642 8.87739928 -5.3125 7.4375 C-5.44011719 6.63699219 -5.56773438 5.83648437 -5.69921875 5.01171875 C-5.625 2.75 -5.625 2.75 -4.30859375 0.94140625 C-2.625 -0.25 -2.625 -0.25 0 0 Z " fill="#212121" transform="translate(1244.625,462.25)"/>
<path d="M0 0 C3.29714793 0.32971479 4.6226839 0.6226839 7 3 C7.38080215 6.50337981 7.40245078 8.36278626 5.5 11.375 C5.005 11.91125 4.51 12.4475 4 13 C-0.875 12.125 -0.875 12.125 -2 11 C-2.16796875 9.00390625 -2.16796875 9.00390625 -2.1875 6.5625 C-2.20167969 5.75941406 -2.21585937 4.95632813 -2.23046875 4.12890625 C-2 2 -2 2 0 0 Z " fill="#583BF6" transform="translate(406,299)"/>
<path d="M0 0 C3.29714793 0.32971479 4.6226839 0.6226839 7 3 C7.38080215 6.50337981 7.40245078 8.36278626 5.5 11.375 C5.005 11.91125 4.51 12.4475 4 13 C-0.875 12.125 -0.875 12.125 -2 11 C-2.16796875 9.00390625 -2.16796875 9.00390625 -2.1875 6.5625 C-2.20167969 5.75941406 -2.21585938 4.95632813 -2.23046875 4.12890625 C-2 2 -2 2 0 0 Z " fill="#583BF6" transform="translate(144,299)"/>
<path d="M0 0 C0.66 0 1.32 0 2 0 C2 4.95 2 9.9 2 15 C-4.0546875 15.1953125 -4.0546875 15.1953125 -6 15 C-6.66 14.34 -7.32 13.68 -8 13 C-7.625 9.375 -7.625 9.375 -7 6 C-2.25 4.875 -2.25 4.875 0 6 C0 4.02 0 2.04 0 0 Z " fill="#403D4A" transform="translate(116,175)"/>
<path d="M0 0 C7.71484375 -0.09765625 7.71484375 -0.09765625 10 0 C11 1 11 1 11.09765625 3.50390625 C11.08605469 4.51324219 11.07445312 5.52257813 11.0625 6.5625 C11.05347656 7.57441406 11.04445312 8.58632813 11.03515625 9.62890625 C11.02355469 10.41136719 11.01195312 11.19382812 11 12 C10.01 12 9.02 12 8 12 C7.67 9.36 7.34 6.72 7 4 C6.01 3.67 5.02 3.34 4 3 C4 5.97 4 8.94 4 12 C2.68 12 1.36 12 0 12 C0 8.04 0 4.08 0 0 Z " fill="#5B47F6" transform="translate(135,30)"/>
<path d="M0 0 C2 2 2 2 2.25 5.5 C2 9 2 9 0 11 C-3.625 10.625 -3.625 10.625 -7 10 C-8.33359073 3.57451737 -8.33359073 3.57451737 -6.875 1.0625 C-4.403308 -0.33812547 -2.79844834 -0.35877543 0 0 Z " fill="#6355F6" transform="translate(297,87)"/>
<path d="M0 0 C4.55555556 0.55555556 4.55555556 0.55555556 6 2 C6.16796875 3.99609375 6.16796875 3.99609375 6.1875 6.4375 C6.20167969 7.24058594 6.21585938 8.04367187 6.23046875 8.87109375 C6 11 6 11 4 13 C-0.55555556 12.44444444 -0.55555556 12.44444444 -2 11 C-2.16796875 9.00390625 -2.16796875 9.00390625 -2.1875 6.5625 C-2.20167969 5.75941406 -2.21585938 4.95632813 -2.23046875 4.12890625 C-2 2 -2 2 0 0 Z " fill="#0B0B0B" transform="translate(1257,462)"/>
<path d="M0 0 C5.42857143 -0.36190476 5.42857143 -0.36190476 7.875 1.1875 C9.40659584 3.65507108 9.42822025 5.14519831 9 8 C7.875 9.8125 7.875 9.8125 6 11 C2.8125 11.1875 2.8125 11.1875 0 11 C0 7.37 0 3.74 0 0 Z " fill="#B8B9C4" transform="translate(69,87)"/>
<path d="M0 0 C0.99 0.33 1.98 0.66 3 1 C2.01 1.495 2.01 1.495 1 2 C4.68266103 1.40049704 8.34543185 0.75241109 12 0 C12.66 1.32 13.32 2.64 14 4 C12.02 4 10.04 4 8 4 C8 4.66 8 5.32 8 6 C9.65 6 11.3 6 13 6 C13 6.66 13 7.32 13 8 C10.87527424 8.05386629 8.75016348 8.09273071 6.625 8.125 C4.84996094 8.15980469 4.84996094 8.15980469 3.0390625 8.1953125 C0 8 0 8 -2 6 C-1.44444444 1.44444444 -1.44444444 1.44444444 0 0 Z " fill="#C9CBD0" transform="translate(964,267)"/>
<path d="M0 0 C0.66 0 1.32 0 2 0 C2 0.66 2 1.32 2 2 C3.32 2.33 4.64 2.66 6 3 C6 3.66 6 4.32 6 5 C7.32 5.33 8.64 5.66 10 6 C9.67 7.32 9.34 8.64 9 10 C2.84765625 10.09765625 2.84765625 10.09765625 1 10 C0 9 0 9 -0.0625 5.9375 C-0.041875 4.968125 -0.02125 3.99875 0 3 C-1.32 3 -2.64 3 -4 3 C-4 5.31 -4 7.62 -4 10 C-4.66 10 -5.32 10 -6 10 C-6 7.36 -6 4.72 -6 2 C-4.02 2 -2.04 2 0 2 C0 1.34 0 0.68 0 0 Z " fill="#C9C6C7" transform="translate(388,88)"/>
<path d="M0 0 C0.99 0.33 1.98 0.66 3 1 C2.01 1.495 2.01 1.495 1 2 C3.95643988 1.51871909 6.88786644 1.02491857 9.8125 0.375 C10.8953125 0.189375 10.8953125 0.189375 12 0 C13 1 13 1 13.0625 4.5625 C13.041875 5.696875 13.02125 6.83125 13 8 C12.34 7.34 11.68 6.68 11 6 C11.33 5.34 11.66 4.68 12 4 C11.01 4.66 10.02 5.32 9 6 C9.33 6.66 9.66 7.32 10 8 C8.37536158 8.05395478 6.75021459 8.09277195 5.125 8.125 C4.22007812 8.14820313 3.31515625 8.17140625 2.3828125 8.1953125 C0 8 0 8 -2 6 C-1.44444444 1.44444444 -1.44444444 1.44444444 0 0 Z " fill="#D3D5D8" transform="translate(945,347)"/>
<path d="M0 0 C2.5 0.25 2.5 0.25 4.5 2.25 C4.75 5.25 4.75 5.25 4.5 8.25 C2.5 10.25 2.5 10.25 0.0625 10.5625 C-2.5 10.25 -2.5 10.25 -4.375 9.0625 C-5.5 7.25 -5.5 7.25 -5.3125 4.6875 C-4.22827241 1.43481722 -3.47807945 0.34780795 0 0 Z " fill="#4A3734" transform="translate(101.5,179.75)"/>
<path d="M0 0 C4.55555556 0.55555556 4.55555556 0.55555556 6 2 C6.1875 5.4375 6.1875 5.4375 6 9 C5.34 9.66 4.68 10.32 4 11 C-0.55555556 10.44444444 -0.55555556 10.44444444 -2 9 C-2.1875 5.5625 -2.1875 5.5625 -2 2 C-1.34 1.34 -0.68 0.68 0 0 Z " fill="#F7F7FE" transform="translate(183,28)"/>
<path d="M0 0 C2.875 0.6875 2.875 0.6875 3.875 1.6875 C4.125 4.125 4.125 4.125 3.875 6.6875 C0.875 8.6875 0.875 8.6875 -2.25 8.375 C-5.125 7.6875 -5.125 7.6875 -6.125 6.6875 C-6.375 4.25 -6.375 4.25 -6.125 1.6875 C-3.125 -0.3125 -3.125 -0.3125 0 0 Z " fill="#1A1A1A" transform="translate(940.125,466.3125)"/>
<path d="M0 0 C0.598125 0.309375 1.19625 0.61875 1.8125 0.9375 C4.08956772 2.10209704 4.08956772 2.10209704 7 3 C7 3.66 7 4.32 7 5 C6.34 5 5.68 5 5 5 C5.33 7.31 5.66 9.62 6 12 C9.3 12 12.6 12 16 12 C16.33 10.02 16.66 8.04 17 6 C17.66 6.33 18.32 6.66 19 7 C18.01 9.97 17.02 12.94 16 16 C12.37 16 8.74 16 5 16 C4.81824219 15.00097656 4.63648437 14.00195312 4.44921875 12.97265625 C4.19785156 11.68230469 3.94648437 10.39195313 3.6875 9.0625 C3.44386719 7.77472656 3.20023437 6.48695312 2.94921875 5.16015625 C2.63597656 4.11730469 2.32273438 3.07445312 2 2 C1.01 1.67 0.02 1.34 -1 1 C-0.67 0.67 -0.34 0.34 0 0 Z " fill="#4733A2" transform="translate(61,24)"/>
<path d="M0 0 C0.99 0 1.98 0 3 0 C3.19551338 1.60320974 3.38111983 3.20762986 3.5625 4.8125 C3.66691406 5.70582031 3.77132813 6.59914063 3.87890625 7.51953125 C4 10 4 10 3 13 C2.01 13 1.02 13 0 13 C0 12.01 0 11.02 0 10 C-1.65 10 -3.3 10 -5 10 C-4.38390949 5.99541169 -2.44939347 3.16980331 0 0 Z " fill="#3A3A3A" transform="translate(1234,462)"/>
<path d="M0 0 C1.98 0 3.96 0 6 0 C4.68 0.33 3.36 0.66 2 1 C2 1.99 2 2.98 2 4 C3.32 4.33 4.64 4.66 6 5 C5.67 6.65 5.34 8.3 5 10 C1.37 9.67 -2.26 9.34 -6 9 C-5.34 8.01 -4.68 7.02 -4 6 C-3.34 6 -2.68 6 -2 6 C-1.34 4.02 -0.68 2.04 0 0 Z " fill="#C4C8CD" transform="translate(952,286)"/>
<path d="M0 0 C1.67542976 0.28604898 3.34385343 0.61781233 5 1 C5 3.64 5 6.28 5 9 C1.846632 9.70074844 -0.72724974 10 -4 10 C-4 9.34 -4 8.68 -4 8 C-3.34 8 -2.68 8 -2 8 C-1.855625 6.865625 -1.71125 5.73125 -1.5625 4.5625 C-1 1 -1 1 0 0 Z " fill="#939AA4" transform="translate(964,366)"/>
<path d="M0 0 C1.67542976 0.28604898 3.34385343 0.61781233 5 1 C5 3.64 5 6.28 5 9 C1.846632 9.70074844 -0.72724974 10 -4 10 C-4 9.34 -4 8.68 -4 8 C-3.34 8 -2.68 8 -2 8 C-1.855625 6.865625 -1.71125 5.73125 -1.5625 4.5625 C-1 1 -1 1 0 0 Z " fill="#939AA4" transform="translate(964,286)"/>
<path d="M0 0 C0.66 0 1.32 0 2 0 C2 3.96 2 7.92 2 12 C0.02 12 -1.96 12 -4 12 C-4.66 11.34 -5.32 10.68 -6 10 C-5.625 7.375 -5.625 7.375 -5 5 C-3.35 4.67 -1.7 4.34 0 4 C0 2.68 0 1.36 0 0 Z " fill="#7D8593" transform="translate(211,86)"/>
<path d="M0 0 C0.66 0 1.32 0 2 0 C2 3.96 2 7.92 2 12 C0.02 12 -1.96 12 -4 12 C-4.66 11.34 -5.32 10.68 -6 10 C-5.625 7.375 -5.625 7.375 -5 5 C-3.35 4.67 -1.7 4.34 0 4 C0 2.68 0 1.36 0 0 Z " fill="#C5CAD0" transform="translate(142,86)"/>
<path d="M0 0 C2.64 0 5.28 0 8 0 C8.36923077 4.55384615 8.36923077 4.55384615 6.5 6.8125 C6.005 7.204375 5.51 7.59625 5 8 C5.99 9.65 6.98 11.3 8 13 C5.4065835 12.62951193 3.91934413 11.94398898 1.75 10.4375 C-0.81231463 6.86856177 -0.28861266 4.32918986 0 0 Z " fill="#563FF6" transform="translate(358,299)"/>
<path d="M0 0 C2.64 0 5.28 0 8 0 C8.36923077 4.55384615 8.36923077 4.55384615 6.5 6.8125 C6.005 7.204375 5.51 7.59625 5 8 C5.99 9.65 6.98 11.3 8 13 C5.4065835 12.62951193 3.91934413 11.94398898 1.75 10.4375 C-0.81231463 6.86856177 -0.28861266 4.32918986 0 0 Z " fill="#563FF6" transform="translate(96,299)"/>
<path d="M0 0 C0.66 0 1.32 0 2 0 C2 1.32 2 2.64 2 4 C3.65 4.33 5.3 4.66 7 5 C7.04254356 6.99954746 7.04080783 9.00041636 7 11 C6.67 11.33 6.34 11.66 6 12 C4.02 12 2.04 12 0 12 C0 8.04 0 4.08 0 0 Z " fill="#7F7B8C" transform="translate(104,86)"/>
<path d="M0 0 C4.95 0 9.9 0 15 0 C15 1.98 15 3.96 15 6 C13.54119891 5.85892253 12.08296449 5.71197585 10.625 5.5625 C9.40683594 5.44068359 9.40683594 5.44068359 8.1640625 5.31640625 C6 5 6 5 4 4 C4 3.34 4 2.68 4 2 C2.68 2 1.36 2 0 2 C0 1.34 0 0.68 0 0 Z " fill="#325EB9" transform="translate(69,22)"/>
<path d="M0 0 C2.33944736 0.28730055 4.6739143 0.61936779 7 1 C7.125 3.375 7.125 3.375 7 6 C5 8 5 8 2.5 8.25 C0 8 0 8 -2 6 C-1.44444444 1.44444444 -1.44444444 1.44444444 0 0 Z " fill="#E5E2FD" transform="translate(1111,520)"/>
<path d="M0 0 C2.64 0 5.28 0 8 0 C8 1.65 8 3.3 8 5 C7.34 5 6.68 5 6 5 C6 8.76687864 6.23537317 9.91190305 8 13 C5.4065835 12.62951193 3.91934413 11.94398898 1.75 10.4375 C-0.81231463 6.86856177 -0.28861266 4.32918986 0 0 Z " fill="#0B0B0B" transform="translate(1219,462)"/>
<path d="M0 0 C2.375 -0.125 2.375 -0.125 5 0 C5.66 0.66 6.32 1.32 7 2 C6.77256695 4.95662966 6.38764062 6.55033688 4.4375 8.8125 C3.963125 9.204375 3.48875 9.59625 3 10 C4.32 10.33 5.64 10.66 7 11 C7 11.66 7 12.32 7 13 C4.36 13 1.72 13 -1 13 C-0.6875 10.625 -0.6875 10.625 0 8 C0.99 7.34 1.98 6.68 3 6 C3.72382467 3.94074861 3.72382467 3.94074861 4 2 C2.35 2.33 0.7 2.66 -1 3 C-0.67 2.01 -0.34 1.02 0 0 Z " fill="#6248F6" transform="translate(369,299)"/>
<path d="M0 0 C1.98 0 3.96 0 6 0 C7 1 7 1 7.1875 3.4375 C7 6 7 6 5 8 C4.01 8 3.02 8 2 8 C2 9.32 2 10.64 2 12 C1.34 12 0.68 12 0 12 C0 8.04 0 4.08 0 0 Z " fill="#9FABB9" transform="translate(364,90)"/>
<path d="M0 0 C5.94 0.99 5.94 0.99 12 2 C11.67 3.65 11.34 5.3 11 7 C7.7 7 4.4 7 1 7 C0.67 4.69 0.34 2.38 0 0 Z " fill="#FAFAFB" transform="translate(66,29)"/>
<path d="M0 0 C2.31 0 4.62 0 7 0 C7 0.66 7 1.32 7 2 C5.35 2 3.7 2 2 2 C2 2.99 2 3.98 2 5 C3.65 5.33 5.3 5.66 7 6 C7.6875 7.8125 7.6875 7.8125 8 10 C6.875 11.75 6.875 11.75 5 13 C2.3125 13.1875 2.3125 13.1875 0 13 C0 12.34 0 11.68 0 11 C1.32 10.67 2.64 10.34 4 10 C4 9.34 4 8.68 4 8 C2.68 7.67 1.36 7.34 0 7 C0 4.69 0 2.38 0 0 Z " fill="#5B44F6" transform="translate(379,299)"/>
<path d="M0 0 C2.31 0 4.62 0 7 0 C7 0.66 7 1.32 7 2 C5.35 2 3.7 2 2 2 C2 2.99 2 3.98 2 5 C3.65 5.33 5.3 5.66 7 6 C7.6875 7.8125 7.6875 7.8125 8 10 C6.875 11.75 6.875 11.75 5 13 C2.3125 13.1875 2.3125 13.1875 0 13 C0 12.34 0 11.68 0 11 C1.32 10.67 2.64 10.34 4 10 C4 9.34 4 8.68 4 8 C2.68 7.67 1.36 7.34 0 7 C0 4.69 0 2.38 0 0 Z " fill="#5B44F6" transform="translate(117,299)"/>
<path d="M0 0 C1.98 0 3.96 0 6 0 C6.59732819 2.76264289 7 5.16032769 7 8 C7.33 8.99 7.66 9.98 8 11 C7.34 11 6.68 11 6 11 C5.71125 10.360625 5.4225 9.72125 5.125 9.0625 C4.17176549 6.84793921 4.17176549 6.84793921 2 6 C2 7.65 2 9.3 2 11 C1.34 11 0.68 11 0 11 C0 7.37 0 3.74 0 0 Z " fill="#9899A2" transform="translate(346,87)"/>
<path d="M0 0 C0.99 0 1.98 0 3 0 C3 1.32 3 2.64 3 4 C4.65 4.33 6.3 4.66 8 5 C8 7.31 8 9.62 8 12 C7.34 12 6.68 12 6 12 C6 10.02 6 8.04 6 6 C5.01 6 4.02 6 3 6 C3 7.98 3 9.96 3 12 C2.01 12 1.02 12 0 12 C0 8.04 0 4.08 0 0 Z " fill="#E1DDFD" transform="translate(1076,516)"/>
<path d="M0 0 C1.99954746 -0.04254356 4.00041636 -0.04080783 6 0 C7 1 7 1 7.09765625 2.84765625 C7.04882812 5.92382812 7.04882812 5.92382812 7 9 C4.69 9 2.38 9 0 9 C-0.33 7.68 -0.66 6.36 -1 5 C-0.01 4.34 0.98 3.68 2 3 C1.34 2.67 0.68 2.34 0 2 C0 1.34 0 0.68 0 0 Z " fill="#202020" transform="translate(953,466)"/>
<path d="M0 0 C2.5 0.125 2.5 0.125 3.5 1.125 C3.625 4.125 3.625 4.125 3.5 7.125 C2.5 8.125 2.5 8.125 0.0625 8.3125 C-2.5 8.125 -2.5 8.125 -4.5 6.125 C-3.77607362 0.18880368 -3.77607362 0.18880368 0 0 Z " fill="#797883" transform="translate(371.5,272.875)"/>
<path d="M0 0 C2.5 0.125 2.5 0.125 3.5 1.125 C3.625 4.125 3.625 4.125 3.5 7.125 C2.5 8.125 2.5 8.125 0.0625 8.3125 C-2.5 8.125 -2.5 8.125 -4.5 6.125 C-3.77607362 0.18880368 -3.77607362 0.18880368 0 0 Z " fill="#747982" transform="translate(951.5,266.875)"/>
<path d="M0 0 C0.33 0 0.66 0 1 0 C1.061875 1.1446875 1.061875 1.1446875 1.125 2.3125 C1.77823609 5.32405113 1.77823609 5.32405113 5.0625 6.8125 C6.031875 7.204375 7.00125 7.59625 8 8 C8 8.99 8 9.98 8 11 C5.69 10.67 3.38 10.34 1 10 C0.67 10.99 0.34 11.98 0 13 C-0.33 12.01 -0.66 11.02 -1 10 C-1.99 10.495 -1.99 10.495 -3 11 C-2.67 8.36 -2.34 5.72 -2 3 C-1.34 3 -0.68 3 0 3 C0 2.01 0 1.02 0 0 Z " fill="#E8E5FD" transform="translate(195,28)"/>
<path d="M0 0 C1.99954746 -0.04254356 4.00041636 -0.04080783 6 0 C7 1 7 1 7.0625 3.5625 C7.041875 4.366875 7.02125 5.17125 7 6 C5.35 6.33 3.7 6.66 2 7 C2 8.32 2 9.64 2 11 C1.34 11 0.68 11 0 11 C0 7.37 0 3.74 0 0 Z " fill="#8477F8" transform="translate(280,87)"/>
<path d="M0 0 C3.3 0 6.6 0 10 0 C10 0.66 10 1.32 10 2 C8.68 2 7.36 2 6 2 C6 5.63 6 9.26 6 13 C5.01 13 4.02 13 3 13 C3 9.37 3 5.74 3 2 C2.01 2 1.02 2 0 2 C0 1.34 0 0.68 0 0 Z " fill="#181818" transform="translate(925,462)"/>
<path d="M0 0 C2.375 -0.125 2.375 -0.125 5 0 C7 2 7 2 7.1953125 3.9453125 C7.13020833 5.96354167 7.06510417 7.98177083 7 10 C4.36 10 1.72 10 -1 10 C-1.33 8.68 -1.66 7.36 -2 6 C-0.68 5.67 0.64 5.34 2 5 C1.67 5.99 1.34 6.98 1 8 C1.99 7.67 2.98 7.34 4 7 C4.33 6.34 4.66 5.68 5 5 C4.34 4.67 3.68 4.34 3 4 C3.33 3.34 3.66 2.68 4 2 C2.35 2 0.7 2 -1 2 C-0.67 1.34 -0.34 0.68 0 0 Z " fill="#373E4B" transform="translate(940,180)"/>
<path d="M0 0 C0 0.66 0 1.32 0 2 C-1.98 2.66 -3.96 3.32 -6 4 C-6.74957157 7.47147842 -6.74957157 7.47147842 -7 11 C-4.69 11.33 -2.38 11.66 0 12 C0 12.66 0 13.32 0 14 C-3.53677664 14.32152515 -5.3962104 14.4131192 -8.375 12.375 C-10.48706506 9.28813568 -10.61195145 7.6717087 -10 4 C-7.16463433 -0.14399597 -4.86205069 -0.44200461 0 0 Z " fill="#232B39" transform="translate(936,176)"/>
<path d="M0 0 C3.69230769 0.69230769 3.69230769 0.69230769 5 2 C5.1875 4.9375 5.1875 4.9375 5 8 C4.34 8.66 3.68 9.32 3 10 C0.875 9.625 0.875 9.625 -1 9 C-1.09765625 2.84765625 -1.09765625 2.84765625 -1 1 C-0.67 0.67 -0.34 0.34 0 0 Z " fill="#B1B6BD" transform="translate(972,366)"/>
<path d="M0 0 C3.69230769 0.69230769 3.69230769 0.69230769 5 2 C5.1875 4.9375 5.1875 4.9375 5 8 C4.34 8.66 3.68 9.32 3 10 C0.875 9.625 0.875 9.625 -1 9 C-1.09765625 2.84765625 -1.09765625 2.84765625 -1 1 C-0.67 0.67 -0.34 0.34 0 0 Z " fill="#B1B6BD" transform="translate(972,286)"/>
<path d="M0 0 C2.625 0.375 2.625 0.375 5 1 C5.625 3.375 5.625 3.375 6 6 C5.34 6.66 4.68 7.32 4 8 C1.375 7.625 1.375 7.625 -1 7 C-1.625 4.625 -1.625 4.625 -2 2 C-1.34 1.34 -0.68 0.68 0 0 Z " fill="#B1B2BA" transform="translate(198,90)"/>
<path d="M0 0 C0.99 0 1.98 0 3 0 C3 1.98 3 3.96 3 6 C3.66 6 4.32 6 5 6 C5 4.02 5 2.04 5 0 C5.99 0 6.98 0 8 0 C8 2.64 8 5.28 8 8 C5.66705225 8.04241723 3.33297433 8.04092937 1 8 C0 7 0 7 -0.0625 3.4375 C-0.041875 2.303125 -0.02125 1.16875 0 0 Z " fill="#DBD7FD" transform="translate(1119,520)"/>
<path d="M0 0 C0 0.66 0 1.32 0 2 C-1.65 2.33 -3.3 2.66 -5 3 C-5 4.65 -5 6.3 -5 8 C-3.35 8.33 -1.7 8.66 0 9 C0 9.66 0 10.32 0 11 C-3.375 11.125 -3.375 11.125 -7 11 C-9 9 -9 9 -9.3125 6.0625 C-9 3 -9 3 -7.875 1.125 C-5.21965017 -0.4682099 -3.03210482 -0.20214032 0 0 Z " fill="#E0DDFD" transform="translate(1075,517)"/>
<path d="M0 0 C7 0 7 0 9 1 C9 2.98 9 4.96 9 7 C8.01 6.67 7.02 6.34 6 6 C6 5.01 6 4.02 6 3 C4.68 2.67 3.36 2.34 2 2 C2 5.96 2 9.92 2 14 C1.34 14 0.68 14 0 14 C0 9.38 0 4.76 0 0 Z " fill="#40272F" transform="translate(78,176)"/>
<path d="M0 0 C0.04254356 1.99954746 0.04080783 4.00041636 0 6 C-1 7 -1 7 -3.5 7.125 C-6 7 -6 7 -7 6 C-7.04080783 4.00041636 -7.04254356 1.99954746 -7 0 C-4.3333581 -1.33332095 -2.83319697 -0.67102033 0 0 Z " fill="#B1B4BC" transform="translate(380,91)"/>
<path d="M0 0 C0.04254356 1.99954746 0.04080783 4.00041636 0 6 C-1 7 -1 7 -3.5 7.125 C-6 7 -6 7 -7 6 C-7.04080783 4.00041636 -7.04254356 1.99954746 -7 0 C-4.3333581 -1.33332095 -2.83319697 -0.67102033 0 0 Z " fill="#B4B4BA" transform="translate(120,91)"/>
<path d="M0 0 C0.66 0 1.32 0 2 0 C2.33 2.31 2.66 4.62 3 7 C3.99 7 4.98 7 6 7 C6.33 4.69 6.66 2.38 7 0 C7.66 0 8.32 0 9 0 C9 3.3 9 6.6 9 10 C2.84765625 10.09765625 2.84765625 10.09765625 1 10 C0 9 0 9 -0.09765625 6.93359375 C-0.08605469 6.10988281 -0.07445313 5.28617188 -0.0625 4.4375 C-0.05347656 3.61121094 -0.04445313 2.78492188 -0.03515625 1.93359375 C-0.02355469 1.29550781 -0.01195313 0.65742188 0 0 Z " fill="#342A48" transform="translate(121,180)"/>
<path d="M0 0 C1.32 0 2.64 0 4 0 C4 3.96 4 7.92 4 12 C2.68 12 1.36 12 0 12 C0 8.04 0 4.08 0 0 Z " fill="#624EF6" transform="translate(149,30)"/>
<path d="M0 0 C1.32 0 2.64 0 4 0 C4 3.96 4 7.92 4 12 C2.68 12 1.36 12 0 12 C0 8.04 0 4.08 0 0 Z " fill="#604CF6" transform="translate(128,30)"/>
<path d="M0 0 C1.65 0 3.3 0 5 0 C5.33 1.32 5.66 2.64 6 4 C5.01 4 4.02 4 3 4 C2.67 8.29 2.34 12.58 2 17 C1.34 17 0.68 17 0 17 C0 11.39 0 5.78 0 0 Z " fill="#523CF6" transform="translate(106,25)"/>
<path d="M0 0 C1.2065625 0.0309375 1.2065625 0.0309375 2.4375 0.0625 C2.7675 1.3825 3.0975 2.7025 3.4375 4.0625 C1.7875 4.0625 0.1375 4.0625 -1.5625 4.0625 C-1.5625 4.7225 -1.5625 5.3825 -1.5625 6.0625 C0.0875 6.0625 1.7375 6.0625 3.4375 6.0625 C3.4375 6.7225 3.4375 7.3825 3.4375 8.0625 C0.5625 8.1875 0.5625 8.1875 -2.5625 8.0625 C-3.2225 7.4025 -3.8825 6.7425 -4.5625 6.0625 C-3.83457637 0.09352625 -3.83457637 0.09352625 0 0 Z " fill="#DAD6FD" transform="translate(1089.5625,519.9375)"/>
<path d="M0 0 C1.65 0 3.3 0 5 0 C5.66 0.66 6.32 1.32 7 2 C6.625 4.125 6.625 4.125 6 6 C4.35 6.33 2.7 6.66 1 7 C0.67 8.32 0.34 9.64 0 11 C0 7.37 0 3.74 0 0 Z " fill="#A09CA8" transform="translate(182,87)"/>
<path d="M0 0 C0.66 0 1.32 0 2 0 C2.33 1.65 2.66 3.3 3 5 C4.32 4.67 5.64 4.34 7 4 C5.515 6.475 5.515 6.475 4 9 C4.66 9 5.32 9 6 9 C6.33 9.99 6.66 10.98 7 12 C6.01 12 5.02 12 4 12 C3.67 11.34 3.34 10.68 3 10 C2.67 10.66 2.34 11.32 2 12 C1.34 12 0.68 12 0 12 C0 8.04 0 4.08 0 0 Z " fill="#ECEAFE" transform="translate(1102,516)"/>
<path d="M0 0 C2.31 0.33 4.62 0.66 7 1 C6.67 2.98 6.34 4.96 6 7 C4.33388095 7.042721 2.66617115 7.04063832 1 7 C0 6 0 6 -0.0625 2.9375 C-0.041875 1.968125 -0.02125 0.99875 0 0 Z " fill="#CACED5" transform="translate(224,91)"/>
<path d="M0 0 C0.33 0.99 0.66 1.98 1 3 C1.66 3 2.32 3 3 3 C3 3.66 3 4.32 3 5 C2.34 5 1.68 5 1 5 C1 6.65 1 8.3 1 10 C1.66 10 2.32 10 3 10 C3 10.66 3 11.32 3 12 C1.35 11.67 -0.3 11.34 -2 11 C-2.96891192 5.62694301 -2.96891192 5.62694301 -3 3 C-1.5625 1 -1.5625 1 0 0 Z " fill="#171717" transform="translate(948,463)"/>
<path d="M0 0 C0 4.29 0 8.58 0 13 C-0.99 13 -1.98 13 -3 13 C-3 10.03 -3 7.06 -3 4 C-3.66 4 -4.32 4 -5 4 C-4.67 3.01 -4.34 2.02 -4 1 C-2 0 -2 0 0 0 Z " fill="#6D4BF6" transform="translate(112,299)"/>
<path d="M0 0 C0.66 0 1.32 0 2 0 C2 0.66 2 1.32 2 2 C2.66 2.33 3.32 2.66 4 3 C3.34 3 2.68 3 2 3 C2 4.98 2 6.96 2 9 C2.66 9.33 3.32 9.66 4 10 C2.68 9.67 1.36 9.34 0 9 C0 7.02 0 5.04 0 3 C-1.32 3 -2.64 3 -4 3 C-4 5.31 -4 7.62 -4 10 C-4.66 10 -5.32 10 -6 10 C-6 7.36 -6 4.72 -6 2 C-4.02 2 -2.04 2 0 2 C0 1.34 0 0.68 0 0 Z " fill="#7E8593" transform="translate(388,88)"/>
<path d="M0 0 C1.2065625 0.0309375 1.2065625 0.0309375 2.4375 0.0625 C3.5625 4.8125 3.5625 4.8125 2.4375 7.0625 C0.77138095 7.105221 -0.89632885 7.10313832 -2.5625 7.0625 C-3.5625 6.0625 -3.5625 6.0625 -3.6875 3.5625 C-3.51717518 0.15600356 -3.41884482 0.08338646 0 0 Z " fill="#F8F3FD" transform="translate(294.5625,88.9375)"/>
<path d="M0 0 C1.66611905 -0.042721 3.33382885 -0.04063832 5 0 C6 1 6 1 6.0625 4.5625 C6.041875 5.696875 6.02125 6.83125 6 8 C4.02 8 2.04 8 0 8 C-0.33 6.68 -0.66 5.36 -1 4 C0.32 3.34 1.64 2.68 3 2 C2.01 2 1.02 2 0 2 C0 1.34 0 0.68 0 0 Z " fill="#2C2C2C" transform="translate(1088,573)"/>
<path d="M0 0 C0.99 0 1.98 0 3 0 C3 4.62 3 9.24 3 14 C2.01 14 1.02 14 0 14 C0 9.38 0 4.76 0 0 Z " fill="#1F1F1F" transform="translate(962,461)"/>
<path d="M0 0 C1.65 0 3.3 0 5 0 C5 0.66 5 1.32 5 2 C3.68 2 2.36 2 1 2 C1 2.66 1 3.32 1 4 C2.32 4.33 3.64 4.66 5 5 C5.33 6.32 5.66 7.64 6 9 C3.69 9.33 1.38 9.66 -1 10 C-1 9.34 -1 8.68 -1 8 C0.32 8 1.64 8 3 8 C3 7.34 3 6.68 3 6 C1.68 5.67 0.36 5.34 -1 5 C-0.67 3.35 -0.34 1.7 0 0 Z " fill="#323346" transform="translate(150,180)"/>
<path d="M0 0 C1.66611905 -0.042721 3.33382885 -0.04063832 5 0 C6 1 6 1 6.0625 4.5625 C6.041875 5.696875 6.02125 6.83125 6 8 C4.02 8 2.04 8 0 8 C-0.33 6.68 -0.66 5.36 -1 4 C0.65 3.67 2.3 3.34 4 3 C4 2.34 4 1.68 4 1 C2.68 1.33 1.36 1.66 0 2 C0 1.34 0 0.68 0 0 Z " fill="#738098" transform="translate(123,90)"/>
<path d="M0 0 C0.66 0 1.32 0 2 0 C2 1.32 2 2.64 2 4 C3.65 4.33 5.3 4.66 7 5 C7 7.31 7 9.62 7 12 C6.34 12 5.68 12 5 12 C5 9.69 5 7.38 5 5 C4.01 5 3.02 5 2 5 C2 7.31 2 9.62 2 12 C1.34 12 0.68 12 0 12 C0 8.04 0 4.08 0 0 Z " fill="#868797" transform="translate(95,86)"/>
<path d="M0 0 C0.66 0 1.32 0 2 0 C2 0.99 2 1.98 2 3 C2.99 3 3.98 3 5 3 C5 3.66 5 4.32 5 5 C4.01 5 3.02 5 2 5 C2 6.98 2 8.96 2 11 C2.99 11 3.98 11 5 11 C5 11.66 5 12.32 5 13 C3.35 12.67 1.7 12.34 0 12 C0 9.69 0 7.38 0 5 C-0.66 5 -1.32 5 -2 5 C-2 4.34 -2 3.68 -2 3 C-1.34 3 -0.68 3 0 3 C0 2.01 0 1.02 0 0 Z " fill="#2E3543" transform="translate(958,177)"/>
<path d="M0 0 C-0.33 0.99 -0.66 1.98 -1 3 C-2.32 3 -3.64 3 -5 3 C-5 4.32 -5 5.64 -5 7 C-3.35 7 -1.7 7 0 7 C-0.33 7.99 -0.66 8.98 -1 10 C-3.375 10.125 -3.375 10.125 -6 10 C-8 8 -8 8 -8.3125 5 C-8.209375 4.01 -8.10625 3.02 -8 2 C-4.77208445 -0.1519437 -3.71599191 -0.20086443 0 0 Z " fill="#35344A" transform="translate(140,180)"/>
<path d="M0 0 C1.65 0.33 3.3 0.66 5 1 C5.33 2.65 5.66 4.3 6 6 C4.35 6.33 2.7 6.66 1 7 C1 8.65 1 10.3 1 12 C0.67 12 0.34 12 0 12 C-0.76173392 7.6835078 -1.16063604 4.25566547 0 0 Z " fill="#265A8A" transform="translate(80,178)"/>
<path d="M0 0 C0 0.66 0 1.32 0 2 C-1.65 2.33 -3.3 2.66 -5 3 C-5 4.65 -5 6.3 -5 8 C-3.35 8.33 -1.7 8.66 0 9 C0 9.66 0 10.32 0 11 C-6.875 10.125 -6.875 10.125 -8 9 C-8.45875252 3.72434608 -8.45875252 3.72434608 -6.8125 1.125 C-4.43963721 -0.34781139 -2.74086056 -0.22223194 0 0 Z " fill="#2D2D2D" transform="translate(1114,570)"/>
<path d="M0 0 C0.99 0 1.98 0 3 0 C3 0.66 3 1.32 3 2 C3.66 2 4.32 2 5 2 C5 2.66 5 3.32 5 4 C4.34 4 3.68 4 3 4 C3 5.32 3 6.64 3 8 C3.66 8 4.32 8 5 8 C5 8.66 5 9.32 5 10 C3.35 9.67 1.7 9.34 0 9 C-1.125 2.25 -1.125 2.25 0 0 Z " fill="#D9D5FD" transform="translate(1129,518)"/>
<path d="M0 0 C0.66 0 1.32 0 2 0 C2 4.95 2 9.9 2 15 C1.34 15 0.68 15 0 15 C-0.12375 13.329375 -0.12375 13.329375 -0.25 11.625 C-0.57873787 7.94246056 -0.57873787 7.94246056 -3.0625 6.5625 C-3.701875 6.376875 -4.34125 6.19125 -5 6 C-4.01 5.67 -3.02 5.34 -2 5 C-1.34 5.33 -0.68 5.66 0 6 C0 4.02 0 2.04 0 0 Z " fill="#152859" transform="translate(116,175)"/>
<path d="M0 0 C0.639375 0.2475 1.27875 0.495 1.9375 0.75 C2.2675 1.74 2.5975 2.73 2.9375 3.75 C1.2875 3.75 -0.3625 3.75 -2.0625 3.75 C-2.0625 4.41 -2.0625 5.07 -2.0625 5.75 C-0.7425 5.75 0.5775 5.75 1.9375 5.75 C1.9375 6.41 1.9375 7.07 1.9375 7.75 C0.27138095 7.792721 -1.39632885 7.79063832 -3.0625 7.75 C-4.0625 6.75 -4.0625 6.75 -4.125 3.6875 C-4.104375 2.718125 -4.08375 1.74875 -4.0625 0.75 C-2.0625 -0.25 -2.0625 -0.25 0 0 Z " fill="#434343" transform="translate(1083.0625,573.25)"/>
<path d="M0 0 C0 0.66 0 1.32 0 2 C-1.98 2.66 -3.96 3.32 -6 4 C-5.67 5.32 -5.34 6.64 -5 8 C-3.35 8.33 -1.7 8.66 0 9 C0 9.66 0 10.32 0 11 C-2.875 11.125 -2.875 11.125 -6 11 C-8 9 -8 9 -8.3125 5.5 C-8.209375 4.345 -8.10625 3.19 -8 2 C-4.77208445 -0.1519437 -3.71599191 -0.20086443 0 0 Z " fill="#2C2C2C" transform="translate(1073,570)"/>
<path d="M0 0 C0.639375 0.2475 1.27875 0.495 1.9375 0.75 C2.2675 1.74 2.5975 2.73 2.9375 3.75 C1.2875 3.75 -0.3625 3.75 -2.0625 3.75 C-2.0625 4.41 -2.0625 5.07 -2.0625 5.75 C-0.7425 5.75 0.5775 5.75 1.9375 5.75 C1.9375 6.41 1.9375 7.07 1.9375 7.75 C0.27138095 7.792721 -1.39632885 7.79063832 -3.0625 7.75 C-4.0625 6.75 -4.0625 6.75 -4.125 3.6875 C-4.104375 2.718125 -4.08375 1.74875 -4.0625 0.75 C-2.0625 -0.25 -2.0625 -0.25 0 0 Z " fill="#4B5166" transform="translate(395.0625,273.25)"/>
<path d="M0 0 C0.66 0 1.32 0 2 0 C2 0.99 2 1.98 2 3 C2.66 3 3.32 3 4 3 C4 3.66 4 4.32 4 5 C3.34 5 2.68 5 2 5 C2 6.98 2 8.96 2 11 C2.66 11 3.32 11 4 11 C4 11.66 4 12.32 4 13 C2.68 12.67 1.36 12.34 0 12 C0 9.69 0 7.38 0 5 C-0.66 5 -1.32 5 -2 5 C-2 4.34 -2 3.68 -2 3 C-1.34 3 -0.68 3 0 3 C0 2.01 0 1.02 0 0 Z " fill="#1D2549" transform="translate(143,177)"/>
<path d="M0 0 C1.65 0.33 3.3 0.66 5 1 C5 3.31 5 5.62 5 8 C3.02 8 1.04 8 -1 8 C-0.67 6.35 -0.34 4.7 0 3 C0.99 3 1.98 3 3 3 C3 2.34 3 1.68 3 1 C2.01 0.67 1.02 0.34 0 0 Z " fill="#8A909E" transform="translate(81,90)"/>
<path d="M0 0 C0.639375 0.2475 1.27875 0.495 1.9375 0.75 C2.2675 1.74 2.5975 2.73 2.9375 3.75 C0.9575 3.75 -1.0225 3.75 -3.0625 3.75 C-3.0625 4.41 -3.0625 5.07 -3.0625 5.75 C-1.4125 5.75 0.2375 5.75 1.9375 5.75 C1.9375 6.41 1.9375 7.07 1.9375 7.75 C0.27138095 7.792721 -1.39632885 7.79063832 -3.0625 7.75 C-4.0625 6.75 -4.0625 6.75 -4.125 3.6875 C-4.104375 2.718125 -4.08375 1.74875 -4.0625 0.75 C-2.0625 -0.25 -2.0625 -0.25 0 0 Z " fill="#4A505C" transform="translate(975.0625,267.25)"/>
<path d="M0 0 C1.98 0 3.96 0 6 0 C6 0.66 6 1.32 6 2 C5.01 2.495 5.01 2.495 4 3 C3.59270772 5.32156597 3.25561323 7.6568787 3 10 C2.01 10 1.02 10 0 10 C0 6.7 0 3.4 0 0 Z " fill="#404653" transform="translate(949,180)"/>
<path d="M0 0 C1.32 0 2.64 0 4 0 C4 0.99 4 1.98 4 3 C5.32 3.33 6.64 3.66 8 4 C8 4.66 8 5.32 8 6 C6.68 6 5.36 6 4 6 C3.67 6.66 3.34 7.32 3 8 C3 7.34 3 6.68 3 6 C2.01 6 1.02 6 0 6 C0 4.02 0 2.04 0 0 Z " fill="#F6F5EC" transform="translate(145,182)"/>
<path d="M0 0 C0.66 0 1.32 0 2 0 C2 0.66 2 1.32 2 2 C2.66 2.33 3.32 2.66 4 3 C3.34 3 2.68 3 2 3 C2 4.98 2 6.96 2 9 C2.66 9.33 3.32 9.66 4 10 C2.68 9.67 1.36 9.34 0 9 C-0.33 7.35 -0.66 5.7 -1 4 C-2.65 3.67 -4.3 3.34 -6 3 C-6 2.67 -6 2.34 -6 2 C-4.02 2 -2.04 2 0 2 C0 1.34 0 0.68 0 0 Z " fill="#8C96A4" transform="translate(232,88)"/>
<path d="M0 0 C1.65 0.33 3.3 0.66 5 1 C5 2.98 5 4.96 5 7 C3.02 7.33 1.04 7.66 -1 8 C-0.01 7.67 0.98 7.34 2 7 C1.484375 6.5875 0.96875 6.175 0.4375 5.75 C-0.036875 5.1725 -0.51125 4.595 -1 4 C-0.6875 1.8125 -0.6875 1.8125 0 0 Z " fill="#A0ABB9" transform="translate(89,90)"/>
<path d="M0 0 C0.66 0 1.32 0 2 0 C2 0.99 2 1.98 2 3 C2.66 3 3.32 3 4 3 C4.33 2.34 4.66 1.68 5 1 C5 1.66 5 2.32 5 3 C5.66 3.33 6.32 3.66 7 4 C6.34 4 5.68 4 5 4 C5 5.65 5 7.3 5 9 C5.66 9.33 6.32 9.66 7 10 C6.01 10 5.02 10 4 10 C4 8.02 4 6.04 4 4 C3.34 4 2.68 4 2 4 C2 5.98 2 7.96 2 10 C1.34 10 0.68 10 0 10 C0 6.7 0 3.4 0 0 Z " fill="#9097A1" transform="translate(926,431)"/>
<path d="M0 0 C2.625 0.375 2.625 0.375 5 1 C5 1.99 5 2.98 5 4 C3.35 4 1.7 4 0 4 C0.95865509 6.33075929 0.95865509 6.33075929 4 8 C2.35 7.67 0.7 7.34 -1 7 C-1.625 4.625 -1.625 4.625 -2 2 C-1.34 1.34 -0.68 0.68 0 0 Z " fill="#474456" transform="translate(384,273)"/>
<path d="M0 0 C2.625 0.375 2.625 0.375 5 1 C5 1.99 5 2.98 5 4 C3.35 4 1.7 4 0 4 C0.95865509 6.33075929 0.95865509 6.33075929 4 8 C2.35 7.67 0.7 7.34 -1 7 C-1.625 4.625 -1.625 4.625 -2 2 C-1.34 1.34 -0.68 0.68 0 0 Z " fill="#474456" transform="translate(103,273)"/>
<path d="M0 0 C1.67542976 0.28604898 3.34385343 0.61781233 5 1 C5.33 1.99 5.66 2.98 6 4 C4.02 4 2.04 4 0 4 C0.33 4.66 0.66 5.32 1 6 C2.32 6 3.64 6 5 6 C5 6.66 5 7.32 5 8 C3.33388095 8.042721 1.66617115 8.04063832 0 8 C-1 7 -1 7 -1.125 4 C-1 1 -1 1 0 0 Z " fill="#858997" transform="translate(356,90)"/>
<path d="M0 0 C0.99 0.33 1.98 0.66 3 1 C3 3.31 3 5.62 3 8 C1.68 8 0.36 8 -1 8 C-1.125 2.25 -1.125 2.25 0 0 Z " fill="#D7D7D7" transform="translate(1258,464)"/>
<path d="M0 0 C0.99 0.33 1.98 0.66 3 1 C3 3.31 3 5.62 3 8 C1.68 8 0.36 8 -1 8 C-1.125 2.25 -1.125 2.25 0 0 Z " fill="#E1E4FC" transform="translate(407,301)"/>
<path d="M0 0 C0.99 0.33 1.98 0.66 3 1 C3 3.31 3 5.62 3 8 C1.68 8 0.36 8 -1 8 C-1.125 2.25 -1.125 2.25 0 0 Z " fill="#E1E4FC" transform="translate(145,301)"/>
<path d="M0 0 C1.65 0.33 3.3 0.66 5 1 C5 3.31 5 5.62 5 8 C4.34 7.34 3.68 6.68 3 6 C3.33 5.34 3.66 4.68 4 4 C3.01 4.66 2.02 5.32 1 6 C1.33 6.66 1.66 7.32 2 8 C1.01 8 0.02 8 -1 8 C-0.835 7.236875 -0.67 6.47375 -0.5 5.6875 C0.09145396 2.96403764 0.09145396 2.96403764 0 0 Z " fill="#272727" transform="translate(1117,573)"/>
<path d="M0 0 C1.65 0.33 3.3 0.66 5 1 C5 3.31 5 5.62 5 8 C4.34 7.34 3.68 6.68 3 6 C3.33 5.34 3.66 4.68 4 4 C3.01 4.66 2.02 5.32 1 6 C1.33 6.66 1.66 7.32 2 8 C1.01 8 0.02 8 -1 8 C-0.835 7.236875 -0.67 6.47375 -0.5 5.6875 C0.09145396 2.96403764 0.09145396 2.96403764 0 0 Z " fill="#343B48" transform="translate(953,347)"/>
<path d="M0 0 C0.66 0 1.32 0 2 0 C2 3.96 2 7.92 2 12 C1.01 11.67 0.02 11.34 -1 11 C-0.9071875 9.824375 -0.9071875 9.824375 -0.8125 8.625 C-0.874375 7.75875 -0.93625 6.8925 -1 6 C-1.99 5.34 -2.98 4.68 -4 4 C-2.68 4 -1.36 4 0 4 C0 2.68 0 1.36 0 0 Z " fill="#7E879B" transform="translate(142,86)"/>
<path d="M0 0 C0.33 0.99 0.66 1.98 1 3 C1.66 3 2.32 3 3 3 C2.67 4.65 2.34 6.3 2 8 C1.01 8 0.02 8 -1 8 C-1 7.01 -1 6.02 -1 5 C-2.65 5 -4.3 5 -6 5 C-5.67 4.34 -5.34 3.68 -5 3 C-3.35 3 -1.7 3 0 3 C0 2.01 0 1.02 0 0 Z " fill="#0D0D0D" transform="translate(1235,467)"/>
<path d="M0 0 C1.98 0.66 3.96 1.32 6 2 C5.38125 2.4125 4.7625 2.825 4.125 3.25 C1.93231719 5.05573879 1.07211583 6.4090534 0 9 C0 8.34 0 7.68 0 7 C-0.66 7 -1.32 7 -2 7 C-2 5.35 -2 3.7 -2 2 C-1.34 2 -0.68 2 0 2 C0 1.34 0 0.68 0 0 Z " fill="#E6E6E6" transform="translate(951,466)"/>
<path d="M0 0 C1.65 0.33 3.3 0.66 5 1 C5 3.31 5 5.62 5 8 C4.67 6.68 4.34 5.36 4 4 C3.01 4.66 2.02 5.32 1 6 C1.33 6.66 1.66 7.32 2 8 C1.01 8 0.02 8 -1 8 C-0.835 7.236875 -0.67 6.47375 -0.5 5.6875 C0.09145396 2.96403764 0.09145396 2.96403764 0 0 Z " fill="#3C3846" transform="translate(111,273)"/>
<path d="M0 0 C1.32 0 2.64 0 4 0 C4.33 1.32 4.66 2.64 5 4 C3.68 4.33 2.36 4.66 1 5 C1.99 5.66 2.98 6.32 4 7 C2.35 6.67 0.7 6.34 -1 6 C-1.042721 4.33388095 -1.04063832 2.66617115 -1 1 C-0.67 0.67 -0.34 0.34 0 0 Z " fill="#848B96" transform="translate(935,434)"/>
<path d="M0 0 C1.98 0 3.96 0 6 0 C6 0.66 6 1.32 6 2 C5.01 2.33 4.02 2.66 3 3 C2.67 5.31 2.34 7.62 2 10 C1.34 10 0.68 10 0 10 C0 6.7 0 3.4 0 0 Z " fill="#252341" transform="translate(90,180)"/>
<path d="M0 0 C1.32 0 2.64 0 4 0 C4 1.65 4 3.3 4 5 C2.35 5.33 0.7 5.66 -1 6 C-1.042721 4.33388095 -1.04063832 2.66617115 -1 1 C-0.67 0.67 -0.34 0.34 0 0 Z " fill="#F3F6F2" transform="translate(100,182)"/>
<path d="M0 0 C2.475 0.495 2.475 0.495 5 1 C4.67 2.65 4.34 4.3 4 6 C2.68 6 1.36 6 0 6 C0 4.02 0 2.04 0 0 Z " fill="#F2ECE1" transform="translate(111,182)"/>
<path d="M0 0 C0.598125 0.309375 1.19625 0.61875 1.8125 0.9375 C4.08956772 2.10209704 4.08956772 2.10209704 7 3 C7 3.66 7 4.32 7 5 C6.34 5 5.68 5 5 5 C5.33 6.98 5.66 8.96 6 11 C5.34 11 4.68 11 4 11 C3.89042969 10.36191406 3.78085938 9.72382812 3.66796875 9.06640625 C3.50941406 8.24011719 3.35085937 7.41382813 3.1875 6.5625 C2.96126953 5.32693359 2.96126953 5.32693359 2.73046875 4.06640625 C2.48941406 3.38449219 2.24835937 2.70257812 2 2 C1.01 1.67 0.02 1.34 -1 1 C-0.67 0.67 -0.34 0.34 0 0 Z " fill="#3252AC" transform="translate(61,24)"/>
<path d="M0 0 C1.65 0.33 3.3 0.66 5 1 C2 3 2 3 0 3 C-0.33 4.32 -0.66 5.64 -1 7 C-1.33 6.34 -1.66 5.68 -2 5 C-3.32 5 -4.64 5 -6 5 C-6 4.34 -6 3.68 -6 3 C-4.35 3 -2.7 3 -1 3 C-0.67 2.01 -0.34 1.02 0 0 Z " fill="#E7E7E7" transform="translate(1087,574)"/>
<path d="M0 0 C2.0625 0.4375 2.0625 0.4375 4 1 C4 2.65 4 4.3 4 6 C3.38125 5.814375 2.7625 5.62875 2.125 5.4375 C-0.04160178 4.76313824 -0.04160178 4.76313824 -2 6 C-1.125 1.125 -1.125 1.125 0 0 Z " fill="#9B8FFA" transform="translate(1111,520)"/>
<path d="M0 0 C2.5 0.25 2.5 0.25 4.5 2.25 C4.625 5.375 4.625 5.375 4.5 8.25 C2.5 4.5 2.5 4.5 2.5 2.25 C0.55000871 2.44471111 0.55000871 2.44471111 -1.5 3.25 C-2.78436734 5.2337767 -2.78436734 5.2337767 -3.5 7.25 C-4.125 4.875 -4.125 4.875 -4.5 2.25 C-2.5 0.25 -2.5 0.25 0 0 Z " fill="#1F2B4F" transform="translate(101.5,179.75)"/>
<path d="M0 0 C0.33 0.99 0.66 1.98 1 3 C3.50447516 4.21869929 3.50447516 4.21869929 6 5 C6 5.66 6 6.32 6 7 C4.02 7.33 2.04 7.66 0 8 C-1.125 2.25 -1.125 2.25 0 0 Z " fill="#EDEEFC" transform="translate(300,89)"/>
<path d="M0 0 C0.66 0 1.32 0 2 0 C2 0.66 2 1.32 2 2 C2.66 2.33 3.32 2.66 4 3 C3.34 3 2.68 3 2 3 C2 4.65 2 6.3 2 8 C2.66 8 3.32 8 4 8 C4 8.66 4 9.32 4 10 C2.68 9.67 1.36 9.34 0 9 C-1.125 2.25 -1.125 2.25 0 0 Z " fill="#2C2C2C" transform="translate(1131,571)"/>
<path d="M0 0 C0.66 0 1.32 0 2 0 C2 2.97 2 5.94 2 9 C1.01 9 0.02 9 -1 9 C-1.09765625 2.84765625 -1.09765625 2.84765625 -1 1 C-0.67 0.67 -0.34 0.34 0 0 Z " fill="#E8E8E8" transform="translate(1269,464)"/>
<path d="M0 0 C0.66 0 1.32 0 2 0 C2 0.66 2 1.32 2 2 C2.66 2.33 3.32 2.66 4 3 C3.34 3 2.68 3 2 3 C2 4.65 2 6.3 2 8 C2.66 8 3.32 8 4 8 C4 8.66 4 9.32 4 10 C2.68 9.67 1.36 9.34 0 9 C-1.125 2.25 -1.125 2.25 0 0 Z " fill="#383F4C" transform="translate(938,345)"/>
<path d="M0 0 C0.33 0 0.66 0 1 0 C1.36923077 5.41538462 1.36923077 5.41538462 -0.5 8.375 C-0.995 8.91125 -1.49 9.4475 -2 10 C-3.65 9.67 -5.3 9.34 -7 9 C-7 8.34 -7 7.68 -7 7 C-5.68 7 -4.36 7 -3 7 C-2.01 4.69 -1.02 2.38 0 0 Z " fill="#5955F7" transform="translate(412,302)"/>
<path d="M0 0 C0.33 0 0.66 0 1 0 C1.36923077 5.41538462 1.36923077 5.41538462 -0.5 8.375 C-0.995 8.91125 -1.49 9.4475 -2 10 C-3.65 9.67 -5.3 9.34 -7 9 C-7 8.34 -7 7.68 -7 7 C-5.68 7 -4.36 7 -3 7 C-2.01 4.69 -1.02 2.38 0 0 Z " fill="#5955F7" transform="translate(150,302)"/>
<path d="M0 0 C3.875 0.875 3.875 0.875 5 2 C5.07179964 3.51928038 5.08392007 5.04167482 5.0625 6.5625 C5.05347656 7.38878906 5.04445313 8.21507812 5.03515625 9.06640625 C5.01775391 10.02353516 5.01775391 10.02353516 5 11 C2.4345406 8.4345406 2.45953913 6.52313332 2 3 C1.01 3 0.02 3 -1 3 C-0.67 2.01 -0.34 1.02 0 0 Z " fill="#5042F6" transform="translate(397,299)"/>
<path d="M0 0 C3.875 0.875 3.875 0.875 5 2 C5.07179964 3.51928038 5.08392007 5.04167482 5.0625 6.5625 C5.05347656 7.38878906 5.04445312 8.21507812 5.03515625 9.06640625 C5.01775391 10.02353516 5.01775391 10.02353516 5 11 C2.4345406 8.4345406 2.45953913 6.52313332 2 3 C1.01 3 0.02 3 -1 3 C-0.67 2.01 -0.34 1.02 0 0 Z " fill="#5042F6" transform="translate(135,299)"/>
<path d="M0 0 C0.66 0 1.32 0 2 0 C2 0.66 2 1.32 2 2 C2.66 2.33 3.32 2.66 4 3 C3.34 3 2.68 3 2 3 C2 4.65 2 6.3 2 8 C2.66 8 3.32 8 4 8 C4 8.66 4 9.32 4 10 C2.68 9.67 1.36 9.34 0 9 C-1.125 2.25 -1.125 2.25 0 0 Z " fill="#462F4D" transform="translate(96,271)"/>
<path d="M0 0 C0.66 0 1.32 0 2 0 C2 2.97 2 5.94 2 9 C1.01 8.67 0.02 8.34 -1 8 C-1.04241723 5.66705225 -1.04092937 3.33297433 -1 1 C-0.67 0.67 -0.34 0.34 0 0 Z " fill="#EDEDED" transform="translate(1243,464)"/>
<path d="M0 0 C0.99 0.33 1.98 0.66 3 1 C2.01 1.495 2.01 1.495 1 2 C2.32 2 3.64 2 5 2 C5 2.66 5 3.32 5 4 C3.35 4 1.7 4 0 4 C0.95865509 6.33075929 0.95865509 6.33075929 4 8 C2.35 7.67 0.7 7.34 -1 7 C-1.625 4.625 -1.625 4.625 -2 2 C-1.34 1.34 -0.68 0.68 0 0 Z " fill="#242B3A" transform="translate(945,347)"/>
<path d="M0 0 C0.66 0 1.32 0 2 0 C2 2.97 2 5.94 2 9 C1.01 8.67 0.02 8.34 -1 8 C-1.04241723 5.66705225 -1.04092937 3.33297433 -1 1 C-0.67 0.67 -0.34 0.34 0 0 Z " fill="#EAF7FE" transform="translate(397,301)"/>
<path d="M0 0 C0.66 0 1.32 0 2 0 C2 2.97 2 5.94 2 9 C1.01 8.67 0.02 8.34 -1 8 C-1.04241723 5.66705225 -1.04092937 3.33297433 -1 1 C-0.67 0.67 -0.34 0.34 0 0 Z " fill="#EAF7FE" transform="translate(135,301)"/>
<path d="M0 0 C0.66 0.33 1.32 0.66 2 1 C1.01 2.485 1.01 2.485 0 4 C0.66 4.33 1.32 4.66 2 5 C1.34 5 0.68 5 0 5 C0 7.31 0 9.62 0 12 C-0.66 12 -1.32 12 -2 12 C-2.33 9.36 -2.66 6.72 -3 4 C-2.34 4 -1.68 4 -1 4 C-0.67 2.68 -0.34 1.36 0 0 Z " fill="#503C36" transform="translate(379,269)"/>
<path d="M0 0 C0.99 0.33 1.98 0.66 3 1 C2.01 1.495 2.01 1.495 1 2 C2.32 2 3.64 2 5 2 C5 2.66 5 3.32 5 4 C3.35 4 1.7 4 0 4 C0.95865509 6.33075929 0.95865509 6.33075929 4 8 C2.35 7.67 0.7 7.34 -1 7 C-1.625 4.625 -1.625 4.625 -2 2 C-1.34 1.34 -0.68 0.68 0 0 Z " fill="#242B3A" transform="translate(964,267)"/>
<path d="M0 0 C0.66 0.33 1.32 0.66 2 1 C1.01 2.485 1.01 2.485 0 4 C0.66 4.33 1.32 4.66 2 5 C1.34 5 0.68 5 0 5 C0 7.31 0 9.62 0 12 C-0.66 12 -1.32 12 -2 12 C-2.33 9.36 -2.66 6.72 -3 4 C-2.34 4 -1.68 4 -1 4 C-0.67 2.68 -0.34 1.36 0 0 Z " fill="#363C4A" transform="translate(959,263)"/>
<path d="M0 0 C0.66 0.33 1.32 0.66 2 1 C1.75881648 4.25597758 0.47775788 5.7276304 -1.875 7.8125 C-2.90625 8.534375 -3.9375 9.25625 -5 10 C-5.99 9.67 -6.98 9.34 -8 9 C-6.576875 8.1646875 -6.576875 8.1646875 -5.125 7.3125 C-1.91121213 4.93429698 -1.04434882 3.75965574 0 0 Z " fill="#EAEBEC" transform="translate(1298,612)"/>
<path d="M0 0 C0 2.64 0 5.28 0 8 C-0.99 8.33 -1.98 8.66 -3 9 C-3 6.36 -3 3.72 -3 1 C-1 0 -1 0 0 0 Z " fill="#252525" transform="translate(1268,464)"/>
<path d="M0 0 C1.32 0.66 2.64 1.32 4 2 C4 4.64 4 7.28 4 10 C3.34 10 2.68 10 2 10 C1.87625 8.88625 1.7525 7.7725 1.625 6.625 C1.3534187 2.96896323 1.3534187 2.96896323 -1 1 C-0.67 0.67 -0.34 0.34 0 0 Z " fill="#030303" transform="translate(1259,462)"/>
<path d="M0 0 C0.66 0 1.32 0 2 0 C2 3.3 2 6.6 2 10 C1.34 10 0.68 10 0 10 C0 7.69 0 5.38 0 3 C-0.66 2.67 -1.32 2.34 -2 2 C-1.34 1.34 -0.68 0.68 0 0 Z " fill="#9197A1" transform="translate(998,366)"/>
<path d="M0 0 C0.66 0 1.32 0 2 0 C2 3.3 2 6.6 2 10 C1.34 10 0.68 10 0 10 C0 7.69 0 5.38 0 3 C-0.66 2.67 -1.32 2.34 -2 2 C-1.34 1.34 -0.68 0.68 0 0 Z " fill="#9197A1" transform="translate(998,286)"/>
<path d="M0 0 C0.66 0.33 1.32 0.66 2 1 C1.625 2.9375 1.625 2.9375 1 5 C0.01 5.495 0.01 5.495 -1 6 C-3.125 5.0625 -3.125 5.0625 -5 4 C-5 3.34 -5 2.68 -5 2 C-3.35 2 -1.7 2 0 2 C0 1.34 0 0.68 0 0 Z " fill="#C6D2D5" transform="translate(389,275)"/>
<path d="M0 0 C2.475 0.495 2.475 0.495 5 1 C4.67 2.32 4.34 3.64 4 5 C2.68 5 1.36 5 0 5 C0 3.35 0 1.7 0 0 Z " fill="#E5E1FD" transform="translate(167,28)"/>
<path d="M0 0 C0.33 0 0.66 0 1 0 C1 2.64 1 5.28 1 8 C-0.98 8.33 -2.96 8.66 -5 9 C-5.33 8.01 -5.66 7.02 -6 6 C-3.525 6.495 -3.525 6.495 -1 7 C-0.67 4.69 -0.34 2.38 0 0 Z " fill="#0C0C0C" transform="translate(1272,466)"/>
<path d="M0 0 C0.99 0.33 1.98 0.66 3 1 C3 2.98 3 4.96 3 7 C2.01 7.33 1.02 7.66 0 8 C0 5.36 0 2.72 0 0 Z " fill="#F2F3F5" transform="translate(965,367)"/>
<path d="M0 0 C0.99 0.33 1.98 0.66 3 1 C3 2.98 3 4.96 3 7 C2.01 7.33 1.02 7.66 0 8 C0 5.36 0 2.72 0 0 Z " fill="#F2F3F5" transform="translate(965,287)"/>
<path d="M0 0 C2.31 0 4.62 0 7 0 C7 0.99 7 1.98 7 3 C5.02 3.99 5.02 3.99 3 5 C3 4.34 3 3.68 3 3 C2.01 2.67 1.02 2.34 0 2 C0 1.34 0 0.68 0 0 Z " fill="#78808C" transform="translate(937,286)"/>
<path d="M0 0 C0.66 0 1.32 0 2 0 C2 3.3 2 6.6 2 10 C1.34 10 0.68 10 0 10 C-1.231394 6.30581799 -0.64432764 3.7943739 0 0 Z " fill="#113D71" transform="translate(128,180)"/>
<path d="M0 0 C0.99 0.33 1.98 0.66 3 1 C2.67 2.65 2.34 4.3 2 6 C1.01 6 0.02 6 -1 6 C-1.042721 4.33388095 -1.04063832 2.66617115 -1 1 C-0.67 0.67 -0.34 0.34 0 0 Z " fill="#F9FBF5" transform="translate(107,91)"/>
<path d="M0 0 C2 2 2 2 2.125 4.625 C2.08375 5.40875 2.0425 6.1925 2 7 C1.01 7.495 1.01 7.495 0 8 C0 7.34 0 6.68 0 6 C-0.66 6 -1.32 6 -2 6 C-2 4.35 -2 2.7 -2 1 C-1.34 0.67 -0.68 0.34 0 0 Z " fill="#DFE1E4" transform="translate(942,347)"/>
<path d="M0 0 C0.33 0 0.66 0 1 0 C1 1.65 1 3.3 1 5 C0.01 5.495 0.01 5.495 -1 6 C-3.125 5.0625 -3.125 5.0625 -5 4 C-5 3.34 -5 2.68 -5 2 C-3.35 2 -1.7 2 0 2 C0 1.34 0 0.68 0 0 Z " fill="#C1D8E6" transform="translate(108,275)"/>
<path d="M0 0 C0.99 0.33 1.98 0.66 3 1 C2.67 2.65 2.34 4.3 2 6 C1.01 5.67 0.02 5.34 -1 5 C-0.67 3.35 -0.34 1.7 0 0 Z " fill="#FCFFFD" transform="translate(208,91)"/>
<path d="M0 0 C0.33 0.66 0.66 1.32 1 2 C2.32 2 3.64 2 5 2 C5 2.99 5 3.98 5 5 C3.68 5 2.36 5 1 5 C0.67 5.99 0.34 6.98 0 8 C0 5.36 0 2.72 0 0 Z " fill="#8FB2F5" transform="translate(68,22)"/>
<path d="M0 0 C0.99 0 1.98 0 3 0 C3 1.65 3 3.3 3 5 C1.68 5 0.36 5 -1 5 C-0.67 3.35 -0.34 1.7 0 0 Z " fill="#E4E4E4" transform="translate(938,468)"/>
<path d="M0 0 C0.33 0.66 0.66 1.32 1 2 C2.65 2 4.3 2 6 2 C6 2.66 6 3.32 6 4 C3.36 4 0.72 4 -2 4 C-1.34 2.68 -0.68 1.36 0 0 Z " fill="#4F3AF6" transform="translate(370,308)"/>
<path d="M0 0 C0.66 0.66 1.32 1.32 2 2 C1.625 4.125 1.625 4.125 1 6 C0.34 6 -0.32 6 -1 6 C-1.33 6.66 -1.66 7.32 -2 8 C-2 5.69 -2 3.38 -2 1 C-1.34 0.67 -0.68 0.34 0 0 Z " fill="#CFD1D5" transform="translate(961,267)"/>
<path d="M0 0 C1.65 0 3.3 0 5 0 C5 1.32 5 2.64 5 4 C3.35 3.67 1.7 3.34 0 3 C0 2.01 0 1.02 0 0 Z " fill="#B1B4B6" transform="translate(122,94)"/>
<path d="M0 0 C0 0.66 0 1.32 0 2 C-1.65 2.33 -3.3 2.66 -5 3 C-5 3.66 -5 4.32 -5 5 C-5.66 5 -6.32 5 -7 5 C-7 3.68 -7 2.36 -7 1 C-4.53721199 -0.231394 -2.7204945 -0.07159196 0 0 Z " fill="#E2EFEF" transform="translate(127,91)"/>
<path d="M0 0 C0.99 0.33 1.98 0.66 3 1 C2.67 2.32 2.34 3.64 2 5 C0.68 4.67 -0.64 4.34 -2 4 C-2 3.01 -2 2.02 -2 1 C-1.34 0.67 -0.68 0.34 0 0 Z " fill="#676767" transform="translate(1089,576)"/>
<path d="M0 0 C2 0 2 0 3.625 1.375 C5 3 5 3 5 5 C3.35 5.33 1.7 5.66 0 6 C0 4.02 0 2.04 0 0 Z " fill="#F0F1F2" transform="translate(951,435)"/>
<path d="M0 0 C1.32 0.33 2.64 0.66 4 1 C3.67 2.32 3.34 3.64 3 5 C2.01 5 1.02 5 0 5 C0 3.35 0 1.7 0 0 Z " fill="#FEFBF0" transform="translate(81,178)"/>
<path d="M0 0 C-2 2 -2 2 -5.625 2.125 C-6.73875 2.08375 -7.8525 2.0425 -9 2 C-9 1.34 -9 0.68 -9 0 C-5.67465243 -1.10844919 -3.37817425 -0.84454356 0 0 Z " fill="#7985F7" transform="translate(78,27)"/>
<path d="M0 0 C0.66 0.33 1.32 0.66 2 1 C1.814375 1.78375 1.62875 2.5675 1.4375 3.375 C0.74037734 5.97089775 0.74037734 5.97089775 2 8 C1.01 7.67 0.02 7.34 -1 7 C-1 6.34 -1 5.68 -1 5 C-1.66 5 -2.32 5 -3 5 C-1.125 1.125 -1.125 1.125 0 0 Z " fill="#6E5CF7" transform="translate(1109,520)"/>
<path d="M0 0 C1.98 0.495 1.98 0.495 4 1 C4 3.64 4 6.28 4 9 C3.67 9 3.34 9 3 9 C2.67 7.02 2.34 5.04 2 3 C1.01 3 0.02 3 -1 3 C-0.67 2.01 -0.34 1.02 0 0 Z " fill="#070707" transform="translate(1243,462)"/>
<path d="M0 0 C1.98 0 3.96 0 6 0 C5.625 1.9375 5.625 1.9375 5 4 C4.01 4.495 4.01 4.495 3 5 C3 4.34 3 3.68 3 3 C2.01 2.67 1.02 2.34 0 2 C0 1.34 0 0.68 0 0 Z " fill="#646D7B" transform="translate(937,366)"/>
<path d="M0 0 C2.475 0.495 2.475 0.495 5 1 C4.67 1.99 4.34 2.98 4 4 C2.68 3.67 1.36 3.34 0 3 C0 2.01 0 1.02 0 0 Z " fill="#9F93F9" transform="translate(79,27)"/>
</svg>
